%TF.GenerationSoftware,KiCad,Pcbnew,10.0.5-10.0.5~ubuntu26.04.1*%
%TF.CreationDate,2026-08-20T20:18:31+01:00*%
%TF.ProjectId,astrapad,61737472-6170-4616-942e-6b696361645f,rev?*%
%TF.SameCoordinates,Original*%
%TF.FileFunction,Legend,Bot*%
%TF.FilePolarity,Positive*%
%FSLAX46Y46*%
G04 Gerber Fmt 4.6, Leading zero omitted, Abs format (unit mm)*
G04 Created by KiCad (PCBNEW 10.0.5-10.0.5~ubuntu26.04.1) date 2026-08-20 20:18:31*
%MOMM*%
%LPD*%
G01*
G04 APERTURE LIST*
%ADD10C,0.100000*%
%ADD11C,0.200000*%
G04 APERTURE END LIST*
D10*
X183077068Y-124896228D02*
X183124687Y-124848609D01*
X183124687Y-124848609D02*
X183219925Y-124800990D01*
X183219925Y-124800990D02*
X183315163Y-124800990D01*
X183315163Y-124800990D02*
X183410401Y-124848609D01*
X183410401Y-124848609D02*
X183458020Y-124896228D01*
X183458020Y-124896228D02*
X183505639Y-124991466D01*
X183505639Y-124991466D02*
X183505639Y-125086704D01*
X183505639Y-125086704D02*
X183458020Y-125181942D01*
X183458020Y-125181942D02*
X183410401Y-125229561D01*
X183410401Y-125229561D02*
X183315163Y-125277180D01*
X183315163Y-125277180D02*
X183219925Y-125277180D01*
X183219925Y-125277180D02*
X183124687Y-125229561D01*
X183124687Y-125229561D02*
X183077068Y-125181942D01*
X183077068Y-124800990D02*
X183077068Y-125181942D01*
X183077068Y-125181942D02*
X183029449Y-125229561D01*
X183029449Y-125229561D02*
X182981830Y-125229561D01*
X182981830Y-125229561D02*
X182886591Y-125181942D01*
X182886591Y-125181942D02*
X182838972Y-125086704D01*
X182838972Y-125086704D02*
X182838972Y-124848609D01*
X182838972Y-124848609D02*
X182934211Y-124705752D01*
X182934211Y-124705752D02*
X183077068Y-124610514D01*
X183077068Y-124610514D02*
X183267544Y-124562895D01*
X183267544Y-124562895D02*
X183458020Y-124610514D01*
X183458020Y-124610514D02*
X183600877Y-124705752D01*
X183600877Y-124705752D02*
X183696115Y-124848609D01*
X183696115Y-124848609D02*
X183743734Y-125039085D01*
X183743734Y-125039085D02*
X183696115Y-125229561D01*
X183696115Y-125229561D02*
X183600877Y-125372419D01*
X183600877Y-125372419D02*
X183458020Y-125467657D01*
X183458020Y-125467657D02*
X183267544Y-125515276D01*
X183267544Y-125515276D02*
X183077068Y-125467657D01*
X183077068Y-125467657D02*
X182934211Y-125372419D01*
X182410401Y-124705752D02*
X182410401Y-125705752D01*
X182410401Y-124753371D02*
X182315163Y-124705752D01*
X182315163Y-124705752D02*
X182124687Y-124705752D01*
X182124687Y-124705752D02*
X182029449Y-124753371D01*
X182029449Y-124753371D02*
X181981830Y-124800990D01*
X181981830Y-124800990D02*
X181934211Y-124896228D01*
X181934211Y-124896228D02*
X181934211Y-125181942D01*
X181934211Y-125181942D02*
X181981830Y-125277180D01*
X181981830Y-125277180D02*
X182029449Y-125324800D01*
X182029449Y-125324800D02*
X182124687Y-125372419D01*
X182124687Y-125372419D02*
X182315163Y-125372419D01*
X182315163Y-125372419D02*
X182410401Y-125324800D01*
X181505639Y-125372419D02*
X181505639Y-124372419D01*
X181077068Y-125372419D02*
X181077068Y-124848609D01*
X181077068Y-124848609D02*
X181124687Y-124753371D01*
X181124687Y-124753371D02*
X181219925Y-124705752D01*
X181219925Y-124705752D02*
X181362782Y-124705752D01*
X181362782Y-124705752D02*
X181458020Y-124753371D01*
X181458020Y-124753371D02*
X181505639Y-124800990D01*
X180172306Y-125372419D02*
X180172306Y-124848609D01*
X180172306Y-124848609D02*
X180219925Y-124753371D01*
X180219925Y-124753371D02*
X180315163Y-124705752D01*
X180315163Y-124705752D02*
X180505639Y-124705752D01*
X180505639Y-124705752D02*
X180600877Y-124753371D01*
X180172306Y-125324800D02*
X180267544Y-125372419D01*
X180267544Y-125372419D02*
X180505639Y-125372419D01*
X180505639Y-125372419D02*
X180600877Y-125324800D01*
X180600877Y-125324800D02*
X180648496Y-125229561D01*
X180648496Y-125229561D02*
X180648496Y-125134323D01*
X180648496Y-125134323D02*
X180600877Y-125039085D01*
X180600877Y-125039085D02*
X180505639Y-124991466D01*
X180505639Y-124991466D02*
X180267544Y-124991466D01*
X180267544Y-124991466D02*
X180172306Y-124943847D01*
X179696115Y-124705752D02*
X179696115Y-125372419D01*
X179696115Y-124800990D02*
X179648496Y-124753371D01*
X179648496Y-124753371D02*
X179553258Y-124705752D01*
X179553258Y-124705752D02*
X179410401Y-124705752D01*
X179410401Y-124705752D02*
X179315163Y-124753371D01*
X179315163Y-124753371D02*
X179267544Y-124848609D01*
X179267544Y-124848609D02*
X179267544Y-125372419D01*
X178934210Y-124705752D02*
X178553258Y-124705752D01*
X178791353Y-124372419D02*
X178791353Y-125229561D01*
X178791353Y-125229561D02*
X178743734Y-125324800D01*
X178743734Y-125324800D02*
X178648496Y-125372419D01*
X178648496Y-125372419D02*
X178553258Y-125372419D01*
X178077067Y-125372419D02*
X178172305Y-125324800D01*
X178172305Y-125324800D02*
X178219924Y-125277180D01*
X178219924Y-125277180D02*
X178267543Y-125181942D01*
X178267543Y-125181942D02*
X178267543Y-124896228D01*
X178267543Y-124896228D02*
X178219924Y-124800990D01*
X178219924Y-124800990D02*
X178172305Y-124753371D01*
X178172305Y-124753371D02*
X178077067Y-124705752D01*
X178077067Y-124705752D02*
X177934210Y-124705752D01*
X177934210Y-124705752D02*
X177838972Y-124753371D01*
X177838972Y-124753371D02*
X177791353Y-124800990D01*
X177791353Y-124800990D02*
X177743734Y-124896228D01*
X177743734Y-124896228D02*
X177743734Y-125181942D01*
X177743734Y-125181942D02*
X177791353Y-125277180D01*
X177791353Y-125277180D02*
X177838972Y-125324800D01*
X177838972Y-125324800D02*
X177934210Y-125372419D01*
X177934210Y-125372419D02*
X178077067Y-125372419D01*
X177315162Y-125372419D02*
X177315162Y-124705752D01*
X177315162Y-124800990D02*
X177267543Y-124753371D01*
X177267543Y-124753371D02*
X177172305Y-124705752D01*
X177172305Y-124705752D02*
X177029448Y-124705752D01*
X177029448Y-124705752D02*
X176934210Y-124753371D01*
X176934210Y-124753371D02*
X176886591Y-124848609D01*
X176886591Y-124848609D02*
X176886591Y-125372419D01*
X176886591Y-124848609D02*
X176838972Y-124753371D01*
X176838972Y-124753371D02*
X176743734Y-124705752D01*
X176743734Y-124705752D02*
X176600877Y-124705752D01*
X176600877Y-124705752D02*
X176505638Y-124753371D01*
X176505638Y-124753371D02*
X176458019Y-124848609D01*
X176458019Y-124848609D02*
X176458019Y-125372419D01*
X175981829Y-124991466D02*
X175219925Y-124991466D01*
X174315163Y-125372419D02*
X174315163Y-124848609D01*
X174315163Y-124848609D02*
X174362782Y-124753371D01*
X174362782Y-124753371D02*
X174458020Y-124705752D01*
X174458020Y-124705752D02*
X174648496Y-124705752D01*
X174648496Y-124705752D02*
X174743734Y-124753371D01*
X174315163Y-125324800D02*
X174410401Y-125372419D01*
X174410401Y-125372419D02*
X174648496Y-125372419D01*
X174648496Y-125372419D02*
X174743734Y-125324800D01*
X174743734Y-125324800D02*
X174791353Y-125229561D01*
X174791353Y-125229561D02*
X174791353Y-125134323D01*
X174791353Y-125134323D02*
X174743734Y-125039085D01*
X174743734Y-125039085D02*
X174648496Y-124991466D01*
X174648496Y-124991466D02*
X174410401Y-124991466D01*
X174410401Y-124991466D02*
X174315163Y-124943847D01*
X173886591Y-125324800D02*
X173791353Y-125372419D01*
X173791353Y-125372419D02*
X173600877Y-125372419D01*
X173600877Y-125372419D02*
X173505639Y-125324800D01*
X173505639Y-125324800D02*
X173458020Y-125229561D01*
X173458020Y-125229561D02*
X173458020Y-125181942D01*
X173458020Y-125181942D02*
X173505639Y-125086704D01*
X173505639Y-125086704D02*
X173600877Y-125039085D01*
X173600877Y-125039085D02*
X173743734Y-125039085D01*
X173743734Y-125039085D02*
X173838972Y-124991466D01*
X173838972Y-124991466D02*
X173886591Y-124896228D01*
X173886591Y-124896228D02*
X173886591Y-124848609D01*
X173886591Y-124848609D02*
X173838972Y-124753371D01*
X173838972Y-124753371D02*
X173743734Y-124705752D01*
X173743734Y-124705752D02*
X173600877Y-124705752D01*
X173600877Y-124705752D02*
X173505639Y-124753371D01*
X172600877Y-125324800D02*
X172696115Y-125372419D01*
X172696115Y-125372419D02*
X172886591Y-125372419D01*
X172886591Y-125372419D02*
X172981829Y-125324800D01*
X172981829Y-125324800D02*
X173029448Y-125277180D01*
X173029448Y-125277180D02*
X173077067Y-125181942D01*
X173077067Y-125181942D02*
X173077067Y-124896228D01*
X173077067Y-124896228D02*
X173029448Y-124800990D01*
X173029448Y-124800990D02*
X172981829Y-124753371D01*
X172981829Y-124753371D02*
X172886591Y-124705752D01*
X172886591Y-124705752D02*
X172696115Y-124705752D01*
X172696115Y-124705752D02*
X172600877Y-124753371D01*
X172172305Y-125372419D02*
X172172305Y-124705752D01*
X172172305Y-124372419D02*
X172219924Y-124420038D01*
X172219924Y-124420038D02*
X172172305Y-124467657D01*
X172172305Y-124467657D02*
X172124686Y-124420038D01*
X172124686Y-124420038D02*
X172172305Y-124372419D01*
X172172305Y-124372419D02*
X172172305Y-124467657D01*
X171696115Y-125372419D02*
X171696115Y-124705752D01*
X171696115Y-124372419D02*
X171743734Y-124420038D01*
X171743734Y-124420038D02*
X171696115Y-124467657D01*
X171696115Y-124467657D02*
X171648496Y-124420038D01*
X171648496Y-124420038D02*
X171696115Y-124372419D01*
X171696115Y-124372419D02*
X171696115Y-124467657D01*
D11*
G36*
X173137091Y-95474505D02*
G01*
X173574450Y-96479243D01*
X174441695Y-98676635D01*
X175402119Y-101310001D01*
X174010423Y-101310001D01*
X173750976Y-100530805D01*
X173471441Y-99750754D01*
X170678218Y-99750754D01*
X170408941Y-100530805D01*
X170139235Y-101310001D01*
X168708644Y-101310001D01*
X169438686Y-99289135D01*
X169671502Y-98683901D01*
X171011610Y-98683901D01*
X173147880Y-98683901D01*
X172834577Y-97805543D01*
X172535807Y-97030194D01*
X172280635Y-96382218D01*
X172089576Y-95876574D01*
X171883984Y-96382218D01*
X171624110Y-97030194D01*
X171325340Y-97805543D01*
X171011610Y-98683901D01*
X169671502Y-98683901D01*
X170110170Y-97543532D01*
X170756864Y-95978729D01*
X171423220Y-94512234D01*
X172687543Y-94512234D01*
X173137091Y-95474505D01*
G37*
G36*
X165860711Y-101446776D02*
G01*
X166444699Y-101423450D01*
X166911329Y-101360047D01*
X167279762Y-101265121D01*
X167785398Y-101078294D01*
X168080329Y-100936004D01*
X167689235Y-99867014D01*
X167389744Y-100010908D01*
X166964323Y-100160655D01*
X166487673Y-100260635D01*
X165867550Y-100297858D01*
X165411226Y-100266941D01*
X165104995Y-100188426D01*
X164907554Y-100077734D01*
X164755379Y-99914245D01*
X164664706Y-99719952D01*
X164633147Y-99484896D01*
X164675210Y-99211947D01*
X164794713Y-99000196D01*
X164985329Y-98825697D01*
X165279413Y-98652272D01*
X165625342Y-98500668D01*
X166091948Y-98328711D01*
X166553365Y-98138223D01*
X166988258Y-97922658D01*
X167376142Y-97654654D01*
X167678550Y-97319988D01*
X167820153Y-97059224D01*
X167910553Y-96737613D01*
X167943126Y-96340330D01*
X167907995Y-95938074D01*
X167807290Y-95588737D01*
X167643928Y-95282453D01*
X167420864Y-95014869D01*
X167141946Y-94788532D01*
X166799337Y-94601993D01*
X166428529Y-94472476D01*
X166001257Y-94390641D01*
X165508086Y-94361780D01*
X164872873Y-94400990D01*
X164354893Y-94509242D01*
X163885284Y-94671498D01*
X163544923Y-94833230D01*
X163950549Y-95892389D01*
X164248731Y-95749689D01*
X164599380Y-95623539D01*
X164979468Y-95540664D01*
X165444827Y-95510698D01*
X165823845Y-95534410D01*
X166099403Y-95596631D01*
X166295403Y-95687225D01*
X166448908Y-95824870D01*
X166541977Y-96006088D01*
X166575366Y-96245442D01*
X166532159Y-96498786D01*
X166407815Y-96695948D01*
X166218340Y-96856027D01*
X165955172Y-97004549D01*
X165315317Y-97264423D01*
X164668208Y-97524621D01*
X164178367Y-97773486D01*
X163891190Y-97969233D01*
X163660348Y-98189248D01*
X163479527Y-98434713D01*
X163351571Y-98709740D01*
X163268349Y-99055277D01*
X163238032Y-99487888D01*
X163272707Y-99890397D01*
X163372036Y-100239754D01*
X163532955Y-100545765D01*
X163754951Y-100809957D01*
X164044045Y-101033435D01*
X164411741Y-101216822D01*
X164807991Y-101338952D01*
X165286133Y-101418222D01*
X165860711Y-101446776D01*
G37*
G36*
X160755547Y-101310001D02*
G01*
X160755547Y-95647474D01*
X162834542Y-95647474D01*
X162834542Y-94498556D01*
X157336147Y-94498556D01*
X157336147Y-95647474D01*
X159415143Y-95647474D01*
X159415143Y-101310001D01*
X160755547Y-101310001D01*
G37*
G36*
X155368710Y-94460943D02*
G01*
X155880536Y-94519260D01*
X156358199Y-94603275D01*
X156358199Y-101310001D01*
X155017794Y-101310001D01*
X155017794Y-98765967D01*
X154187735Y-98765967D01*
X154124476Y-98761265D01*
X154051386Y-98756564D01*
X153800917Y-99079059D01*
X153524371Y-99483186D01*
X152972566Y-100372230D01*
X152440422Y-101310001D01*
X150940587Y-101310001D01*
X151335528Y-100534224D01*
X151784752Y-99768279D01*
X152248935Y-99071148D01*
X152678070Y-98501818D01*
X152276036Y-98308291D01*
X151953358Y-98076824D01*
X151698839Y-97807680D01*
X151512320Y-97491910D01*
X151394437Y-97105723D01*
X151352198Y-96631407D01*
X151352933Y-96622003D01*
X152747313Y-96622003D01*
X152770991Y-96892985D01*
X152836097Y-97106500D01*
X152937517Y-97274681D01*
X153078678Y-97411384D01*
X153266754Y-97522196D01*
X153512404Y-97605508D01*
X153922250Y-97673239D01*
X154481803Y-97699114D01*
X155017794Y-97699114D01*
X155017794Y-95604732D01*
X154725436Y-95580369D01*
X154345455Y-95565409D01*
X153874261Y-95591765D01*
X153492742Y-95664144D01*
X153162966Y-95801184D01*
X152937517Y-95994971D01*
X152835509Y-96159645D01*
X152770696Y-96365070D01*
X152747313Y-96622003D01*
X151352933Y-96622003D01*
X151387148Y-96184514D01*
X151486110Y-95804473D01*
X151643900Y-95479599D01*
X151860451Y-95200985D01*
X152140797Y-94963167D01*
X152540246Y-94741007D01*
X153040144Y-94569757D01*
X153661403Y-94457402D01*
X154428375Y-94416490D01*
X155368710Y-94460943D01*
G37*
G36*
X148066051Y-95474505D02*
G01*
X148503410Y-96479243D01*
X149370655Y-98676635D01*
X150331079Y-101310001D01*
X148939384Y-101310001D01*
X148679937Y-100530805D01*
X148400401Y-99750754D01*
X145607178Y-99750754D01*
X145337901Y-100530805D01*
X145068196Y-101310001D01*
X143637604Y-101310001D01*
X144367646Y-99289135D01*
X144600463Y-98683901D01*
X145940570Y-98683901D01*
X148076840Y-98683901D01*
X147763538Y-97805543D01*
X147464767Y-97030194D01*
X147209595Y-96382218D01*
X147018536Y-95876574D01*
X146812944Y-96382218D01*
X146553070Y-97030194D01*
X146254300Y-97805543D01*
X145940570Y-98683901D01*
X144600463Y-98683901D01*
X145039131Y-97543532D01*
X145685825Y-95978729D01*
X146352180Y-94512234D01*
X147616503Y-94512234D01*
X148066051Y-95474505D01*
G37*
G36*
X141736845Y-94488298D02*
G01*
X142267748Y-94546985D01*
X142748988Y-94630630D01*
X142748988Y-101310001D01*
X141408583Y-101310001D01*
X141408583Y-98957453D01*
X140827712Y-98957453D01*
X140159096Y-98929050D01*
X139594636Y-98849837D01*
X139120150Y-98727499D01*
X138675864Y-98536591D01*
X138324793Y-98291856D01*
X138052442Y-97993183D01*
X137856639Y-97639776D01*
X137732658Y-97210209D01*
X137688276Y-96686117D01*
X137689028Y-96676286D01*
X139083391Y-96676286D01*
X139108790Y-96969277D01*
X139177975Y-97195341D01*
X139284708Y-97369142D01*
X139433348Y-97510324D01*
X139629328Y-97624837D01*
X139883103Y-97711082D01*
X140302132Y-97781988D01*
X140849511Y-97808535D01*
X141408583Y-97808535D01*
X141408583Y-95631660D01*
X141094853Y-95607296D01*
X140702049Y-95592764D01*
X140245068Y-95617280D01*
X139863442Y-95685515D01*
X139528808Y-95817727D01*
X139289410Y-96012495D01*
X139179655Y-96180293D01*
X139109148Y-96396935D01*
X139083391Y-96676286D01*
X137689028Y-96676286D01*
X137723948Y-96219548D01*
X137824380Y-95827375D01*
X137983438Y-95496534D01*
X138200287Y-95216973D01*
X138479439Y-94982401D01*
X138879334Y-94763823D01*
X139380372Y-94595064D01*
X140003594Y-94484227D01*
X140773429Y-94443846D01*
X141736845Y-94488298D01*
G37*
G36*
X135585241Y-95474505D02*
G01*
X136022601Y-96479243D01*
X136889846Y-98676635D01*
X137850270Y-101310001D01*
X136458574Y-101310001D01*
X136199127Y-100530805D01*
X135919591Y-99750754D01*
X133126369Y-99750754D01*
X132857091Y-100530805D01*
X132587386Y-101310001D01*
X131156795Y-101310001D01*
X131886837Y-99289135D01*
X132119653Y-98683901D01*
X133459760Y-98683901D01*
X135596031Y-98683901D01*
X135282728Y-97805543D01*
X134983958Y-97030194D01*
X134728785Y-96382218D01*
X134537726Y-95876574D01*
X134332135Y-96382218D01*
X134072260Y-97030194D01*
X133773490Y-97805543D01*
X133459760Y-98683901D01*
X132119653Y-98683901D01*
X132558321Y-97543532D01*
X133205015Y-95978729D01*
X133871371Y-94512234D01*
X135135694Y-94512234D01*
X135585241Y-95474505D01*
G37*
G36*
X129230390Y-94482741D02*
G01*
X129770474Y-94537125D01*
X130268178Y-94619090D01*
X130268178Y-101210838D01*
X129772395Y-101300007D01*
X129250052Y-101353170D01*
X128309289Y-101387792D01*
X127533096Y-101342117D01*
X126855565Y-101212155D01*
X126262779Y-101005674D01*
X125846231Y-100786669D01*
X125486460Y-100522268D01*
X125177714Y-100211205D01*
X124916390Y-99849917D01*
X124716289Y-99457001D01*
X124567917Y-99008843D01*
X124474397Y-98496766D01*
X124441521Y-97910690D01*
X124441757Y-97906415D01*
X125836636Y-97906415D01*
X125877804Y-98445635D01*
X125993813Y-98899909D01*
X126177712Y-99284115D01*
X126428620Y-99609704D01*
X126741683Y-99867224D01*
X127134182Y-100059878D01*
X127623750Y-100184333D01*
X128233208Y-100229470D01*
X128668326Y-100229470D01*
X128927773Y-100209809D01*
X128927773Y-95622256D01*
X128619600Y-95592764D01*
X128193885Y-95592764D01*
X127581921Y-95636738D01*
X127095760Y-95757284D01*
X126711098Y-95942508D01*
X126408958Y-96188167D01*
X126169527Y-96500504D01*
X125991508Y-96880947D01*
X125877565Y-97343587D01*
X125836636Y-97906415D01*
X124441757Y-97906415D01*
X124475385Y-97297397D01*
X124570897Y-96771250D01*
X124720983Y-96319865D01*
X124921519Y-95932567D01*
X125184950Y-95575860D01*
X125493666Y-95271366D01*
X125851091Y-95015314D01*
X126262779Y-94806302D01*
X126847967Y-94610257D01*
X127512964Y-94487055D01*
X128270394Y-94443846D01*
X129230390Y-94482741D01*
G37*
M02*
