%TF.GenerationSoftware,KiCad,Pcbnew,10.0.5-10.0.5~ubuntu26.04.1*%
%TF.CreationDate,2026-08-21T16:43:14+01:00*%
%TF.ProjectId,astrapad,61737472-6170-4616-942e-6b696361645f,rev?*%
%TF.SameCoordinates,Original*%
%TF.FileFunction,Legend,Top*%
%TF.FilePolarity,Positive*%
%FSLAX46Y46*%
G04 Gerber Fmt 4.6, Leading zero omitted, Abs format (unit mm)*
G04 Created by KiCad (PCBNEW 10.0.5-10.0.5~ubuntu26.04.1) date 2026-08-21 16:43:14*
%MOMM*%
%LPD*%
G01*
G04 APERTURE LIST*
%ADD10C,0.100000*%
%ADD11C,0.750000*%
%ADD12C,0.150000*%
%ADD13C,0.101600*%
%ADD14C,0.120000*%
%ADD15C,0.127000*%
%ADD16C,0.254000*%
%ADD17C,0.025400*%
G04 APERTURE END LIST*
D10*
X172922931Y-124896228D02*
X172875312Y-124848609D01*
X172875312Y-124848609D02*
X172780074Y-124800990D01*
X172780074Y-124800990D02*
X172684836Y-124800990D01*
X172684836Y-124800990D02*
X172589598Y-124848609D01*
X172589598Y-124848609D02*
X172541979Y-124896228D01*
X172541979Y-124896228D02*
X172494360Y-124991466D01*
X172494360Y-124991466D02*
X172494360Y-125086704D01*
X172494360Y-125086704D02*
X172541979Y-125181942D01*
X172541979Y-125181942D02*
X172589598Y-125229561D01*
X172589598Y-125229561D02*
X172684836Y-125277180D01*
X172684836Y-125277180D02*
X172780074Y-125277180D01*
X172780074Y-125277180D02*
X172875312Y-125229561D01*
X172875312Y-125229561D02*
X172922931Y-125181942D01*
X172922931Y-124800990D02*
X172922931Y-125181942D01*
X172922931Y-125181942D02*
X172970550Y-125229561D01*
X172970550Y-125229561D02*
X173018169Y-125229561D01*
X173018169Y-125229561D02*
X173113408Y-125181942D01*
X173113408Y-125181942D02*
X173161027Y-125086704D01*
X173161027Y-125086704D02*
X173161027Y-124848609D01*
X173161027Y-124848609D02*
X173065789Y-124705752D01*
X173065789Y-124705752D02*
X172922931Y-124610514D01*
X172922931Y-124610514D02*
X172732455Y-124562895D01*
X172732455Y-124562895D02*
X172541979Y-124610514D01*
X172541979Y-124610514D02*
X172399122Y-124705752D01*
X172399122Y-124705752D02*
X172303884Y-124848609D01*
X172303884Y-124848609D02*
X172256265Y-125039085D01*
X172256265Y-125039085D02*
X172303884Y-125229561D01*
X172303884Y-125229561D02*
X172399122Y-125372419D01*
X172399122Y-125372419D02*
X172541979Y-125467657D01*
X172541979Y-125467657D02*
X172732455Y-125515276D01*
X172732455Y-125515276D02*
X172922931Y-125467657D01*
X172922931Y-125467657D02*
X173065789Y-125372419D01*
X173589598Y-124705752D02*
X173589598Y-125705752D01*
X173589598Y-124753371D02*
X173684836Y-124705752D01*
X173684836Y-124705752D02*
X173875312Y-124705752D01*
X173875312Y-124705752D02*
X173970550Y-124753371D01*
X173970550Y-124753371D02*
X174018169Y-124800990D01*
X174018169Y-124800990D02*
X174065788Y-124896228D01*
X174065788Y-124896228D02*
X174065788Y-125181942D01*
X174065788Y-125181942D02*
X174018169Y-125277180D01*
X174018169Y-125277180D02*
X173970550Y-125324800D01*
X173970550Y-125324800D02*
X173875312Y-125372419D01*
X173875312Y-125372419D02*
X173684836Y-125372419D01*
X173684836Y-125372419D02*
X173589598Y-125324800D01*
X174494360Y-125372419D02*
X174494360Y-124372419D01*
X174922931Y-125372419D02*
X174922931Y-124848609D01*
X174922931Y-124848609D02*
X174875312Y-124753371D01*
X174875312Y-124753371D02*
X174780074Y-124705752D01*
X174780074Y-124705752D02*
X174637217Y-124705752D01*
X174637217Y-124705752D02*
X174541979Y-124753371D01*
X174541979Y-124753371D02*
X174494360Y-124800990D01*
X175827693Y-125372419D02*
X175827693Y-124848609D01*
X175827693Y-124848609D02*
X175780074Y-124753371D01*
X175780074Y-124753371D02*
X175684836Y-124705752D01*
X175684836Y-124705752D02*
X175494360Y-124705752D01*
X175494360Y-124705752D02*
X175399122Y-124753371D01*
X175827693Y-125324800D02*
X175732455Y-125372419D01*
X175732455Y-125372419D02*
X175494360Y-125372419D01*
X175494360Y-125372419D02*
X175399122Y-125324800D01*
X175399122Y-125324800D02*
X175351503Y-125229561D01*
X175351503Y-125229561D02*
X175351503Y-125134323D01*
X175351503Y-125134323D02*
X175399122Y-125039085D01*
X175399122Y-125039085D02*
X175494360Y-124991466D01*
X175494360Y-124991466D02*
X175732455Y-124991466D01*
X175732455Y-124991466D02*
X175827693Y-124943847D01*
X176303884Y-124705752D02*
X176303884Y-125372419D01*
X176303884Y-124800990D02*
X176351503Y-124753371D01*
X176351503Y-124753371D02*
X176446741Y-124705752D01*
X176446741Y-124705752D02*
X176589598Y-124705752D01*
X176589598Y-124705752D02*
X176684836Y-124753371D01*
X176684836Y-124753371D02*
X176732455Y-124848609D01*
X176732455Y-124848609D02*
X176732455Y-125372419D01*
X177065789Y-124705752D02*
X177446741Y-124705752D01*
X177208646Y-124372419D02*
X177208646Y-125229561D01*
X177208646Y-125229561D02*
X177256265Y-125324800D01*
X177256265Y-125324800D02*
X177351503Y-125372419D01*
X177351503Y-125372419D02*
X177446741Y-125372419D01*
X177922932Y-125372419D02*
X177827694Y-125324800D01*
X177827694Y-125324800D02*
X177780075Y-125277180D01*
X177780075Y-125277180D02*
X177732456Y-125181942D01*
X177732456Y-125181942D02*
X177732456Y-124896228D01*
X177732456Y-124896228D02*
X177780075Y-124800990D01*
X177780075Y-124800990D02*
X177827694Y-124753371D01*
X177827694Y-124753371D02*
X177922932Y-124705752D01*
X177922932Y-124705752D02*
X178065789Y-124705752D01*
X178065789Y-124705752D02*
X178161027Y-124753371D01*
X178161027Y-124753371D02*
X178208646Y-124800990D01*
X178208646Y-124800990D02*
X178256265Y-124896228D01*
X178256265Y-124896228D02*
X178256265Y-125181942D01*
X178256265Y-125181942D02*
X178208646Y-125277180D01*
X178208646Y-125277180D02*
X178161027Y-125324800D01*
X178161027Y-125324800D02*
X178065789Y-125372419D01*
X178065789Y-125372419D02*
X177922932Y-125372419D01*
X178684837Y-125372419D02*
X178684837Y-124705752D01*
X178684837Y-124800990D02*
X178732456Y-124753371D01*
X178732456Y-124753371D02*
X178827694Y-124705752D01*
X178827694Y-124705752D02*
X178970551Y-124705752D01*
X178970551Y-124705752D02*
X179065789Y-124753371D01*
X179065789Y-124753371D02*
X179113408Y-124848609D01*
X179113408Y-124848609D02*
X179113408Y-125372419D01*
X179113408Y-124848609D02*
X179161027Y-124753371D01*
X179161027Y-124753371D02*
X179256265Y-124705752D01*
X179256265Y-124705752D02*
X179399122Y-124705752D01*
X179399122Y-124705752D02*
X179494361Y-124753371D01*
X179494361Y-124753371D02*
X179541980Y-124848609D01*
X179541980Y-124848609D02*
X179541980Y-125372419D01*
X180018170Y-124991466D02*
X180780075Y-124991466D01*
X181684836Y-125372419D02*
X181684836Y-124848609D01*
X181684836Y-124848609D02*
X181637217Y-124753371D01*
X181637217Y-124753371D02*
X181541979Y-124705752D01*
X181541979Y-124705752D02*
X181351503Y-124705752D01*
X181351503Y-124705752D02*
X181256265Y-124753371D01*
X181684836Y-125324800D02*
X181589598Y-125372419D01*
X181589598Y-125372419D02*
X181351503Y-125372419D01*
X181351503Y-125372419D02*
X181256265Y-125324800D01*
X181256265Y-125324800D02*
X181208646Y-125229561D01*
X181208646Y-125229561D02*
X181208646Y-125134323D01*
X181208646Y-125134323D02*
X181256265Y-125039085D01*
X181256265Y-125039085D02*
X181351503Y-124991466D01*
X181351503Y-124991466D02*
X181589598Y-124991466D01*
X181589598Y-124991466D02*
X181684836Y-124943847D01*
X182113408Y-125324800D02*
X182208646Y-125372419D01*
X182208646Y-125372419D02*
X182399122Y-125372419D01*
X182399122Y-125372419D02*
X182494360Y-125324800D01*
X182494360Y-125324800D02*
X182541979Y-125229561D01*
X182541979Y-125229561D02*
X182541979Y-125181942D01*
X182541979Y-125181942D02*
X182494360Y-125086704D01*
X182494360Y-125086704D02*
X182399122Y-125039085D01*
X182399122Y-125039085D02*
X182256265Y-125039085D01*
X182256265Y-125039085D02*
X182161027Y-124991466D01*
X182161027Y-124991466D02*
X182113408Y-124896228D01*
X182113408Y-124896228D02*
X182113408Y-124848609D01*
X182113408Y-124848609D02*
X182161027Y-124753371D01*
X182161027Y-124753371D02*
X182256265Y-124705752D01*
X182256265Y-124705752D02*
X182399122Y-124705752D01*
X182399122Y-124705752D02*
X182494360Y-124753371D01*
X183399122Y-125324800D02*
X183303884Y-125372419D01*
X183303884Y-125372419D02*
X183113408Y-125372419D01*
X183113408Y-125372419D02*
X183018170Y-125324800D01*
X183018170Y-125324800D02*
X182970551Y-125277180D01*
X182970551Y-125277180D02*
X182922932Y-125181942D01*
X182922932Y-125181942D02*
X182922932Y-124896228D01*
X182922932Y-124896228D02*
X182970551Y-124800990D01*
X182970551Y-124800990D02*
X183018170Y-124753371D01*
X183018170Y-124753371D02*
X183113408Y-124705752D01*
X183113408Y-124705752D02*
X183303884Y-124705752D01*
X183303884Y-124705752D02*
X183399122Y-124753371D01*
X183827694Y-125372419D02*
X183827694Y-124705752D01*
X183827694Y-124372419D02*
X183780075Y-124420038D01*
X183780075Y-124420038D02*
X183827694Y-124467657D01*
X183827694Y-124467657D02*
X183875313Y-124420038D01*
X183875313Y-124420038D02*
X183827694Y-124372419D01*
X183827694Y-124372419D02*
X183827694Y-124467657D01*
X184303884Y-125372419D02*
X184303884Y-124705752D01*
X184303884Y-124372419D02*
X184256265Y-124420038D01*
X184256265Y-124420038D02*
X184303884Y-124467657D01*
X184303884Y-124467657D02*
X184351503Y-124420038D01*
X184351503Y-124420038D02*
X184303884Y-124372419D01*
X184303884Y-124372419D02*
X184303884Y-124467657D01*
D11*
G36*
X126532772Y-75205169D02*
G01*
X126809926Y-75875799D01*
X127097705Y-76623914D01*
X127410580Y-77490000D01*
X126797470Y-77490000D01*
X126681882Y-77156058D01*
X126566477Y-76821751D01*
X125369382Y-76821751D01*
X125249581Y-77156058D01*
X125138389Y-77490000D01*
X124541948Y-77490000D01*
X124952422Y-76364528D01*
X125508051Y-76364528D01*
X126423595Y-76364528D01*
X126289139Y-75988089D01*
X126161095Y-75655797D01*
X126049720Y-75378093D01*
X125961610Y-75161388D01*
X125879727Y-75378093D01*
X125770368Y-75655797D01*
X125642323Y-75988089D01*
X125508051Y-76364528D01*
X124952422Y-76364528D01*
X124953558Y-76361414D01*
X125325235Y-75419675D01*
X125512675Y-74989073D01*
X125705338Y-74576671D01*
X126247191Y-74576671D01*
X126532772Y-75205169D01*
G37*
G36*
X128631123Y-77548618D02*
G01*
X128380842Y-77538621D01*
X128180858Y-77511448D01*
X128022958Y-77470765D01*
X127806257Y-77390697D01*
X127679858Y-77329715D01*
X127847470Y-76871577D01*
X127975823Y-76933246D01*
X128158147Y-76997423D01*
X128362425Y-77040271D01*
X128628192Y-77056224D01*
X128823760Y-77042974D01*
X128955001Y-77009325D01*
X129039619Y-76961885D01*
X129104837Y-76891819D01*
X129143697Y-76808550D01*
X129157222Y-76707812D01*
X129139195Y-76590834D01*
X129087979Y-76500083D01*
X129006287Y-76425298D01*
X128880251Y-76350973D01*
X128731995Y-76286000D01*
X128532021Y-76212304D01*
X128334271Y-76130666D01*
X128147889Y-76038281D01*
X127981653Y-75923422D01*
X127852049Y-75779994D01*
X127791362Y-75668238D01*
X127752620Y-75530405D01*
X127738660Y-75360141D01*
X127753716Y-75187745D01*
X127796875Y-75038029D01*
X127866887Y-74906765D01*
X127962486Y-74792086D01*
X128082022Y-74695085D01*
X128228855Y-74615139D01*
X128387773Y-74559632D01*
X128570889Y-74524560D01*
X128782248Y-74512191D01*
X129054482Y-74528995D01*
X129276474Y-74575389D01*
X129477735Y-74644927D01*
X129623604Y-74714241D01*
X129449764Y-75168166D01*
X129321972Y-75107009D01*
X129171693Y-75052944D01*
X129008799Y-75017427D01*
X128809359Y-75004584D01*
X128646923Y-75014746D01*
X128528827Y-75041413D01*
X128444827Y-75080239D01*
X128379039Y-75139229D01*
X128339152Y-75216894D01*
X128324842Y-75319474D01*
X128343360Y-75428050D01*
X128396650Y-75512548D01*
X128477853Y-75581154D01*
X128590640Y-75644806D01*
X128864863Y-75756181D01*
X129142196Y-75867694D01*
X129352128Y-75974351D01*
X129475203Y-76058242D01*
X129574136Y-76152534D01*
X129651631Y-76257733D01*
X129706469Y-76375602D01*
X129742135Y-76523689D01*
X129755129Y-76709094D01*
X129740268Y-76881598D01*
X129697698Y-77031322D01*
X129628733Y-77162470D01*
X129533592Y-77275695D01*
X129409694Y-77371472D01*
X129252110Y-77450066D01*
X129082289Y-77502407D01*
X128877371Y-77536380D01*
X128631123Y-77548618D01*
G37*
G36*
X130819050Y-77490000D02*
G01*
X130819050Y-75063203D01*
X129928053Y-75063203D01*
X129928053Y-74570809D01*
X132284508Y-74570809D01*
X132284508Y-75063203D01*
X131393510Y-75063203D01*
X131393510Y-77490000D01*
X130819050Y-77490000D01*
G37*
G36*
X133859398Y-74553172D02*
G01*
X134125652Y-74601324D01*
X134339894Y-74674716D01*
X134511086Y-74769928D01*
X134631234Y-74871850D01*
X134724042Y-74991256D01*
X134791667Y-75130488D01*
X134834079Y-75293362D01*
X134849057Y-75484888D01*
X134830955Y-75688166D01*
X134780434Y-75853675D01*
X134700497Y-75989005D01*
X134591417Y-76104352D01*
X134453127Y-76203553D01*
X134280826Y-76286493D01*
X134464741Y-76530491D01*
X134663677Y-76829262D01*
X134856202Y-77157524D01*
X135025462Y-77490000D01*
X134382676Y-77490000D01*
X134154614Y-77088098D01*
X133918126Y-76707079D01*
X133799606Y-76533882D01*
X133692262Y-76395669D01*
X133660938Y-76397684D01*
X133633827Y-76399699D01*
X133278087Y-76399699D01*
X133278087Y-77490000D01*
X132703628Y-77490000D01*
X132703628Y-75044884D01*
X133278087Y-75044884D01*
X133278087Y-75942477D01*
X133507798Y-75942477D01*
X133747607Y-75931387D01*
X133923255Y-75902360D01*
X134028533Y-75866655D01*
X134109137Y-75819164D01*
X134169635Y-75760577D01*
X134213100Y-75688499D01*
X134241003Y-75596993D01*
X134251151Y-75480858D01*
X134241129Y-75370743D01*
X134213352Y-75282704D01*
X134169635Y-75212130D01*
X134073014Y-75129078D01*
X133931681Y-75070347D01*
X133768173Y-75039327D01*
X133566233Y-75028032D01*
X133403384Y-75034443D01*
X133278087Y-75044884D01*
X132703628Y-75044884D01*
X132703628Y-74615689D01*
X132908341Y-74579682D01*
X133127695Y-74554689D01*
X133530696Y-74535638D01*
X133859398Y-74553172D01*
G37*
G36*
X137277503Y-75205169D02*
G01*
X137554658Y-75875799D01*
X137842437Y-76623914D01*
X138155312Y-77490000D01*
X137542201Y-77490000D01*
X137426613Y-77156058D01*
X137311209Y-76821751D01*
X136114113Y-76821751D01*
X135994312Y-77156058D01*
X135883121Y-77490000D01*
X135286680Y-77490000D01*
X135697154Y-76364528D01*
X136252782Y-76364528D01*
X137168326Y-76364528D01*
X137033871Y-75988089D01*
X136905826Y-75655797D01*
X136794452Y-75378093D01*
X136706341Y-75161388D01*
X136624459Y-75378093D01*
X136515099Y-75655797D01*
X136387055Y-75988089D01*
X136252782Y-76364528D01*
X135697154Y-76364528D01*
X135698290Y-76361414D01*
X136069966Y-75419675D01*
X136257406Y-74989073D01*
X136450069Y-74576671D01*
X136991922Y-74576671D01*
X137277503Y-75205169D01*
G37*
G36*
X139712745Y-74564668D02*
G01*
X139979840Y-74612169D01*
X140194570Y-74684495D01*
X140365954Y-74778171D01*
X140485591Y-74878702D01*
X140578526Y-74998514D01*
X140646694Y-75140303D01*
X140689736Y-75308377D01*
X140705024Y-75508335D01*
X140686003Y-75732946D01*
X140632868Y-75917046D01*
X140548953Y-76068506D01*
X140432231Y-76196509D01*
X140281772Y-76301396D01*
X140091364Y-76383213D01*
X139888012Y-76435644D01*
X139646101Y-76469592D01*
X139359551Y-76481765D01*
X139110607Y-76481765D01*
X139110607Y-77490000D01*
X138536147Y-77490000D01*
X138536147Y-75056425D01*
X139110607Y-75056425D01*
X139110607Y-75989371D01*
X139350209Y-75989371D01*
X139584800Y-75977994D01*
X139764384Y-75947606D01*
X139873144Y-75910644D01*
X139957136Y-75861567D01*
X140020839Y-75801060D01*
X140066581Y-75726574D01*
X140096232Y-75629689D01*
X140107117Y-75504122D01*
X140096079Y-75384400D01*
X140065862Y-75291553D01*
X140018824Y-75219640D01*
X139916224Y-75136168D01*
X139772810Y-75079506D01*
X139609256Y-75050262D01*
X139413407Y-75039755D01*
X139245062Y-75045983D01*
X139110607Y-75056425D01*
X138536147Y-75056425D01*
X138536147Y-74627412D01*
X138742393Y-74591564D01*
X138969923Y-74566413D01*
X139382815Y-74547362D01*
X139712745Y-74564668D01*
G37*
G36*
X142626421Y-75205169D02*
G01*
X142903576Y-75875799D01*
X143191355Y-76623914D01*
X143504230Y-77490000D01*
X142891120Y-77490000D01*
X142775532Y-77156058D01*
X142660127Y-76821751D01*
X141463032Y-76821751D01*
X141343230Y-77156058D01*
X141232039Y-77490000D01*
X140635598Y-77490000D01*
X141046072Y-76364528D01*
X141601700Y-76364528D01*
X142517245Y-76364528D01*
X142382789Y-75988089D01*
X142254745Y-75655797D01*
X142143370Y-75378093D01*
X142055259Y-75161388D01*
X141973377Y-75378093D01*
X141864017Y-75655797D01*
X141735973Y-75988089D01*
X141601700Y-76364528D01*
X141046072Y-76364528D01*
X141047208Y-76361414D01*
X141418885Y-75419675D01*
X141606324Y-74989073D01*
X141798988Y-74576671D01*
X142340840Y-74576671D01*
X142626421Y-75205169D01*
G37*
G36*
X145065872Y-74565880D02*
G01*
X145350871Y-74618681D01*
X145601666Y-74702700D01*
X145778103Y-74792277D01*
X145931285Y-74902013D01*
X146063592Y-75032511D01*
X146176491Y-75185385D01*
X146262435Y-75351370D01*
X146326758Y-75544821D01*
X146367691Y-75770312D01*
X146382205Y-76033152D01*
X146368115Y-76284327D01*
X146328035Y-76503789D01*
X146264447Y-76695857D01*
X146178689Y-76864249D01*
X146066693Y-77019087D01*
X145934374Y-77152400D01*
X145780186Y-77265715D01*
X145601666Y-77359574D01*
X145347614Y-77448066D01*
X145057244Y-77503764D01*
X144724590Y-77523339D01*
X144321406Y-77508501D01*
X144097544Y-77485717D01*
X143885066Y-77447501D01*
X143885066Y-75052395D01*
X144459525Y-75052395D01*
X144459525Y-77018489D01*
X144570717Y-77026915D01*
X144757196Y-77026915D01*
X145018392Y-77007571D01*
X145228207Y-76954233D01*
X145396421Y-76871667D01*
X145530591Y-76761301D01*
X145638123Y-76621763D01*
X145716937Y-76457103D01*
X145766655Y-76262414D01*
X145784298Y-76031320D01*
X145766757Y-75790108D01*
X145717925Y-75591834D01*
X145641630Y-75428787D01*
X145539017Y-75294928D01*
X145409529Y-75189645D01*
X145244674Y-75110264D01*
X145036319Y-75058601D01*
X144774049Y-75039755D01*
X144591599Y-75039755D01*
X144459525Y-75052395D01*
X143885066Y-75052395D01*
X143885066Y-74622466D01*
X144098368Y-74587339D01*
X144329832Y-74564031D01*
X144741259Y-74547362D01*
X145065872Y-74565880D01*
G37*
D12*
X140166667Y-106033200D02*
X140309524Y-106080819D01*
X140309524Y-106080819D02*
X140547619Y-106080819D01*
X140547619Y-106080819D02*
X140642857Y-106033200D01*
X140642857Y-106033200D02*
X140690476Y-105985580D01*
X140690476Y-105985580D02*
X140738095Y-105890342D01*
X140738095Y-105890342D02*
X140738095Y-105795104D01*
X140738095Y-105795104D02*
X140690476Y-105699866D01*
X140690476Y-105699866D02*
X140642857Y-105652247D01*
X140642857Y-105652247D02*
X140547619Y-105604628D01*
X140547619Y-105604628D02*
X140357143Y-105557009D01*
X140357143Y-105557009D02*
X140261905Y-105509390D01*
X140261905Y-105509390D02*
X140214286Y-105461771D01*
X140214286Y-105461771D02*
X140166667Y-105366533D01*
X140166667Y-105366533D02*
X140166667Y-105271295D01*
X140166667Y-105271295D02*
X140214286Y-105176057D01*
X140214286Y-105176057D02*
X140261905Y-105128438D01*
X140261905Y-105128438D02*
X140357143Y-105080819D01*
X140357143Y-105080819D02*
X140595238Y-105080819D01*
X140595238Y-105080819D02*
X140738095Y-105128438D01*
X141071429Y-105080819D02*
X141309524Y-106080819D01*
X141309524Y-106080819D02*
X141500000Y-105366533D01*
X141500000Y-105366533D02*
X141690476Y-106080819D01*
X141690476Y-106080819D02*
X141928572Y-105080819D01*
X142214286Y-105080819D02*
X142833333Y-105080819D01*
X142833333Y-105080819D02*
X142500000Y-105461771D01*
X142500000Y-105461771D02*
X142642857Y-105461771D01*
X142642857Y-105461771D02*
X142738095Y-105509390D01*
X142738095Y-105509390D02*
X142785714Y-105557009D01*
X142785714Y-105557009D02*
X142833333Y-105652247D01*
X142833333Y-105652247D02*
X142833333Y-105890342D01*
X142833333Y-105890342D02*
X142785714Y-105985580D01*
X142785714Y-105985580D02*
X142738095Y-106033200D01*
X142738095Y-106033200D02*
X142642857Y-106080819D01*
X142642857Y-106080819D02*
X142357143Y-106080819D01*
X142357143Y-106080819D02*
X142261905Y-106033200D01*
X142261905Y-106033200D02*
X142214286Y-105985580D01*
X140166667Y-81033200D02*
X140309524Y-81080819D01*
X140309524Y-81080819D02*
X140547619Y-81080819D01*
X140547619Y-81080819D02*
X140642857Y-81033200D01*
X140642857Y-81033200D02*
X140690476Y-80985580D01*
X140690476Y-80985580D02*
X140738095Y-80890342D01*
X140738095Y-80890342D02*
X140738095Y-80795104D01*
X140738095Y-80795104D02*
X140690476Y-80699866D01*
X140690476Y-80699866D02*
X140642857Y-80652247D01*
X140642857Y-80652247D02*
X140547619Y-80604628D01*
X140547619Y-80604628D02*
X140357143Y-80557009D01*
X140357143Y-80557009D02*
X140261905Y-80509390D01*
X140261905Y-80509390D02*
X140214286Y-80461771D01*
X140214286Y-80461771D02*
X140166667Y-80366533D01*
X140166667Y-80366533D02*
X140166667Y-80271295D01*
X140166667Y-80271295D02*
X140214286Y-80176057D01*
X140214286Y-80176057D02*
X140261905Y-80128438D01*
X140261905Y-80128438D02*
X140357143Y-80080819D01*
X140357143Y-80080819D02*
X140595238Y-80080819D01*
X140595238Y-80080819D02*
X140738095Y-80128438D01*
X141071429Y-80080819D02*
X141309524Y-81080819D01*
X141309524Y-81080819D02*
X141500000Y-80366533D01*
X141500000Y-80366533D02*
X141690476Y-81080819D01*
X141690476Y-81080819D02*
X141928572Y-80080819D01*
X142833333Y-81080819D02*
X142261905Y-81080819D01*
X142547619Y-81080819D02*
X142547619Y-80080819D01*
X142547619Y-80080819D02*
X142452381Y-80223676D01*
X142452381Y-80223676D02*
X142357143Y-80318914D01*
X142357143Y-80318914D02*
X142261905Y-80366533D01*
X187666666Y-118804819D02*
X187333333Y-118328628D01*
X187095238Y-118804819D02*
X187095238Y-117804819D01*
X187095238Y-117804819D02*
X187476190Y-117804819D01*
X187476190Y-117804819D02*
X187571428Y-117852438D01*
X187571428Y-117852438D02*
X187619047Y-117900057D01*
X187619047Y-117900057D02*
X187666666Y-117995295D01*
X187666666Y-117995295D02*
X187666666Y-118138152D01*
X187666666Y-118138152D02*
X187619047Y-118233390D01*
X187619047Y-118233390D02*
X187571428Y-118281009D01*
X187571428Y-118281009D02*
X187476190Y-118328628D01*
X187476190Y-118328628D02*
X187095238Y-118328628D01*
X188095238Y-118281009D02*
X188428571Y-118281009D01*
X188571428Y-118804819D02*
X188095238Y-118804819D01*
X188095238Y-118804819D02*
X188095238Y-117804819D01*
X188095238Y-117804819D02*
X188571428Y-117804819D01*
X189333333Y-118281009D02*
X189000000Y-118281009D01*
X189000000Y-118804819D02*
X189000000Y-117804819D01*
X189000000Y-117804819D02*
X189476190Y-117804819D01*
X190000000Y-117804819D02*
X190000000Y-118042914D01*
X189761905Y-117947676D02*
X190000000Y-118042914D01*
X190000000Y-118042914D02*
X190238095Y-117947676D01*
X189857143Y-118233390D02*
X190000000Y-118042914D01*
X190000000Y-118042914D02*
X190142857Y-118233390D01*
X190761905Y-117804819D02*
X190761905Y-118042914D01*
X190523810Y-117947676D02*
X190761905Y-118042914D01*
X190761905Y-118042914D02*
X191000000Y-117947676D01*
X190619048Y-118233390D02*
X190761905Y-118042914D01*
X190761905Y-118042914D02*
X190904762Y-118233390D01*
X108454819Y-80428571D02*
X108454819Y-80238095D01*
X108454819Y-80238095D02*
X108502438Y-80142857D01*
X108502438Y-80142857D02*
X108597676Y-80047619D01*
X108597676Y-80047619D02*
X108788152Y-80000000D01*
X108788152Y-80000000D02*
X109121485Y-80000000D01*
X109121485Y-80000000D02*
X109311961Y-80047619D01*
X109311961Y-80047619D02*
X109407200Y-80142857D01*
X109407200Y-80142857D02*
X109454819Y-80238095D01*
X109454819Y-80238095D02*
X109454819Y-80428571D01*
X109454819Y-80428571D02*
X109407200Y-80523809D01*
X109407200Y-80523809D02*
X109311961Y-80619047D01*
X109311961Y-80619047D02*
X109121485Y-80666666D01*
X109121485Y-80666666D02*
X108788152Y-80666666D01*
X108788152Y-80666666D02*
X108597676Y-80619047D01*
X108597676Y-80619047D02*
X108502438Y-80523809D01*
X108502438Y-80523809D02*
X108454819Y-80428571D01*
X109454819Y-79095238D02*
X109454819Y-79571428D01*
X109454819Y-79571428D02*
X108454819Y-79571428D01*
X108931009Y-78761904D02*
X108931009Y-78428571D01*
X109454819Y-78285714D02*
X109454819Y-78761904D01*
X109454819Y-78761904D02*
X108454819Y-78761904D01*
X108454819Y-78761904D02*
X108454819Y-78285714D01*
X109454819Y-77857142D02*
X108454819Y-77857142D01*
X108454819Y-77857142D02*
X108454819Y-77619047D01*
X108454819Y-77619047D02*
X108502438Y-77476190D01*
X108502438Y-77476190D02*
X108597676Y-77380952D01*
X108597676Y-77380952D02*
X108692914Y-77333333D01*
X108692914Y-77333333D02*
X108883390Y-77285714D01*
X108883390Y-77285714D02*
X109026247Y-77285714D01*
X109026247Y-77285714D02*
X109216723Y-77333333D01*
X109216723Y-77333333D02*
X109311961Y-77380952D01*
X109311961Y-77380952D02*
X109407200Y-77476190D01*
X109407200Y-77476190D02*
X109454819Y-77619047D01*
X109454819Y-77619047D02*
X109454819Y-77857142D01*
X109454819Y-76333333D02*
X109454819Y-76904761D01*
X109454819Y-76619047D02*
X108454819Y-76619047D01*
X108454819Y-76619047D02*
X108597676Y-76714285D01*
X108597676Y-76714285D02*
X108692914Y-76809523D01*
X108692914Y-76809523D02*
X108740533Y-76904761D01*
X178978571Y-104254819D02*
X178645238Y-103778628D01*
X178407143Y-104254819D02*
X178407143Y-103254819D01*
X178407143Y-103254819D02*
X178788095Y-103254819D01*
X178788095Y-103254819D02*
X178883333Y-103302438D01*
X178883333Y-103302438D02*
X178930952Y-103350057D01*
X178930952Y-103350057D02*
X178978571Y-103445295D01*
X178978571Y-103445295D02*
X178978571Y-103588152D01*
X178978571Y-103588152D02*
X178930952Y-103683390D01*
X178930952Y-103683390D02*
X178883333Y-103731009D01*
X178883333Y-103731009D02*
X178788095Y-103778628D01*
X178788095Y-103778628D02*
X178407143Y-103778628D01*
X179597619Y-103254819D02*
X179788095Y-103254819D01*
X179788095Y-103254819D02*
X179883333Y-103302438D01*
X179883333Y-103302438D02*
X179978571Y-103397676D01*
X179978571Y-103397676D02*
X180026190Y-103588152D01*
X180026190Y-103588152D02*
X180026190Y-103921485D01*
X180026190Y-103921485D02*
X179978571Y-104111961D01*
X179978571Y-104111961D02*
X179883333Y-104207200D01*
X179883333Y-104207200D02*
X179788095Y-104254819D01*
X179788095Y-104254819D02*
X179597619Y-104254819D01*
X179597619Y-104254819D02*
X179502381Y-104207200D01*
X179502381Y-104207200D02*
X179407143Y-104111961D01*
X179407143Y-104111961D02*
X179359524Y-103921485D01*
X179359524Y-103921485D02*
X179359524Y-103588152D01*
X179359524Y-103588152D02*
X179407143Y-103397676D01*
X179407143Y-103397676D02*
X179502381Y-103302438D01*
X179502381Y-103302438D02*
X179597619Y-103254819D01*
X180311905Y-103254819D02*
X180883333Y-103254819D01*
X180597619Y-104254819D02*
X180597619Y-103254819D01*
X181169048Y-103350057D02*
X181216667Y-103302438D01*
X181216667Y-103302438D02*
X181311905Y-103254819D01*
X181311905Y-103254819D02*
X181550000Y-103254819D01*
X181550000Y-103254819D02*
X181645238Y-103302438D01*
X181645238Y-103302438D02*
X181692857Y-103350057D01*
X181692857Y-103350057D02*
X181740476Y-103445295D01*
X181740476Y-103445295D02*
X181740476Y-103540533D01*
X181740476Y-103540533D02*
X181692857Y-103683390D01*
X181692857Y-103683390D02*
X181121429Y-104254819D01*
X181121429Y-104254819D02*
X181740476Y-104254819D01*
X119166666Y-120304819D02*
X118833333Y-119828628D01*
X118595238Y-120304819D02*
X118595238Y-119304819D01*
X118595238Y-119304819D02*
X118976190Y-119304819D01*
X118976190Y-119304819D02*
X119071428Y-119352438D01*
X119071428Y-119352438D02*
X119119047Y-119400057D01*
X119119047Y-119400057D02*
X119166666Y-119495295D01*
X119166666Y-119495295D02*
X119166666Y-119638152D01*
X119166666Y-119638152D02*
X119119047Y-119733390D01*
X119119047Y-119733390D02*
X119071428Y-119781009D01*
X119071428Y-119781009D02*
X118976190Y-119828628D01*
X118976190Y-119828628D02*
X118595238Y-119828628D01*
X119595238Y-119781009D02*
X119928571Y-119781009D01*
X120071428Y-120304819D02*
X119595238Y-120304819D01*
X119595238Y-120304819D02*
X119595238Y-119304819D01*
X119595238Y-119304819D02*
X120071428Y-119304819D01*
X120833333Y-119781009D02*
X120500000Y-119781009D01*
X120500000Y-120304819D02*
X120500000Y-119304819D01*
X120500000Y-119304819D02*
X120976190Y-119304819D01*
X121500000Y-119304819D02*
X121500000Y-119542914D01*
X121261905Y-119447676D02*
X121500000Y-119542914D01*
X121500000Y-119542914D02*
X121738095Y-119447676D01*
X121357143Y-119733390D02*
X121500000Y-119542914D01*
X121500000Y-119542914D02*
X121642857Y-119733390D01*
X122261905Y-119304819D02*
X122261905Y-119542914D01*
X122023810Y-119447676D02*
X122261905Y-119542914D01*
X122261905Y-119542914D02*
X122500000Y-119447676D01*
X122119048Y-119733390D02*
X122261905Y-119542914D01*
X122261905Y-119542914D02*
X122404762Y-119733390D01*
X187666666Y-74804819D02*
X187333333Y-74328628D01*
X187095238Y-74804819D02*
X187095238Y-73804819D01*
X187095238Y-73804819D02*
X187476190Y-73804819D01*
X187476190Y-73804819D02*
X187571428Y-73852438D01*
X187571428Y-73852438D02*
X187619047Y-73900057D01*
X187619047Y-73900057D02*
X187666666Y-73995295D01*
X187666666Y-73995295D02*
X187666666Y-74138152D01*
X187666666Y-74138152D02*
X187619047Y-74233390D01*
X187619047Y-74233390D02*
X187571428Y-74281009D01*
X187571428Y-74281009D02*
X187476190Y-74328628D01*
X187476190Y-74328628D02*
X187095238Y-74328628D01*
X188095238Y-74281009D02*
X188428571Y-74281009D01*
X188571428Y-74804819D02*
X188095238Y-74804819D01*
X188095238Y-74804819D02*
X188095238Y-73804819D01*
X188095238Y-73804819D02*
X188571428Y-73804819D01*
X189333333Y-74281009D02*
X189000000Y-74281009D01*
X189000000Y-74804819D02*
X189000000Y-73804819D01*
X189000000Y-73804819D02*
X189476190Y-73804819D01*
X190000000Y-73804819D02*
X190000000Y-74042914D01*
X189761905Y-73947676D02*
X190000000Y-74042914D01*
X190000000Y-74042914D02*
X190238095Y-73947676D01*
X189857143Y-74233390D02*
X190000000Y-74042914D01*
X190000000Y-74042914D02*
X190142857Y-74233390D01*
X190761905Y-73804819D02*
X190761905Y-74042914D01*
X190523810Y-73947676D02*
X190761905Y-74042914D01*
X190761905Y-74042914D02*
X191000000Y-73947676D01*
X190619048Y-74233390D02*
X190761905Y-74042914D01*
X190761905Y-74042914D02*
X190904762Y-74233390D01*
D13*
X120269000Y-108787833D02*
X120988667Y-108787833D01*
X120988667Y-108787833D02*
X121073333Y-108745500D01*
X121073333Y-108745500D02*
X121115667Y-108703166D01*
X121115667Y-108703166D02*
X121158000Y-108618500D01*
X121158000Y-108618500D02*
X121158000Y-108449166D01*
X121158000Y-108449166D02*
X121115667Y-108364500D01*
X121115667Y-108364500D02*
X121073333Y-108322166D01*
X121073333Y-108322166D02*
X120988667Y-108279833D01*
X120988667Y-108279833D02*
X120269000Y-108279833D01*
X121158000Y-107390833D02*
X121158000Y-107898833D01*
X121158000Y-107644833D02*
X120269000Y-107644833D01*
X120269000Y-107644833D02*
X120396000Y-107729500D01*
X120396000Y-107729500D02*
X120480667Y-107814167D01*
X120480667Y-107814167D02*
X120523000Y-107898833D01*
D12*
X117119215Y-112872404D02*
X117166834Y-112729547D01*
X117166834Y-112729547D02*
X117166834Y-112491452D01*
X117166834Y-112491452D02*
X117119215Y-112396214D01*
X117119215Y-112396214D02*
X117071595Y-112348595D01*
X117071595Y-112348595D02*
X116976357Y-112300976D01*
X116976357Y-112300976D02*
X116881119Y-112300976D01*
X116881119Y-112300976D02*
X116785881Y-112348595D01*
X116785881Y-112348595D02*
X116738262Y-112396214D01*
X116738262Y-112396214D02*
X116690643Y-112491452D01*
X116690643Y-112491452D02*
X116643024Y-112681928D01*
X116643024Y-112681928D02*
X116595405Y-112777166D01*
X116595405Y-112777166D02*
X116547786Y-112824785D01*
X116547786Y-112824785D02*
X116452548Y-112872404D01*
X116452548Y-112872404D02*
X116357310Y-112872404D01*
X116357310Y-112872404D02*
X116262072Y-112824785D01*
X116262072Y-112824785D02*
X116214453Y-112777166D01*
X116214453Y-112777166D02*
X116166834Y-112681928D01*
X116166834Y-112681928D02*
X116166834Y-112443833D01*
X116166834Y-112443833D02*
X116214453Y-112300976D01*
X117119215Y-111491452D02*
X117166834Y-111586690D01*
X117166834Y-111586690D02*
X117166834Y-111777166D01*
X117166834Y-111777166D02*
X117119215Y-111872404D01*
X117119215Y-111872404D02*
X117023976Y-111920023D01*
X117023976Y-111920023D02*
X116643024Y-111920023D01*
X116643024Y-111920023D02*
X116547786Y-111872404D01*
X116547786Y-111872404D02*
X116500167Y-111777166D01*
X116500167Y-111777166D02*
X116500167Y-111586690D01*
X116500167Y-111586690D02*
X116547786Y-111491452D01*
X116547786Y-111491452D02*
X116643024Y-111443833D01*
X116643024Y-111443833D02*
X116738262Y-111443833D01*
X116738262Y-111443833D02*
X116833500Y-111920023D01*
X117119215Y-110634309D02*
X117166834Y-110729547D01*
X117166834Y-110729547D02*
X117166834Y-110920023D01*
X117166834Y-110920023D02*
X117119215Y-111015261D01*
X117119215Y-111015261D02*
X117023976Y-111062880D01*
X117023976Y-111062880D02*
X116643024Y-111062880D01*
X116643024Y-111062880D02*
X116547786Y-111015261D01*
X116547786Y-111015261D02*
X116500167Y-110920023D01*
X116500167Y-110920023D02*
X116500167Y-110729547D01*
X116500167Y-110729547D02*
X116547786Y-110634309D01*
X116547786Y-110634309D02*
X116643024Y-110586690D01*
X116643024Y-110586690D02*
X116738262Y-110586690D01*
X116738262Y-110586690D02*
X116833500Y-111062880D01*
X117119215Y-109777166D02*
X117166834Y-109872404D01*
X117166834Y-109872404D02*
X117166834Y-110062880D01*
X117166834Y-110062880D02*
X117119215Y-110158118D01*
X117119215Y-110158118D02*
X117023976Y-110205737D01*
X117023976Y-110205737D02*
X116643024Y-110205737D01*
X116643024Y-110205737D02*
X116547786Y-110158118D01*
X116547786Y-110158118D02*
X116500167Y-110062880D01*
X116500167Y-110062880D02*
X116500167Y-109872404D01*
X116500167Y-109872404D02*
X116547786Y-109777166D01*
X116547786Y-109777166D02*
X116643024Y-109729547D01*
X116643024Y-109729547D02*
X116738262Y-109729547D01*
X116738262Y-109729547D02*
X116833500Y-110205737D01*
X117166834Y-108872404D02*
X116166834Y-108872404D01*
X117119215Y-108872404D02*
X117166834Y-108967642D01*
X117166834Y-108967642D02*
X117166834Y-109158118D01*
X117166834Y-109158118D02*
X117119215Y-109253356D01*
X117119215Y-109253356D02*
X117071595Y-109300975D01*
X117071595Y-109300975D02*
X116976357Y-109348594D01*
X116976357Y-109348594D02*
X116690643Y-109348594D01*
X116690643Y-109348594D02*
X116595405Y-109300975D01*
X116595405Y-109300975D02*
X116547786Y-109253356D01*
X116547786Y-109253356D02*
X116500167Y-109158118D01*
X116500167Y-109158118D02*
X116500167Y-108967642D01*
X116500167Y-108967642D02*
X116547786Y-108872404D01*
X117119215Y-107681927D02*
X117166834Y-107539070D01*
X117166834Y-107539070D02*
X117166834Y-107300975D01*
X117166834Y-107300975D02*
X117119215Y-107205737D01*
X117119215Y-107205737D02*
X117071595Y-107158118D01*
X117071595Y-107158118D02*
X116976357Y-107110499D01*
X116976357Y-107110499D02*
X116881119Y-107110499D01*
X116881119Y-107110499D02*
X116785881Y-107158118D01*
X116785881Y-107158118D02*
X116738262Y-107205737D01*
X116738262Y-107205737D02*
X116690643Y-107300975D01*
X116690643Y-107300975D02*
X116643024Y-107491451D01*
X116643024Y-107491451D02*
X116595405Y-107586689D01*
X116595405Y-107586689D02*
X116547786Y-107634308D01*
X116547786Y-107634308D02*
X116452548Y-107681927D01*
X116452548Y-107681927D02*
X116357310Y-107681927D01*
X116357310Y-107681927D02*
X116262072Y-107634308D01*
X116262072Y-107634308D02*
X116214453Y-107586689D01*
X116214453Y-107586689D02*
X116166834Y-107491451D01*
X116166834Y-107491451D02*
X116166834Y-107253356D01*
X116166834Y-107253356D02*
X116214453Y-107110499D01*
X116500167Y-106824784D02*
X116500167Y-106443832D01*
X116166834Y-106681927D02*
X117023976Y-106681927D01*
X117023976Y-106681927D02*
X117119215Y-106634308D01*
X117119215Y-106634308D02*
X117166834Y-106539070D01*
X117166834Y-106539070D02*
X117166834Y-106443832D01*
X116500167Y-105681927D02*
X117166834Y-105681927D01*
X116500167Y-106110498D02*
X117023976Y-106110498D01*
X117023976Y-106110498D02*
X117119215Y-106062879D01*
X117119215Y-106062879D02*
X117166834Y-105967641D01*
X117166834Y-105967641D02*
X117166834Y-105824784D01*
X117166834Y-105824784D02*
X117119215Y-105729546D01*
X117119215Y-105729546D02*
X117071595Y-105681927D01*
X117166834Y-104777165D02*
X116166834Y-104777165D01*
X117119215Y-104777165D02*
X117166834Y-104872403D01*
X117166834Y-104872403D02*
X117166834Y-105062879D01*
X117166834Y-105062879D02*
X117119215Y-105158117D01*
X117119215Y-105158117D02*
X117071595Y-105205736D01*
X117071595Y-105205736D02*
X116976357Y-105253355D01*
X116976357Y-105253355D02*
X116690643Y-105253355D01*
X116690643Y-105253355D02*
X116595405Y-105205736D01*
X116595405Y-105205736D02*
X116547786Y-105158117D01*
X116547786Y-105158117D02*
X116500167Y-105062879D01*
X116500167Y-105062879D02*
X116500167Y-104872403D01*
X116500167Y-104872403D02*
X116547786Y-104777165D01*
X117166834Y-104300974D02*
X116500167Y-104300974D01*
X116166834Y-104300974D02*
X116214453Y-104348593D01*
X116214453Y-104348593D02*
X116262072Y-104300974D01*
X116262072Y-104300974D02*
X116214453Y-104253355D01*
X116214453Y-104253355D02*
X116166834Y-104300974D01*
X116166834Y-104300974D02*
X116262072Y-104300974D01*
X117166834Y-103681927D02*
X117119215Y-103777165D01*
X117119215Y-103777165D02*
X117071595Y-103824784D01*
X117071595Y-103824784D02*
X116976357Y-103872403D01*
X116976357Y-103872403D02*
X116690643Y-103872403D01*
X116690643Y-103872403D02*
X116595405Y-103824784D01*
X116595405Y-103824784D02*
X116547786Y-103777165D01*
X116547786Y-103777165D02*
X116500167Y-103681927D01*
X116500167Y-103681927D02*
X116500167Y-103539070D01*
X116500167Y-103539070D02*
X116547786Y-103443832D01*
X116547786Y-103443832D02*
X116595405Y-103396213D01*
X116595405Y-103396213D02*
X116690643Y-103348594D01*
X116690643Y-103348594D02*
X116976357Y-103348594D01*
X116976357Y-103348594D02*
X117071595Y-103396213D01*
X117071595Y-103396213D02*
X117119215Y-103443832D01*
X117119215Y-103443832D02*
X117166834Y-103539070D01*
X117166834Y-103539070D02*
X117166834Y-103681927D01*
X118166834Y-109634308D02*
X119166834Y-108967642D01*
X118166834Y-108967642D02*
X119166834Y-109634308D01*
X119166834Y-108586689D02*
X118166834Y-108586689D01*
X118881119Y-108158118D02*
X118881119Y-107681928D01*
X119166834Y-108253356D02*
X118166834Y-107920023D01*
X118166834Y-107920023D02*
X119166834Y-107586690D01*
X118166834Y-107062880D02*
X118166834Y-106872404D01*
X118166834Y-106872404D02*
X118214453Y-106777166D01*
X118214453Y-106777166D02*
X118309691Y-106681928D01*
X118309691Y-106681928D02*
X118500167Y-106634309D01*
X118500167Y-106634309D02*
X118833500Y-106634309D01*
X118833500Y-106634309D02*
X119023976Y-106681928D01*
X119023976Y-106681928D02*
X119119215Y-106777166D01*
X119119215Y-106777166D02*
X119166834Y-106872404D01*
X119166834Y-106872404D02*
X119166834Y-107062880D01*
X119166834Y-107062880D02*
X119119215Y-107158118D01*
X119119215Y-107158118D02*
X119023976Y-107253356D01*
X119023976Y-107253356D02*
X118833500Y-107300975D01*
X118833500Y-107300975D02*
X118500167Y-107300975D01*
X118500167Y-107300975D02*
X118309691Y-107253356D01*
X118309691Y-107253356D02*
X118214453Y-107158118D01*
X118214453Y-107158118D02*
X118166834Y-107062880D01*
X178978571Y-84254819D02*
X178645238Y-83778628D01*
X178407143Y-84254819D02*
X178407143Y-83254819D01*
X178407143Y-83254819D02*
X178788095Y-83254819D01*
X178788095Y-83254819D02*
X178883333Y-83302438D01*
X178883333Y-83302438D02*
X178930952Y-83350057D01*
X178930952Y-83350057D02*
X178978571Y-83445295D01*
X178978571Y-83445295D02*
X178978571Y-83588152D01*
X178978571Y-83588152D02*
X178930952Y-83683390D01*
X178930952Y-83683390D02*
X178883333Y-83731009D01*
X178883333Y-83731009D02*
X178788095Y-83778628D01*
X178788095Y-83778628D02*
X178407143Y-83778628D01*
X179597619Y-83254819D02*
X179788095Y-83254819D01*
X179788095Y-83254819D02*
X179883333Y-83302438D01*
X179883333Y-83302438D02*
X179978571Y-83397676D01*
X179978571Y-83397676D02*
X180026190Y-83588152D01*
X180026190Y-83588152D02*
X180026190Y-83921485D01*
X180026190Y-83921485D02*
X179978571Y-84111961D01*
X179978571Y-84111961D02*
X179883333Y-84207200D01*
X179883333Y-84207200D02*
X179788095Y-84254819D01*
X179788095Y-84254819D02*
X179597619Y-84254819D01*
X179597619Y-84254819D02*
X179502381Y-84207200D01*
X179502381Y-84207200D02*
X179407143Y-84111961D01*
X179407143Y-84111961D02*
X179359524Y-83921485D01*
X179359524Y-83921485D02*
X179359524Y-83588152D01*
X179359524Y-83588152D02*
X179407143Y-83397676D01*
X179407143Y-83397676D02*
X179502381Y-83302438D01*
X179502381Y-83302438D02*
X179597619Y-83254819D01*
X180311905Y-83254819D02*
X180883333Y-83254819D01*
X180597619Y-84254819D02*
X180597619Y-83254819D01*
X181740476Y-84254819D02*
X181169048Y-84254819D01*
X181454762Y-84254819D02*
X181454762Y-83254819D01*
X181454762Y-83254819D02*
X181359524Y-83397676D01*
X181359524Y-83397676D02*
X181264286Y-83492914D01*
X181264286Y-83492914D02*
X181169048Y-83540533D01*
X161166667Y-81033200D02*
X161309524Y-81080819D01*
X161309524Y-81080819D02*
X161547619Y-81080819D01*
X161547619Y-81080819D02*
X161642857Y-81033200D01*
X161642857Y-81033200D02*
X161690476Y-80985580D01*
X161690476Y-80985580D02*
X161738095Y-80890342D01*
X161738095Y-80890342D02*
X161738095Y-80795104D01*
X161738095Y-80795104D02*
X161690476Y-80699866D01*
X161690476Y-80699866D02*
X161642857Y-80652247D01*
X161642857Y-80652247D02*
X161547619Y-80604628D01*
X161547619Y-80604628D02*
X161357143Y-80557009D01*
X161357143Y-80557009D02*
X161261905Y-80509390D01*
X161261905Y-80509390D02*
X161214286Y-80461771D01*
X161214286Y-80461771D02*
X161166667Y-80366533D01*
X161166667Y-80366533D02*
X161166667Y-80271295D01*
X161166667Y-80271295D02*
X161214286Y-80176057D01*
X161214286Y-80176057D02*
X161261905Y-80128438D01*
X161261905Y-80128438D02*
X161357143Y-80080819D01*
X161357143Y-80080819D02*
X161595238Y-80080819D01*
X161595238Y-80080819D02*
X161738095Y-80128438D01*
X162071429Y-80080819D02*
X162309524Y-81080819D01*
X162309524Y-81080819D02*
X162500000Y-80366533D01*
X162500000Y-80366533D02*
X162690476Y-81080819D01*
X162690476Y-81080819D02*
X162928572Y-80080819D01*
X163261905Y-80176057D02*
X163309524Y-80128438D01*
X163309524Y-80128438D02*
X163404762Y-80080819D01*
X163404762Y-80080819D02*
X163642857Y-80080819D01*
X163642857Y-80080819D02*
X163738095Y-80128438D01*
X163738095Y-80128438D02*
X163785714Y-80176057D01*
X163785714Y-80176057D02*
X163833333Y-80271295D01*
X163833333Y-80271295D02*
X163833333Y-80366533D01*
X163833333Y-80366533D02*
X163785714Y-80509390D01*
X163785714Y-80509390D02*
X163214286Y-81080819D01*
X163214286Y-81080819D02*
X163833333Y-81080819D01*
X116666666Y-83304819D02*
X116333333Y-82828628D01*
X116095238Y-83304819D02*
X116095238Y-82304819D01*
X116095238Y-82304819D02*
X116476190Y-82304819D01*
X116476190Y-82304819D02*
X116571428Y-82352438D01*
X116571428Y-82352438D02*
X116619047Y-82400057D01*
X116619047Y-82400057D02*
X116666666Y-82495295D01*
X116666666Y-82495295D02*
X116666666Y-82638152D01*
X116666666Y-82638152D02*
X116619047Y-82733390D01*
X116619047Y-82733390D02*
X116571428Y-82781009D01*
X116571428Y-82781009D02*
X116476190Y-82828628D01*
X116476190Y-82828628D02*
X116095238Y-82828628D01*
X117095238Y-82781009D02*
X117428571Y-82781009D01*
X117571428Y-83304819D02*
X117095238Y-83304819D01*
X117095238Y-83304819D02*
X117095238Y-82304819D01*
X117095238Y-82304819D02*
X117571428Y-82304819D01*
X118333333Y-82781009D02*
X118000000Y-82781009D01*
X118000000Y-83304819D02*
X118000000Y-82304819D01*
X118000000Y-82304819D02*
X118476190Y-82304819D01*
X119000000Y-82304819D02*
X119000000Y-82542914D01*
X118761905Y-82447676D02*
X119000000Y-82542914D01*
X119000000Y-82542914D02*
X119238095Y-82447676D01*
X118857143Y-82733390D02*
X119000000Y-82542914D01*
X119000000Y-82542914D02*
X119142857Y-82733390D01*
X119761905Y-82304819D02*
X119761905Y-82542914D01*
X119523810Y-82447676D02*
X119761905Y-82542914D01*
X119761905Y-82542914D02*
X120000000Y-82447676D01*
X119619048Y-82733390D02*
X119761905Y-82542914D01*
X119761905Y-82542914D02*
X119904762Y-82733390D01*
X161166667Y-106033200D02*
X161309524Y-106080819D01*
X161309524Y-106080819D02*
X161547619Y-106080819D01*
X161547619Y-106080819D02*
X161642857Y-106033200D01*
X161642857Y-106033200D02*
X161690476Y-105985580D01*
X161690476Y-105985580D02*
X161738095Y-105890342D01*
X161738095Y-105890342D02*
X161738095Y-105795104D01*
X161738095Y-105795104D02*
X161690476Y-105699866D01*
X161690476Y-105699866D02*
X161642857Y-105652247D01*
X161642857Y-105652247D02*
X161547619Y-105604628D01*
X161547619Y-105604628D02*
X161357143Y-105557009D01*
X161357143Y-105557009D02*
X161261905Y-105509390D01*
X161261905Y-105509390D02*
X161214286Y-105461771D01*
X161214286Y-105461771D02*
X161166667Y-105366533D01*
X161166667Y-105366533D02*
X161166667Y-105271295D01*
X161166667Y-105271295D02*
X161214286Y-105176057D01*
X161214286Y-105176057D02*
X161261905Y-105128438D01*
X161261905Y-105128438D02*
X161357143Y-105080819D01*
X161357143Y-105080819D02*
X161595238Y-105080819D01*
X161595238Y-105080819D02*
X161738095Y-105128438D01*
X162071429Y-105080819D02*
X162309524Y-106080819D01*
X162309524Y-106080819D02*
X162500000Y-105366533D01*
X162500000Y-105366533D02*
X162690476Y-106080819D01*
X162690476Y-106080819D02*
X162928572Y-105080819D01*
X163738095Y-105414152D02*
X163738095Y-106080819D01*
X163500000Y-105033200D02*
X163261905Y-105747485D01*
X163261905Y-105747485D02*
X163880952Y-105747485D01*
%TO.C,SW3*%
D14*
X134515000Y-106515000D02*
X148485000Y-106515000D01*
X134515000Y-120485000D02*
X134515000Y-106515000D01*
X148485000Y-106515000D02*
X148485000Y-120485000D01*
X148485000Y-120485000D02*
X134515000Y-120485000D01*
%TO.C,SW1*%
X134515000Y-81515000D02*
X148485000Y-81515000D01*
X134515000Y-95485000D02*
X134515000Y-81515000D01*
X148485000Y-81515000D02*
X148485000Y-95485000D01*
X148485000Y-95485000D02*
X134515000Y-95485000D01*
%TO.C,OLED1*%
X110120000Y-79880000D02*
X110120000Y-78500000D01*
X111500000Y-79880000D02*
X110120000Y-79880000D01*
X112770000Y-77120000D02*
X120500000Y-77120000D01*
X112770000Y-79880000D02*
X112770000Y-77120000D01*
X112770000Y-79880000D02*
X120500000Y-79880000D01*
X120500000Y-79880000D02*
X120500000Y-77120000D01*
%TO.C,ROT2*%
X176950000Y-106900000D02*
X177550000Y-106900000D01*
X177250000Y-107200000D02*
X176950000Y-106900000D01*
X177550000Y-106900000D02*
X177250000Y-107200000D01*
X178650000Y-105100000D02*
X178650000Y-116900000D01*
X182750000Y-105100000D02*
X178650000Y-105100000D01*
X182750000Y-116900000D02*
X178650000Y-116900000D01*
X184250000Y-111000000D02*
X185250000Y-111000000D01*
X184750000Y-110500000D02*
X184750000Y-111500000D01*
X186750000Y-105100000D02*
X190850000Y-105100000D01*
X190850000Y-105100000D02*
X190850000Y-107500000D01*
X190850000Y-109700000D02*
X190850000Y-112300000D01*
X190850000Y-114500000D02*
X190850000Y-116900000D01*
X190850000Y-116900000D02*
X186750000Y-116900000D01*
X187750000Y-111000000D02*
G75*
G02*
X181750000Y-111000000I-3000000J0D01*
G01*
X181750000Y-111000000D02*
G75*
G02*
X187750000Y-111000000I3000000J0D01*
G01*
%TO.C,U1*%
D15*
X109712015Y-117010500D02*
X126712015Y-117010500D01*
X128712015Y-115010500D02*
X128712015Y-101210500D01*
X106287985Y-112610500D02*
X106287985Y-103610500D01*
X113641285Y-112610500D02*
X106287985Y-112610500D01*
X106287985Y-103610500D02*
X113641285Y-103610500D01*
X113641285Y-103610500D02*
X113641285Y-112610500D01*
X107712925Y-101210500D02*
X107712925Y-115010500D01*
X126712015Y-99210500D02*
X109712015Y-99210500D01*
D14*
X109712015Y-117010500D02*
G75*
G02*
X107712015Y-115010500I44612J2044612D01*
G01*
X128712015Y-115010500D02*
G75*
G02*
X126712015Y-117010500I-2044857J44857D01*
G01*
X107712015Y-101210500D02*
G75*
G02*
X109712015Y-99210500I2044610J-44610D01*
G01*
X126712015Y-99210500D02*
G75*
G02*
X128712015Y-101210500I0J-2000000D01*
G01*
D16*
X109539015Y-119110500D02*
G75*
G02*
X109285015Y-119110500I-127000J0D01*
G01*
X109285015Y-119110500D02*
G75*
G02*
X109539015Y-119110500I127000J0D01*
G01*
D17*
X109650310Y-116998215D02*
X109601542Y-116995167D01*
X109552521Y-116991103D01*
X109650310Y-116998215D01*
X126733589Y-99221008D02*
X126782865Y-99222787D01*
X126831633Y-99225835D01*
X126880654Y-99229899D01*
X126929422Y-99235232D01*
X126978190Y-99241836D01*
X127026705Y-99249456D01*
X127074965Y-99258347D01*
X127122970Y-99268252D01*
X126733589Y-99221008D01*
%TO.C,ROT1*%
D14*
X176950000Y-86900000D02*
X177550000Y-86900000D01*
X177250000Y-87200000D02*
X176950000Y-86900000D01*
X177550000Y-86900000D02*
X177250000Y-87200000D01*
X178650000Y-85100000D02*
X178650000Y-96900000D01*
X182750000Y-85100000D02*
X178650000Y-85100000D01*
X182750000Y-96900000D02*
X178650000Y-96900000D01*
X184250000Y-91000000D02*
X185250000Y-91000000D01*
X184750000Y-90500000D02*
X184750000Y-91500000D01*
X186750000Y-85100000D02*
X190850000Y-85100000D01*
X190850000Y-85100000D02*
X190850000Y-87500000D01*
X190850000Y-89700000D02*
X190850000Y-92300000D01*
X190850000Y-94500000D02*
X190850000Y-96900000D01*
X190850000Y-96900000D02*
X186750000Y-96900000D01*
X187750000Y-91000000D02*
G75*
G02*
X181750000Y-91000000I-3000000J0D01*
G01*
X181750000Y-91000000D02*
G75*
G02*
X187750000Y-91000000I3000000J0D01*
G01*
%TO.C,SW2*%
X155515000Y-81515000D02*
X169485000Y-81515000D01*
X155515000Y-95485000D02*
X155515000Y-81515000D01*
X169485000Y-81515000D02*
X169485000Y-95485000D01*
X169485000Y-95485000D02*
X155515000Y-95485000D01*
%TO.C,SW4*%
X155515000Y-106515000D02*
X169485000Y-106515000D01*
X155515000Y-120485000D02*
X155515000Y-106515000D01*
X169485000Y-106515000D02*
X169485000Y-120485000D01*
X169485000Y-120485000D02*
X155515000Y-120485000D01*
%TD*%
M02*
