%TF.GenerationSoftware,KiCad,Pcbnew,10.0.5-10.0.5~ubuntu26.04.1*%
%TF.CreationDate,2026-08-20T20:18:31+01:00*%
%TF.ProjectId,astrapad,61737472-6170-4616-942e-6b696361645f,rev?*%
%TF.SameCoordinates,Original*%
%TF.FileFunction,Legend,Top*%
%TF.FilePolarity,Positive*%
%FSLAX46Y46*%
G04 Gerber Fmt 4.6, Leading zero omitted, Abs format (unit mm)*
G04 Created by KiCad (PCBNEW 10.0.5-10.0.5~ubuntu26.04.1) date 2026-08-20 20:18:31*
%MOMM*%
%LPD*%
G01*
G04 APERTURE LIST*
%ADD10C,0.100000*%
%ADD11C,0.750000*%
%ADD12C,0.150000*%
%ADD13C,0.101600*%
%ADD14C,0.120000*%
%ADD15C,0.127000*%
%ADD16C,0.254000*%
%ADD17C,0.025400*%
G04 APERTURE END LIST*
D10*
X172922931Y-124896228D02*
X172875312Y-124848609D01*
X172875312Y-124848609D02*
X172780074Y-124800990D01*
X172780074Y-124800990D02*
X172684836Y-124800990D01*
X172684836Y-124800990D02*
X172589598Y-124848609D01*
X172589598Y-124848609D02*
X172541979Y-124896228D01*
X172541979Y-124896228D02*
X172494360Y-124991466D01*
X172494360Y-124991466D02*
X172494360Y-125086704D01*
X172494360Y-125086704D02*
X172541979Y-125181942D01*
X172541979Y-125181942D02*
X172589598Y-125229561D01*
X172589598Y-125229561D02*
X172684836Y-125277180D01*
X172684836Y-125277180D02*
X172780074Y-125277180D01*
X172780074Y-125277180D02*
X172875312Y-125229561D01*
X172875312Y-125229561D02*
X172922931Y-125181942D01*
X172922931Y-124800990D02*
X172922931Y-125181942D01*
X172922931Y-125181942D02*
X172970550Y-125229561D01*
X172970550Y-125229561D02*
X173018169Y-125229561D01*
X173018169Y-125229561D02*
X173113408Y-125181942D01*
X173113408Y-125181942D02*
X173161027Y-125086704D01*
X173161027Y-125086704D02*
X173161027Y-124848609D01*
X173161027Y-124848609D02*
X173065789Y-124705752D01*
X173065789Y-124705752D02*
X172922931Y-124610514D01*
X172922931Y-124610514D02*
X172732455Y-124562895D01*
X172732455Y-124562895D02*
X172541979Y-124610514D01*
X172541979Y-124610514D02*
X172399122Y-124705752D01*
X172399122Y-124705752D02*
X172303884Y-124848609D01*
X172303884Y-124848609D02*
X172256265Y-125039085D01*
X172256265Y-125039085D02*
X172303884Y-125229561D01*
X172303884Y-125229561D02*
X172399122Y-125372419D01*
X172399122Y-125372419D02*
X172541979Y-125467657D01*
X172541979Y-125467657D02*
X172732455Y-125515276D01*
X172732455Y-125515276D02*
X172922931Y-125467657D01*
X172922931Y-125467657D02*
X173065789Y-125372419D01*
X173589598Y-124705752D02*
X173589598Y-125705752D01*
X173589598Y-124753371D02*
X173684836Y-124705752D01*
X173684836Y-124705752D02*
X173875312Y-124705752D01*
X173875312Y-124705752D02*
X173970550Y-124753371D01*
X173970550Y-124753371D02*
X174018169Y-124800990D01*
X174018169Y-124800990D02*
X174065788Y-124896228D01*
X174065788Y-124896228D02*
X174065788Y-125181942D01*
X174065788Y-125181942D02*
X174018169Y-125277180D01*
X174018169Y-125277180D02*
X173970550Y-125324800D01*
X173970550Y-125324800D02*
X173875312Y-125372419D01*
X173875312Y-125372419D02*
X173684836Y-125372419D01*
X173684836Y-125372419D02*
X173589598Y-125324800D01*
X174494360Y-125372419D02*
X174494360Y-124372419D01*
X174922931Y-125372419D02*
X174922931Y-124848609D01*
X174922931Y-124848609D02*
X174875312Y-124753371D01*
X174875312Y-124753371D02*
X174780074Y-124705752D01*
X174780074Y-124705752D02*
X174637217Y-124705752D01*
X174637217Y-124705752D02*
X174541979Y-124753371D01*
X174541979Y-124753371D02*
X174494360Y-124800990D01*
X175827693Y-125372419D02*
X175827693Y-124848609D01*
X175827693Y-124848609D02*
X175780074Y-124753371D01*
X175780074Y-124753371D02*
X175684836Y-124705752D01*
X175684836Y-124705752D02*
X175494360Y-124705752D01*
X175494360Y-124705752D02*
X175399122Y-124753371D01*
X175827693Y-125324800D02*
X175732455Y-125372419D01*
X175732455Y-125372419D02*
X175494360Y-125372419D01*
X175494360Y-125372419D02*
X175399122Y-125324800D01*
X175399122Y-125324800D02*
X175351503Y-125229561D01*
X175351503Y-125229561D02*
X175351503Y-125134323D01*
X175351503Y-125134323D02*
X175399122Y-125039085D01*
X175399122Y-125039085D02*
X175494360Y-124991466D01*
X175494360Y-124991466D02*
X175732455Y-124991466D01*
X175732455Y-124991466D02*
X175827693Y-124943847D01*
X176303884Y-124705752D02*
X176303884Y-125372419D01*
X176303884Y-124800990D02*
X176351503Y-124753371D01*
X176351503Y-124753371D02*
X176446741Y-124705752D01*
X176446741Y-124705752D02*
X176589598Y-124705752D01*
X176589598Y-124705752D02*
X176684836Y-124753371D01*
X176684836Y-124753371D02*
X176732455Y-124848609D01*
X176732455Y-124848609D02*
X176732455Y-125372419D01*
X177065789Y-124705752D02*
X177446741Y-124705752D01*
X177208646Y-124372419D02*
X177208646Y-125229561D01*
X177208646Y-125229561D02*
X177256265Y-125324800D01*
X177256265Y-125324800D02*
X177351503Y-125372419D01*
X177351503Y-125372419D02*
X177446741Y-125372419D01*
X177922932Y-125372419D02*
X177827694Y-125324800D01*
X177827694Y-125324800D02*
X177780075Y-125277180D01*
X177780075Y-125277180D02*
X177732456Y-125181942D01*
X177732456Y-125181942D02*
X177732456Y-124896228D01*
X177732456Y-124896228D02*
X177780075Y-124800990D01*
X177780075Y-124800990D02*
X177827694Y-124753371D01*
X177827694Y-124753371D02*
X177922932Y-124705752D01*
X177922932Y-124705752D02*
X178065789Y-124705752D01*
X178065789Y-124705752D02*
X178161027Y-124753371D01*
X178161027Y-124753371D02*
X178208646Y-124800990D01*
X178208646Y-124800990D02*
X178256265Y-124896228D01*
X178256265Y-124896228D02*
X178256265Y-125181942D01*
X178256265Y-125181942D02*
X178208646Y-125277180D01*
X178208646Y-125277180D02*
X178161027Y-125324800D01*
X178161027Y-125324800D02*
X178065789Y-125372419D01*
X178065789Y-125372419D02*
X177922932Y-125372419D01*
X178684837Y-125372419D02*
X178684837Y-124705752D01*
X178684837Y-124800990D02*
X178732456Y-124753371D01*
X178732456Y-124753371D02*
X178827694Y-124705752D01*
X178827694Y-124705752D02*
X178970551Y-124705752D01*
X178970551Y-124705752D02*
X179065789Y-124753371D01*
X179065789Y-124753371D02*
X179113408Y-124848609D01*
X179113408Y-124848609D02*
X179113408Y-125372419D01*
X179113408Y-124848609D02*
X179161027Y-124753371D01*
X179161027Y-124753371D02*
X179256265Y-124705752D01*
X179256265Y-124705752D02*
X179399122Y-124705752D01*
X179399122Y-124705752D02*
X179494361Y-124753371D01*
X179494361Y-124753371D02*
X179541980Y-124848609D01*
X179541980Y-124848609D02*
X179541980Y-125372419D01*
X180018170Y-124991466D02*
X180780075Y-124991466D01*
X181684836Y-125372419D02*
X181684836Y-124848609D01*
X181684836Y-124848609D02*
X181637217Y-124753371D01*
X181637217Y-124753371D02*
X181541979Y-124705752D01*
X181541979Y-124705752D02*
X181351503Y-124705752D01*
X181351503Y-124705752D02*
X181256265Y-124753371D01*
X181684836Y-125324800D02*
X181589598Y-125372419D01*
X181589598Y-125372419D02*
X181351503Y-125372419D01*
X181351503Y-125372419D02*
X181256265Y-125324800D01*
X181256265Y-125324800D02*
X181208646Y-125229561D01*
X181208646Y-125229561D02*
X181208646Y-125134323D01*
X181208646Y-125134323D02*
X181256265Y-125039085D01*
X181256265Y-125039085D02*
X181351503Y-124991466D01*
X181351503Y-124991466D02*
X181589598Y-124991466D01*
X181589598Y-124991466D02*
X181684836Y-124943847D01*
X182113408Y-125324800D02*
X182208646Y-125372419D01*
X182208646Y-125372419D02*
X182399122Y-125372419D01*
X182399122Y-125372419D02*
X182494360Y-125324800D01*
X182494360Y-125324800D02*
X182541979Y-125229561D01*
X182541979Y-125229561D02*
X182541979Y-125181942D01*
X182541979Y-125181942D02*
X182494360Y-125086704D01*
X182494360Y-125086704D02*
X182399122Y-125039085D01*
X182399122Y-125039085D02*
X182256265Y-125039085D01*
X182256265Y-125039085D02*
X182161027Y-124991466D01*
X182161027Y-124991466D02*
X182113408Y-124896228D01*
X182113408Y-124896228D02*
X182113408Y-124848609D01*
X182113408Y-124848609D02*
X182161027Y-124753371D01*
X182161027Y-124753371D02*
X182256265Y-124705752D01*
X182256265Y-124705752D02*
X182399122Y-124705752D01*
X182399122Y-124705752D02*
X182494360Y-124753371D01*
X183399122Y-125324800D02*
X183303884Y-125372419D01*
X183303884Y-125372419D02*
X183113408Y-125372419D01*
X183113408Y-125372419D02*
X183018170Y-125324800D01*
X183018170Y-125324800D02*
X182970551Y-125277180D01*
X182970551Y-125277180D02*
X182922932Y-125181942D01*
X182922932Y-125181942D02*
X182922932Y-124896228D01*
X182922932Y-124896228D02*
X182970551Y-124800990D01*
X182970551Y-124800990D02*
X183018170Y-124753371D01*
X183018170Y-124753371D02*
X183113408Y-124705752D01*
X183113408Y-124705752D02*
X183303884Y-124705752D01*
X183303884Y-124705752D02*
X183399122Y-124753371D01*
X183827694Y-125372419D02*
X183827694Y-124705752D01*
X183827694Y-124372419D02*
X183780075Y-124420038D01*
X183780075Y-124420038D02*
X183827694Y-124467657D01*
X183827694Y-124467657D02*
X183875313Y-124420038D01*
X183875313Y-124420038D02*
X183827694Y-124372419D01*
X183827694Y-124372419D02*
X183827694Y-124467657D01*
X184303884Y-125372419D02*
X184303884Y-124705752D01*
X184303884Y-124372419D02*
X184256265Y-124420038D01*
X184256265Y-124420038D02*
X184303884Y-124467657D01*
X184303884Y-124467657D02*
X184351503Y-124420038D01*
X184351503Y-124420038D02*
X184303884Y-124372419D01*
X184303884Y-124372419D02*
X184303884Y-124467657D01*
D11*
G36*
X115961143Y-97086369D02*
G01*
X116631327Y-97364598D01*
X117363816Y-97690105D01*
X118197467Y-98081284D01*
X117763932Y-98514818D01*
X117446067Y-98360419D01*
X117128072Y-98205632D01*
X116281598Y-99052106D01*
X116433277Y-99373209D01*
X116590785Y-99687965D01*
X116169037Y-100109713D01*
X115662059Y-99020630D01*
X115258964Y-98091905D01*
X115087022Y-97654883D01*
X115015987Y-97459284D01*
X115526313Y-97459284D01*
X115621646Y-97670416D01*
X115740684Y-97944112D01*
X115885109Y-98269619D01*
X116056347Y-98630747D01*
X116703734Y-97983359D01*
X116342477Y-97812251D01*
X116016970Y-97667826D01*
X115741850Y-97550213D01*
X115526313Y-97459284D01*
X115015987Y-97459284D01*
X114931644Y-97227038D01*
X115314791Y-96843890D01*
X115961143Y-97086369D01*
G37*
G36*
X119101970Y-97259679D02*
G01*
X118917926Y-97429585D01*
X118757302Y-97551781D01*
X118616883Y-97634666D01*
X118407035Y-97731280D01*
X118274537Y-97777537D01*
X118069103Y-97335065D01*
X118203469Y-97287912D01*
X118377771Y-97204370D01*
X118552517Y-97090222D01*
X118751723Y-96913577D01*
X118880641Y-96765920D01*
X118949649Y-96649325D01*
X118975938Y-96555946D01*
X118972509Y-96460286D01*
X118941107Y-96373928D01*
X118879438Y-96293131D01*
X118783975Y-96223162D01*
X118683590Y-96195207D01*
X118572944Y-96200091D01*
X118431267Y-96236656D01*
X118280492Y-96295546D01*
X118086978Y-96384838D01*
X117889421Y-96466942D01*
X117692302Y-96533408D01*
X117493538Y-96569737D01*
X117300476Y-96559962D01*
X117178540Y-96523850D01*
X117053682Y-96453783D01*
X116923416Y-96343259D01*
X116812160Y-96210711D01*
X116736813Y-96074327D01*
X116693502Y-95932003D01*
X116680010Y-95783314D01*
X116695945Y-95630199D01*
X116743241Y-95469843D01*
X116816363Y-95318221D01*
X116921046Y-95163939D01*
X117061753Y-95005739D01*
X117266134Y-94825123D01*
X117455911Y-94700957D01*
X117647395Y-94607815D01*
X117799552Y-94553682D01*
X117997603Y-94997579D01*
X117863995Y-95044697D01*
X117719503Y-95112730D01*
X117579205Y-95202800D01*
X117429099Y-95334744D01*
X117321424Y-95456789D01*
X117256774Y-95559152D01*
X117224831Y-95646003D01*
X117220024Y-95734235D01*
X117246738Y-95817356D01*
X117309154Y-95900010D01*
X117399023Y-95963691D01*
X117496454Y-95985758D01*
X117602385Y-95976850D01*
X117727146Y-95942107D01*
X117999805Y-95826955D01*
X118274760Y-95709703D01*
X118498622Y-95636676D01*
X118644970Y-95608969D01*
X118781600Y-95605688D01*
X118910785Y-95625278D01*
X119032907Y-95669847D01*
X119162841Y-95749341D01*
X119303129Y-95871254D01*
X119414599Y-96003741D01*
X119490369Y-96139713D01*
X119534339Y-96281214D01*
X119547126Y-96428552D01*
X119527242Y-96583885D01*
X119471388Y-96750888D01*
X119388317Y-96907981D01*
X119267440Y-97076902D01*
X119101970Y-97259679D01*
G37*
G36*
X120607619Y-95671131D02*
G01*
X118891614Y-93955127D01*
X118261584Y-94585157D01*
X117913409Y-94236983D01*
X119579674Y-92570717D01*
X119927849Y-92918892D01*
X119297818Y-93548923D01*
X121013823Y-95264927D01*
X120607619Y-95671131D01*
G37*
G36*
X121601986Y-91143007D02*
G01*
X121748256Y-91193641D01*
X121893415Y-91278821D01*
X122039436Y-91403658D01*
X122170375Y-91560198D01*
X122251683Y-91712954D01*
X122290852Y-91865171D01*
X122295285Y-92023865D01*
X122267643Y-92191796D01*
X122204456Y-92372278D01*
X122507037Y-92414764D01*
X122858968Y-92485357D01*
X123227220Y-92581339D01*
X123582001Y-92696749D01*
X123127482Y-93151268D01*
X122682031Y-93028344D01*
X122245388Y-92926146D01*
X122039113Y-92887483D01*
X121865478Y-92865656D01*
X121844753Y-92889230D01*
X121827008Y-92909825D01*
X121575462Y-93161371D01*
X122346421Y-93932330D01*
X121940217Y-94338534D01*
X119907772Y-92306089D01*
X119979760Y-92203372D01*
X120617463Y-92203372D01*
X121252157Y-92838066D01*
X121414587Y-92675636D01*
X121576315Y-92498224D01*
X121679992Y-92353497D01*
X121729188Y-92253806D01*
X121752602Y-92163229D01*
X121753953Y-92079024D01*
X121733721Y-91997322D01*
X121688747Y-91912887D01*
X121613803Y-91823592D01*
X121528854Y-91752816D01*
X121446959Y-91710204D01*
X121366143Y-91691213D01*
X121239095Y-91700808D01*
X121097628Y-91759216D01*
X120960076Y-91852899D01*
X120809296Y-91987706D01*
X120698678Y-92107391D01*
X120617463Y-92203372D01*
X119979760Y-92203372D01*
X120027065Y-92135874D01*
X120164499Y-91963095D01*
X120435992Y-91664660D01*
X120680818Y-91444630D01*
X120903137Y-91290409D01*
X121106525Y-91190813D01*
X121294901Y-91137087D01*
X121451929Y-91124199D01*
X121601986Y-91143007D01*
G37*
G36*
X123558815Y-89488696D02*
G01*
X124229000Y-89766925D01*
X124961488Y-90092433D01*
X125795139Y-90483611D01*
X125361604Y-90917146D01*
X125043739Y-90762747D01*
X124725745Y-90607959D01*
X123879271Y-91454433D01*
X124030949Y-91775537D01*
X124188457Y-92090293D01*
X123766710Y-92512040D01*
X123259732Y-91422958D01*
X122856637Y-90494233D01*
X122684695Y-90057211D01*
X122613660Y-89861611D01*
X123123985Y-89861611D01*
X123219319Y-90072744D01*
X123338356Y-90346440D01*
X123482781Y-90671947D01*
X123654019Y-91033075D01*
X124301407Y-90385687D01*
X123940149Y-90214579D01*
X123614642Y-90070154D01*
X123339522Y-89952541D01*
X123123985Y-89861611D01*
X122613660Y-89861611D01*
X122529316Y-89629365D01*
X122912464Y-89246217D01*
X123558815Y-89488696D01*
G37*
G36*
X125746864Y-87008393D02*
G01*
X125895326Y-87060452D01*
X126044607Y-87148863D01*
X126196809Y-87279444D01*
X126342184Y-87451718D01*
X126434790Y-87619468D01*
X126482551Y-87785904D01*
X126490528Y-87958950D01*
X126458303Y-88139507D01*
X126381518Y-88331999D01*
X126274801Y-88512865D01*
X126127749Y-88707927D01*
X125933735Y-88919156D01*
X125757705Y-89095186D01*
X126470634Y-89808116D01*
X126064430Y-90214320D01*
X124040276Y-88190165D01*
X124112664Y-88087319D01*
X124749837Y-88087319D01*
X125409530Y-88747011D01*
X125578955Y-88577587D01*
X125736790Y-88403661D01*
X125842288Y-88255189D01*
X125893057Y-88152147D01*
X125917745Y-88058053D01*
X125920005Y-87970224D01*
X125899680Y-87885209D01*
X125852139Y-87795735D01*
X125771046Y-87699249D01*
X125678585Y-87622398D01*
X125591565Y-87578112D01*
X125507454Y-87560523D01*
X125375882Y-87574048D01*
X125234406Y-87635391D01*
X125098078Y-87730362D01*
X124952162Y-87861419D01*
X124837529Y-87984861D01*
X124749837Y-88087319D01*
X124112664Y-88087319D01*
X124160765Y-88018979D01*
X124303868Y-87840306D01*
X124582356Y-87534876D01*
X124827888Y-87313818D01*
X125050342Y-87158542D01*
X125253321Y-87057846D01*
X125440747Y-87002899D01*
X125596429Y-86989389D01*
X125746864Y-87008393D01*
G37*
G36*
X127341072Y-85706440D02*
G01*
X128011256Y-85984669D01*
X128743745Y-86310176D01*
X129577395Y-86701355D01*
X129143861Y-87134889D01*
X128825996Y-86980490D01*
X128508001Y-86825703D01*
X127661527Y-87672177D01*
X127813206Y-87993280D01*
X127970714Y-88308036D01*
X127548966Y-88729784D01*
X127041988Y-87640701D01*
X126638893Y-86711976D01*
X126466951Y-86274954D01*
X126395916Y-86079355D01*
X126906242Y-86079355D01*
X127001575Y-86290488D01*
X127120613Y-86564183D01*
X127265038Y-86889690D01*
X127436276Y-87250818D01*
X128083663Y-86603431D01*
X127722406Y-86432322D01*
X127396899Y-86287897D01*
X127121778Y-86170284D01*
X126906242Y-86079355D01*
X126395916Y-86079355D01*
X126311572Y-85847109D01*
X126694720Y-85463961D01*
X127341072Y-85706440D01*
G37*
G36*
X129837361Y-83182172D02*
G01*
X130015501Y-83238770D01*
X130197775Y-83330077D01*
X130386166Y-83460579D01*
X130582284Y-83636173D01*
X130749929Y-83823743D01*
X130876771Y-84007267D01*
X130967620Y-84188043D01*
X131026051Y-84367754D01*
X131056345Y-84556434D01*
X131057047Y-84744265D01*
X131028146Y-84933418D01*
X130968281Y-85126019D01*
X130851213Y-85368234D01*
X130685274Y-85612941D01*
X130463894Y-85862005D01*
X130168308Y-86136607D01*
X129993903Y-86278790D01*
X129816636Y-86402012D01*
X127819035Y-84404411D01*
X127892332Y-84302212D01*
X128529244Y-84302212D01*
X129919482Y-85692451D01*
X130004065Y-85619785D01*
X130135926Y-85487924D01*
X130306941Y-85289552D01*
X130417587Y-85103475D01*
X130478149Y-84926147D01*
X130494981Y-84753234D01*
X130472349Y-84578529D01*
X130411647Y-84406367D01*
X130309137Y-84233545D01*
X130158205Y-84057661D01*
X129975239Y-83899502D01*
X129800508Y-83793830D01*
X129631268Y-83732487D01*
X129464057Y-83710393D01*
X129298049Y-83727509D01*
X129125348Y-83787948D01*
X128941487Y-83898746D01*
X128742708Y-84070873D01*
X128613697Y-84199884D01*
X128529244Y-84302212D01*
X127892332Y-84302212D01*
X127945023Y-84228745D01*
X128092212Y-84048594D01*
X128371348Y-83745884D01*
X128613978Y-83529443D01*
X128852839Y-83365254D01*
X129089588Y-83247326D01*
X129277688Y-83185905D01*
X129463600Y-83155185D01*
X129649430Y-83153905D01*
X129837361Y-83182172D01*
G37*
D12*
X116666666Y-83304819D02*
X116333333Y-82828628D01*
X116095238Y-83304819D02*
X116095238Y-82304819D01*
X116095238Y-82304819D02*
X116476190Y-82304819D01*
X116476190Y-82304819D02*
X116571428Y-82352438D01*
X116571428Y-82352438D02*
X116619047Y-82400057D01*
X116619047Y-82400057D02*
X116666666Y-82495295D01*
X116666666Y-82495295D02*
X116666666Y-82638152D01*
X116666666Y-82638152D02*
X116619047Y-82733390D01*
X116619047Y-82733390D02*
X116571428Y-82781009D01*
X116571428Y-82781009D02*
X116476190Y-82828628D01*
X116476190Y-82828628D02*
X116095238Y-82828628D01*
X117095238Y-82781009D02*
X117428571Y-82781009D01*
X117571428Y-83304819D02*
X117095238Y-83304819D01*
X117095238Y-83304819D02*
X117095238Y-82304819D01*
X117095238Y-82304819D02*
X117571428Y-82304819D01*
X118333333Y-82781009D02*
X118000000Y-82781009D01*
X118000000Y-83304819D02*
X118000000Y-82304819D01*
X118000000Y-82304819D02*
X118476190Y-82304819D01*
X119000000Y-82304819D02*
X119000000Y-82542914D01*
X118761905Y-82447676D02*
X119000000Y-82542914D01*
X119000000Y-82542914D02*
X119238095Y-82447676D01*
X118857143Y-82733390D02*
X119000000Y-82542914D01*
X119000000Y-82542914D02*
X119142857Y-82733390D01*
X119761905Y-82304819D02*
X119761905Y-82542914D01*
X119523810Y-82447676D02*
X119761905Y-82542914D01*
X119761905Y-82542914D02*
X120000000Y-82447676D01*
X119619048Y-82733390D02*
X119761905Y-82542914D01*
X119761905Y-82542914D02*
X119904762Y-82733390D01*
X119166666Y-120304819D02*
X118833333Y-119828628D01*
X118595238Y-120304819D02*
X118595238Y-119304819D01*
X118595238Y-119304819D02*
X118976190Y-119304819D01*
X118976190Y-119304819D02*
X119071428Y-119352438D01*
X119071428Y-119352438D02*
X119119047Y-119400057D01*
X119119047Y-119400057D02*
X119166666Y-119495295D01*
X119166666Y-119495295D02*
X119166666Y-119638152D01*
X119166666Y-119638152D02*
X119119047Y-119733390D01*
X119119047Y-119733390D02*
X119071428Y-119781009D01*
X119071428Y-119781009D02*
X118976190Y-119828628D01*
X118976190Y-119828628D02*
X118595238Y-119828628D01*
X119595238Y-119781009D02*
X119928571Y-119781009D01*
X120071428Y-120304819D02*
X119595238Y-120304819D01*
X119595238Y-120304819D02*
X119595238Y-119304819D01*
X119595238Y-119304819D02*
X120071428Y-119304819D01*
X120833333Y-119781009D02*
X120500000Y-119781009D01*
X120500000Y-120304819D02*
X120500000Y-119304819D01*
X120500000Y-119304819D02*
X120976190Y-119304819D01*
X121500000Y-119304819D02*
X121500000Y-119542914D01*
X121261905Y-119447676D02*
X121500000Y-119542914D01*
X121500000Y-119542914D02*
X121738095Y-119447676D01*
X121357143Y-119733390D02*
X121500000Y-119542914D01*
X121500000Y-119542914D02*
X121642857Y-119733390D01*
X122261905Y-119304819D02*
X122261905Y-119542914D01*
X122023810Y-119447676D02*
X122261905Y-119542914D01*
X122261905Y-119542914D02*
X122500000Y-119447676D01*
X122119048Y-119733390D02*
X122261905Y-119542914D01*
X122261905Y-119542914D02*
X122404762Y-119733390D01*
X187666666Y-118804819D02*
X187333333Y-118328628D01*
X187095238Y-118804819D02*
X187095238Y-117804819D01*
X187095238Y-117804819D02*
X187476190Y-117804819D01*
X187476190Y-117804819D02*
X187571428Y-117852438D01*
X187571428Y-117852438D02*
X187619047Y-117900057D01*
X187619047Y-117900057D02*
X187666666Y-117995295D01*
X187666666Y-117995295D02*
X187666666Y-118138152D01*
X187666666Y-118138152D02*
X187619047Y-118233390D01*
X187619047Y-118233390D02*
X187571428Y-118281009D01*
X187571428Y-118281009D02*
X187476190Y-118328628D01*
X187476190Y-118328628D02*
X187095238Y-118328628D01*
X188095238Y-118281009D02*
X188428571Y-118281009D01*
X188571428Y-118804819D02*
X188095238Y-118804819D01*
X188095238Y-118804819D02*
X188095238Y-117804819D01*
X188095238Y-117804819D02*
X188571428Y-117804819D01*
X189333333Y-118281009D02*
X189000000Y-118281009D01*
X189000000Y-118804819D02*
X189000000Y-117804819D01*
X189000000Y-117804819D02*
X189476190Y-117804819D01*
X190000000Y-117804819D02*
X190000000Y-118042914D01*
X189761905Y-117947676D02*
X190000000Y-118042914D01*
X190000000Y-118042914D02*
X190238095Y-117947676D01*
X189857143Y-118233390D02*
X190000000Y-118042914D01*
X190000000Y-118042914D02*
X190142857Y-118233390D01*
X190761905Y-117804819D02*
X190761905Y-118042914D01*
X190523810Y-117947676D02*
X190761905Y-118042914D01*
X190761905Y-118042914D02*
X191000000Y-117947676D01*
X190619048Y-118233390D02*
X190761905Y-118042914D01*
X190761905Y-118042914D02*
X190904762Y-118233390D01*
X187666666Y-74804819D02*
X187333333Y-74328628D01*
X187095238Y-74804819D02*
X187095238Y-73804819D01*
X187095238Y-73804819D02*
X187476190Y-73804819D01*
X187476190Y-73804819D02*
X187571428Y-73852438D01*
X187571428Y-73852438D02*
X187619047Y-73900057D01*
X187619047Y-73900057D02*
X187666666Y-73995295D01*
X187666666Y-73995295D02*
X187666666Y-74138152D01*
X187666666Y-74138152D02*
X187619047Y-74233390D01*
X187619047Y-74233390D02*
X187571428Y-74281009D01*
X187571428Y-74281009D02*
X187476190Y-74328628D01*
X187476190Y-74328628D02*
X187095238Y-74328628D01*
X188095238Y-74281009D02*
X188428571Y-74281009D01*
X188571428Y-74804819D02*
X188095238Y-74804819D01*
X188095238Y-74804819D02*
X188095238Y-73804819D01*
X188095238Y-73804819D02*
X188571428Y-73804819D01*
X189333333Y-74281009D02*
X189000000Y-74281009D01*
X189000000Y-74804819D02*
X189000000Y-73804819D01*
X189000000Y-73804819D02*
X189476190Y-73804819D01*
X190000000Y-73804819D02*
X190000000Y-74042914D01*
X189761905Y-73947676D02*
X190000000Y-74042914D01*
X190000000Y-74042914D02*
X190238095Y-73947676D01*
X189857143Y-74233390D02*
X190000000Y-74042914D01*
X190000000Y-74042914D02*
X190142857Y-74233390D01*
X190761905Y-73804819D02*
X190761905Y-74042914D01*
X190523810Y-73947676D02*
X190761905Y-74042914D01*
X190761905Y-74042914D02*
X191000000Y-73947676D01*
X190619048Y-74233390D02*
X190761905Y-74042914D01*
X190761905Y-74042914D02*
X190904762Y-74233390D01*
X140166667Y-106033200D02*
X140309524Y-106080819D01*
X140309524Y-106080819D02*
X140547619Y-106080819D01*
X140547619Y-106080819D02*
X140642857Y-106033200D01*
X140642857Y-106033200D02*
X140690476Y-105985580D01*
X140690476Y-105985580D02*
X140738095Y-105890342D01*
X140738095Y-105890342D02*
X140738095Y-105795104D01*
X140738095Y-105795104D02*
X140690476Y-105699866D01*
X140690476Y-105699866D02*
X140642857Y-105652247D01*
X140642857Y-105652247D02*
X140547619Y-105604628D01*
X140547619Y-105604628D02*
X140357143Y-105557009D01*
X140357143Y-105557009D02*
X140261905Y-105509390D01*
X140261905Y-105509390D02*
X140214286Y-105461771D01*
X140214286Y-105461771D02*
X140166667Y-105366533D01*
X140166667Y-105366533D02*
X140166667Y-105271295D01*
X140166667Y-105271295D02*
X140214286Y-105176057D01*
X140214286Y-105176057D02*
X140261905Y-105128438D01*
X140261905Y-105128438D02*
X140357143Y-105080819D01*
X140357143Y-105080819D02*
X140595238Y-105080819D01*
X140595238Y-105080819D02*
X140738095Y-105128438D01*
X141071429Y-105080819D02*
X141309524Y-106080819D01*
X141309524Y-106080819D02*
X141500000Y-105366533D01*
X141500000Y-105366533D02*
X141690476Y-106080819D01*
X141690476Y-106080819D02*
X141928572Y-105080819D01*
X142214286Y-105080819D02*
X142833333Y-105080819D01*
X142833333Y-105080819D02*
X142500000Y-105461771D01*
X142500000Y-105461771D02*
X142642857Y-105461771D01*
X142642857Y-105461771D02*
X142738095Y-105509390D01*
X142738095Y-105509390D02*
X142785714Y-105557009D01*
X142785714Y-105557009D02*
X142833333Y-105652247D01*
X142833333Y-105652247D02*
X142833333Y-105890342D01*
X142833333Y-105890342D02*
X142785714Y-105985580D01*
X142785714Y-105985580D02*
X142738095Y-106033200D01*
X142738095Y-106033200D02*
X142642857Y-106080819D01*
X142642857Y-106080819D02*
X142357143Y-106080819D01*
X142357143Y-106080819D02*
X142261905Y-106033200D01*
X142261905Y-106033200D02*
X142214286Y-105985580D01*
X140166667Y-81033200D02*
X140309524Y-81080819D01*
X140309524Y-81080819D02*
X140547619Y-81080819D01*
X140547619Y-81080819D02*
X140642857Y-81033200D01*
X140642857Y-81033200D02*
X140690476Y-80985580D01*
X140690476Y-80985580D02*
X140738095Y-80890342D01*
X140738095Y-80890342D02*
X140738095Y-80795104D01*
X140738095Y-80795104D02*
X140690476Y-80699866D01*
X140690476Y-80699866D02*
X140642857Y-80652247D01*
X140642857Y-80652247D02*
X140547619Y-80604628D01*
X140547619Y-80604628D02*
X140357143Y-80557009D01*
X140357143Y-80557009D02*
X140261905Y-80509390D01*
X140261905Y-80509390D02*
X140214286Y-80461771D01*
X140214286Y-80461771D02*
X140166667Y-80366533D01*
X140166667Y-80366533D02*
X140166667Y-80271295D01*
X140166667Y-80271295D02*
X140214286Y-80176057D01*
X140214286Y-80176057D02*
X140261905Y-80128438D01*
X140261905Y-80128438D02*
X140357143Y-80080819D01*
X140357143Y-80080819D02*
X140595238Y-80080819D01*
X140595238Y-80080819D02*
X140738095Y-80128438D01*
X141071429Y-80080819D02*
X141309524Y-81080819D01*
X141309524Y-81080819D02*
X141500000Y-80366533D01*
X141500000Y-80366533D02*
X141690476Y-81080819D01*
X141690476Y-81080819D02*
X141928572Y-80080819D01*
X142833333Y-81080819D02*
X142261905Y-81080819D01*
X142547619Y-81080819D02*
X142547619Y-80080819D01*
X142547619Y-80080819D02*
X142452381Y-80223676D01*
X142452381Y-80223676D02*
X142357143Y-80318914D01*
X142357143Y-80318914D02*
X142261905Y-80366533D01*
X108454819Y-80428571D02*
X108454819Y-80238095D01*
X108454819Y-80238095D02*
X108502438Y-80142857D01*
X108502438Y-80142857D02*
X108597676Y-80047619D01*
X108597676Y-80047619D02*
X108788152Y-80000000D01*
X108788152Y-80000000D02*
X109121485Y-80000000D01*
X109121485Y-80000000D02*
X109311961Y-80047619D01*
X109311961Y-80047619D02*
X109407200Y-80142857D01*
X109407200Y-80142857D02*
X109454819Y-80238095D01*
X109454819Y-80238095D02*
X109454819Y-80428571D01*
X109454819Y-80428571D02*
X109407200Y-80523809D01*
X109407200Y-80523809D02*
X109311961Y-80619047D01*
X109311961Y-80619047D02*
X109121485Y-80666666D01*
X109121485Y-80666666D02*
X108788152Y-80666666D01*
X108788152Y-80666666D02*
X108597676Y-80619047D01*
X108597676Y-80619047D02*
X108502438Y-80523809D01*
X108502438Y-80523809D02*
X108454819Y-80428571D01*
X109454819Y-79095238D02*
X109454819Y-79571428D01*
X109454819Y-79571428D02*
X108454819Y-79571428D01*
X108931009Y-78761904D02*
X108931009Y-78428571D01*
X109454819Y-78285714D02*
X109454819Y-78761904D01*
X109454819Y-78761904D02*
X108454819Y-78761904D01*
X108454819Y-78761904D02*
X108454819Y-78285714D01*
X109454819Y-77857142D02*
X108454819Y-77857142D01*
X108454819Y-77857142D02*
X108454819Y-77619047D01*
X108454819Y-77619047D02*
X108502438Y-77476190D01*
X108502438Y-77476190D02*
X108597676Y-77380952D01*
X108597676Y-77380952D02*
X108692914Y-77333333D01*
X108692914Y-77333333D02*
X108883390Y-77285714D01*
X108883390Y-77285714D02*
X109026247Y-77285714D01*
X109026247Y-77285714D02*
X109216723Y-77333333D01*
X109216723Y-77333333D02*
X109311961Y-77380952D01*
X109311961Y-77380952D02*
X109407200Y-77476190D01*
X109407200Y-77476190D02*
X109454819Y-77619047D01*
X109454819Y-77619047D02*
X109454819Y-77857142D01*
X109454819Y-76333333D02*
X109454819Y-76904761D01*
X109454819Y-76619047D02*
X108454819Y-76619047D01*
X108454819Y-76619047D02*
X108597676Y-76714285D01*
X108597676Y-76714285D02*
X108692914Y-76809523D01*
X108692914Y-76809523D02*
X108740533Y-76904761D01*
X178978571Y-104254819D02*
X178645238Y-103778628D01*
X178407143Y-104254819D02*
X178407143Y-103254819D01*
X178407143Y-103254819D02*
X178788095Y-103254819D01*
X178788095Y-103254819D02*
X178883333Y-103302438D01*
X178883333Y-103302438D02*
X178930952Y-103350057D01*
X178930952Y-103350057D02*
X178978571Y-103445295D01*
X178978571Y-103445295D02*
X178978571Y-103588152D01*
X178978571Y-103588152D02*
X178930952Y-103683390D01*
X178930952Y-103683390D02*
X178883333Y-103731009D01*
X178883333Y-103731009D02*
X178788095Y-103778628D01*
X178788095Y-103778628D02*
X178407143Y-103778628D01*
X179597619Y-103254819D02*
X179788095Y-103254819D01*
X179788095Y-103254819D02*
X179883333Y-103302438D01*
X179883333Y-103302438D02*
X179978571Y-103397676D01*
X179978571Y-103397676D02*
X180026190Y-103588152D01*
X180026190Y-103588152D02*
X180026190Y-103921485D01*
X180026190Y-103921485D02*
X179978571Y-104111961D01*
X179978571Y-104111961D02*
X179883333Y-104207200D01*
X179883333Y-104207200D02*
X179788095Y-104254819D01*
X179788095Y-104254819D02*
X179597619Y-104254819D01*
X179597619Y-104254819D02*
X179502381Y-104207200D01*
X179502381Y-104207200D02*
X179407143Y-104111961D01*
X179407143Y-104111961D02*
X179359524Y-103921485D01*
X179359524Y-103921485D02*
X179359524Y-103588152D01*
X179359524Y-103588152D02*
X179407143Y-103397676D01*
X179407143Y-103397676D02*
X179502381Y-103302438D01*
X179502381Y-103302438D02*
X179597619Y-103254819D01*
X180311905Y-103254819D02*
X180883333Y-103254819D01*
X180597619Y-104254819D02*
X180597619Y-103254819D01*
X181169048Y-103350057D02*
X181216667Y-103302438D01*
X181216667Y-103302438D02*
X181311905Y-103254819D01*
X181311905Y-103254819D02*
X181550000Y-103254819D01*
X181550000Y-103254819D02*
X181645238Y-103302438D01*
X181645238Y-103302438D02*
X181692857Y-103350057D01*
X181692857Y-103350057D02*
X181740476Y-103445295D01*
X181740476Y-103445295D02*
X181740476Y-103540533D01*
X181740476Y-103540533D02*
X181692857Y-103683390D01*
X181692857Y-103683390D02*
X181121429Y-104254819D01*
X181121429Y-104254819D02*
X181740476Y-104254819D01*
D13*
X117712166Y-117769000D02*
X117712166Y-118488667D01*
X117712166Y-118488667D02*
X117754500Y-118573333D01*
X117754500Y-118573333D02*
X117796833Y-118615667D01*
X117796833Y-118615667D02*
X117881500Y-118658000D01*
X117881500Y-118658000D02*
X118050833Y-118658000D01*
X118050833Y-118658000D02*
X118135500Y-118615667D01*
X118135500Y-118615667D02*
X118177833Y-118573333D01*
X118177833Y-118573333D02*
X118220166Y-118488667D01*
X118220166Y-118488667D02*
X118220166Y-117769000D01*
X119109166Y-118658000D02*
X118601166Y-118658000D01*
X118855166Y-118658000D02*
X118855166Y-117769000D01*
X118855166Y-117769000D02*
X118770499Y-117896000D01*
X118770499Y-117896000D02*
X118685833Y-117980667D01*
X118685833Y-117980667D02*
X118601166Y-118023000D01*
D12*
X113627595Y-114619215D02*
X113770452Y-114666834D01*
X113770452Y-114666834D02*
X114008547Y-114666834D01*
X114008547Y-114666834D02*
X114103785Y-114619215D01*
X114103785Y-114619215D02*
X114151404Y-114571595D01*
X114151404Y-114571595D02*
X114199023Y-114476357D01*
X114199023Y-114476357D02*
X114199023Y-114381119D01*
X114199023Y-114381119D02*
X114151404Y-114285881D01*
X114151404Y-114285881D02*
X114103785Y-114238262D01*
X114103785Y-114238262D02*
X114008547Y-114190643D01*
X114008547Y-114190643D02*
X113818071Y-114143024D01*
X113818071Y-114143024D02*
X113722833Y-114095405D01*
X113722833Y-114095405D02*
X113675214Y-114047786D01*
X113675214Y-114047786D02*
X113627595Y-113952548D01*
X113627595Y-113952548D02*
X113627595Y-113857310D01*
X113627595Y-113857310D02*
X113675214Y-113762072D01*
X113675214Y-113762072D02*
X113722833Y-113714453D01*
X113722833Y-113714453D02*
X113818071Y-113666834D01*
X113818071Y-113666834D02*
X114056166Y-113666834D01*
X114056166Y-113666834D02*
X114199023Y-113714453D01*
X115008547Y-114619215D02*
X114913309Y-114666834D01*
X114913309Y-114666834D02*
X114722833Y-114666834D01*
X114722833Y-114666834D02*
X114627595Y-114619215D01*
X114627595Y-114619215D02*
X114579976Y-114523976D01*
X114579976Y-114523976D02*
X114579976Y-114143024D01*
X114579976Y-114143024D02*
X114627595Y-114047786D01*
X114627595Y-114047786D02*
X114722833Y-114000167D01*
X114722833Y-114000167D02*
X114913309Y-114000167D01*
X114913309Y-114000167D02*
X115008547Y-114047786D01*
X115008547Y-114047786D02*
X115056166Y-114143024D01*
X115056166Y-114143024D02*
X115056166Y-114238262D01*
X115056166Y-114238262D02*
X114579976Y-114333500D01*
X115865690Y-114619215D02*
X115770452Y-114666834D01*
X115770452Y-114666834D02*
X115579976Y-114666834D01*
X115579976Y-114666834D02*
X115484738Y-114619215D01*
X115484738Y-114619215D02*
X115437119Y-114523976D01*
X115437119Y-114523976D02*
X115437119Y-114143024D01*
X115437119Y-114143024D02*
X115484738Y-114047786D01*
X115484738Y-114047786D02*
X115579976Y-114000167D01*
X115579976Y-114000167D02*
X115770452Y-114000167D01*
X115770452Y-114000167D02*
X115865690Y-114047786D01*
X115865690Y-114047786D02*
X115913309Y-114143024D01*
X115913309Y-114143024D02*
X115913309Y-114238262D01*
X115913309Y-114238262D02*
X115437119Y-114333500D01*
X116722833Y-114619215D02*
X116627595Y-114666834D01*
X116627595Y-114666834D02*
X116437119Y-114666834D01*
X116437119Y-114666834D02*
X116341881Y-114619215D01*
X116341881Y-114619215D02*
X116294262Y-114523976D01*
X116294262Y-114523976D02*
X116294262Y-114143024D01*
X116294262Y-114143024D02*
X116341881Y-114047786D01*
X116341881Y-114047786D02*
X116437119Y-114000167D01*
X116437119Y-114000167D02*
X116627595Y-114000167D01*
X116627595Y-114000167D02*
X116722833Y-114047786D01*
X116722833Y-114047786D02*
X116770452Y-114143024D01*
X116770452Y-114143024D02*
X116770452Y-114238262D01*
X116770452Y-114238262D02*
X116294262Y-114333500D01*
X117627595Y-114666834D02*
X117627595Y-113666834D01*
X117627595Y-114619215D02*
X117532357Y-114666834D01*
X117532357Y-114666834D02*
X117341881Y-114666834D01*
X117341881Y-114666834D02*
X117246643Y-114619215D01*
X117246643Y-114619215D02*
X117199024Y-114571595D01*
X117199024Y-114571595D02*
X117151405Y-114476357D01*
X117151405Y-114476357D02*
X117151405Y-114190643D01*
X117151405Y-114190643D02*
X117199024Y-114095405D01*
X117199024Y-114095405D02*
X117246643Y-114047786D01*
X117246643Y-114047786D02*
X117341881Y-114000167D01*
X117341881Y-114000167D02*
X117532357Y-114000167D01*
X117532357Y-114000167D02*
X117627595Y-114047786D01*
X118818072Y-114619215D02*
X118960929Y-114666834D01*
X118960929Y-114666834D02*
X119199024Y-114666834D01*
X119199024Y-114666834D02*
X119294262Y-114619215D01*
X119294262Y-114619215D02*
X119341881Y-114571595D01*
X119341881Y-114571595D02*
X119389500Y-114476357D01*
X119389500Y-114476357D02*
X119389500Y-114381119D01*
X119389500Y-114381119D02*
X119341881Y-114285881D01*
X119341881Y-114285881D02*
X119294262Y-114238262D01*
X119294262Y-114238262D02*
X119199024Y-114190643D01*
X119199024Y-114190643D02*
X119008548Y-114143024D01*
X119008548Y-114143024D02*
X118913310Y-114095405D01*
X118913310Y-114095405D02*
X118865691Y-114047786D01*
X118865691Y-114047786D02*
X118818072Y-113952548D01*
X118818072Y-113952548D02*
X118818072Y-113857310D01*
X118818072Y-113857310D02*
X118865691Y-113762072D01*
X118865691Y-113762072D02*
X118913310Y-113714453D01*
X118913310Y-113714453D02*
X119008548Y-113666834D01*
X119008548Y-113666834D02*
X119246643Y-113666834D01*
X119246643Y-113666834D02*
X119389500Y-113714453D01*
X119675215Y-114000167D02*
X120056167Y-114000167D01*
X119818072Y-113666834D02*
X119818072Y-114523976D01*
X119818072Y-114523976D02*
X119865691Y-114619215D01*
X119865691Y-114619215D02*
X119960929Y-114666834D01*
X119960929Y-114666834D02*
X120056167Y-114666834D01*
X120818072Y-114000167D02*
X120818072Y-114666834D01*
X120389501Y-114000167D02*
X120389501Y-114523976D01*
X120389501Y-114523976D02*
X120437120Y-114619215D01*
X120437120Y-114619215D02*
X120532358Y-114666834D01*
X120532358Y-114666834D02*
X120675215Y-114666834D01*
X120675215Y-114666834D02*
X120770453Y-114619215D01*
X120770453Y-114619215D02*
X120818072Y-114571595D01*
X121722834Y-114666834D02*
X121722834Y-113666834D01*
X121722834Y-114619215D02*
X121627596Y-114666834D01*
X121627596Y-114666834D02*
X121437120Y-114666834D01*
X121437120Y-114666834D02*
X121341882Y-114619215D01*
X121341882Y-114619215D02*
X121294263Y-114571595D01*
X121294263Y-114571595D02*
X121246644Y-114476357D01*
X121246644Y-114476357D02*
X121246644Y-114190643D01*
X121246644Y-114190643D02*
X121294263Y-114095405D01*
X121294263Y-114095405D02*
X121341882Y-114047786D01*
X121341882Y-114047786D02*
X121437120Y-114000167D01*
X121437120Y-114000167D02*
X121627596Y-114000167D01*
X121627596Y-114000167D02*
X121722834Y-114047786D01*
X122199025Y-114666834D02*
X122199025Y-114000167D01*
X122199025Y-113666834D02*
X122151406Y-113714453D01*
X122151406Y-113714453D02*
X122199025Y-113762072D01*
X122199025Y-113762072D02*
X122246644Y-113714453D01*
X122246644Y-113714453D02*
X122199025Y-113666834D01*
X122199025Y-113666834D02*
X122199025Y-113762072D01*
X122818072Y-114666834D02*
X122722834Y-114619215D01*
X122722834Y-114619215D02*
X122675215Y-114571595D01*
X122675215Y-114571595D02*
X122627596Y-114476357D01*
X122627596Y-114476357D02*
X122627596Y-114190643D01*
X122627596Y-114190643D02*
X122675215Y-114095405D01*
X122675215Y-114095405D02*
X122722834Y-114047786D01*
X122722834Y-114047786D02*
X122818072Y-114000167D01*
X122818072Y-114000167D02*
X122960929Y-114000167D01*
X122960929Y-114000167D02*
X123056167Y-114047786D01*
X123056167Y-114047786D02*
X123103786Y-114095405D01*
X123103786Y-114095405D02*
X123151405Y-114190643D01*
X123151405Y-114190643D02*
X123151405Y-114476357D01*
X123151405Y-114476357D02*
X123103786Y-114571595D01*
X123103786Y-114571595D02*
X123056167Y-114619215D01*
X123056167Y-114619215D02*
X122960929Y-114666834D01*
X122960929Y-114666834D02*
X122818072Y-114666834D01*
X116865691Y-115666834D02*
X117532357Y-116666834D01*
X117532357Y-115666834D02*
X116865691Y-116666834D01*
X117913310Y-116666834D02*
X117913310Y-115666834D01*
X118341881Y-116381119D02*
X118818071Y-116381119D01*
X118246643Y-116666834D02*
X118579976Y-115666834D01*
X118579976Y-115666834D02*
X118913309Y-116666834D01*
X119437119Y-115666834D02*
X119627595Y-115666834D01*
X119627595Y-115666834D02*
X119722833Y-115714453D01*
X119722833Y-115714453D02*
X119818071Y-115809691D01*
X119818071Y-115809691D02*
X119865690Y-116000167D01*
X119865690Y-116000167D02*
X119865690Y-116333500D01*
X119865690Y-116333500D02*
X119818071Y-116523976D01*
X119818071Y-116523976D02*
X119722833Y-116619215D01*
X119722833Y-116619215D02*
X119627595Y-116666834D01*
X119627595Y-116666834D02*
X119437119Y-116666834D01*
X119437119Y-116666834D02*
X119341881Y-116619215D01*
X119341881Y-116619215D02*
X119246643Y-116523976D01*
X119246643Y-116523976D02*
X119199024Y-116333500D01*
X119199024Y-116333500D02*
X119199024Y-116000167D01*
X119199024Y-116000167D02*
X119246643Y-115809691D01*
X119246643Y-115809691D02*
X119341881Y-115714453D01*
X119341881Y-115714453D02*
X119437119Y-115666834D01*
X178978571Y-84254819D02*
X178645238Y-83778628D01*
X178407143Y-84254819D02*
X178407143Y-83254819D01*
X178407143Y-83254819D02*
X178788095Y-83254819D01*
X178788095Y-83254819D02*
X178883333Y-83302438D01*
X178883333Y-83302438D02*
X178930952Y-83350057D01*
X178930952Y-83350057D02*
X178978571Y-83445295D01*
X178978571Y-83445295D02*
X178978571Y-83588152D01*
X178978571Y-83588152D02*
X178930952Y-83683390D01*
X178930952Y-83683390D02*
X178883333Y-83731009D01*
X178883333Y-83731009D02*
X178788095Y-83778628D01*
X178788095Y-83778628D02*
X178407143Y-83778628D01*
X179597619Y-83254819D02*
X179788095Y-83254819D01*
X179788095Y-83254819D02*
X179883333Y-83302438D01*
X179883333Y-83302438D02*
X179978571Y-83397676D01*
X179978571Y-83397676D02*
X180026190Y-83588152D01*
X180026190Y-83588152D02*
X180026190Y-83921485D01*
X180026190Y-83921485D02*
X179978571Y-84111961D01*
X179978571Y-84111961D02*
X179883333Y-84207200D01*
X179883333Y-84207200D02*
X179788095Y-84254819D01*
X179788095Y-84254819D02*
X179597619Y-84254819D01*
X179597619Y-84254819D02*
X179502381Y-84207200D01*
X179502381Y-84207200D02*
X179407143Y-84111961D01*
X179407143Y-84111961D02*
X179359524Y-83921485D01*
X179359524Y-83921485D02*
X179359524Y-83588152D01*
X179359524Y-83588152D02*
X179407143Y-83397676D01*
X179407143Y-83397676D02*
X179502381Y-83302438D01*
X179502381Y-83302438D02*
X179597619Y-83254819D01*
X180311905Y-83254819D02*
X180883333Y-83254819D01*
X180597619Y-84254819D02*
X180597619Y-83254819D01*
X181740476Y-84254819D02*
X181169048Y-84254819D01*
X181454762Y-84254819D02*
X181454762Y-83254819D01*
X181454762Y-83254819D02*
X181359524Y-83397676D01*
X181359524Y-83397676D02*
X181264286Y-83492914D01*
X181264286Y-83492914D02*
X181169048Y-83540533D01*
X161166667Y-81033200D02*
X161309524Y-81080819D01*
X161309524Y-81080819D02*
X161547619Y-81080819D01*
X161547619Y-81080819D02*
X161642857Y-81033200D01*
X161642857Y-81033200D02*
X161690476Y-80985580D01*
X161690476Y-80985580D02*
X161738095Y-80890342D01*
X161738095Y-80890342D02*
X161738095Y-80795104D01*
X161738095Y-80795104D02*
X161690476Y-80699866D01*
X161690476Y-80699866D02*
X161642857Y-80652247D01*
X161642857Y-80652247D02*
X161547619Y-80604628D01*
X161547619Y-80604628D02*
X161357143Y-80557009D01*
X161357143Y-80557009D02*
X161261905Y-80509390D01*
X161261905Y-80509390D02*
X161214286Y-80461771D01*
X161214286Y-80461771D02*
X161166667Y-80366533D01*
X161166667Y-80366533D02*
X161166667Y-80271295D01*
X161166667Y-80271295D02*
X161214286Y-80176057D01*
X161214286Y-80176057D02*
X161261905Y-80128438D01*
X161261905Y-80128438D02*
X161357143Y-80080819D01*
X161357143Y-80080819D02*
X161595238Y-80080819D01*
X161595238Y-80080819D02*
X161738095Y-80128438D01*
X162071429Y-80080819D02*
X162309524Y-81080819D01*
X162309524Y-81080819D02*
X162500000Y-80366533D01*
X162500000Y-80366533D02*
X162690476Y-81080819D01*
X162690476Y-81080819D02*
X162928572Y-80080819D01*
X163261905Y-80176057D02*
X163309524Y-80128438D01*
X163309524Y-80128438D02*
X163404762Y-80080819D01*
X163404762Y-80080819D02*
X163642857Y-80080819D01*
X163642857Y-80080819D02*
X163738095Y-80128438D01*
X163738095Y-80128438D02*
X163785714Y-80176057D01*
X163785714Y-80176057D02*
X163833333Y-80271295D01*
X163833333Y-80271295D02*
X163833333Y-80366533D01*
X163833333Y-80366533D02*
X163785714Y-80509390D01*
X163785714Y-80509390D02*
X163214286Y-81080819D01*
X163214286Y-81080819D02*
X163833333Y-81080819D01*
X161166667Y-106033200D02*
X161309524Y-106080819D01*
X161309524Y-106080819D02*
X161547619Y-106080819D01*
X161547619Y-106080819D02*
X161642857Y-106033200D01*
X161642857Y-106033200D02*
X161690476Y-105985580D01*
X161690476Y-105985580D02*
X161738095Y-105890342D01*
X161738095Y-105890342D02*
X161738095Y-105795104D01*
X161738095Y-105795104D02*
X161690476Y-105699866D01*
X161690476Y-105699866D02*
X161642857Y-105652247D01*
X161642857Y-105652247D02*
X161547619Y-105604628D01*
X161547619Y-105604628D02*
X161357143Y-105557009D01*
X161357143Y-105557009D02*
X161261905Y-105509390D01*
X161261905Y-105509390D02*
X161214286Y-105461771D01*
X161214286Y-105461771D02*
X161166667Y-105366533D01*
X161166667Y-105366533D02*
X161166667Y-105271295D01*
X161166667Y-105271295D02*
X161214286Y-105176057D01*
X161214286Y-105176057D02*
X161261905Y-105128438D01*
X161261905Y-105128438D02*
X161357143Y-105080819D01*
X161357143Y-105080819D02*
X161595238Y-105080819D01*
X161595238Y-105080819D02*
X161738095Y-105128438D01*
X162071429Y-105080819D02*
X162309524Y-106080819D01*
X162309524Y-106080819D02*
X162500000Y-105366533D01*
X162500000Y-105366533D02*
X162690476Y-106080819D01*
X162690476Y-106080819D02*
X162928572Y-105080819D01*
X163738095Y-105414152D02*
X163738095Y-106080819D01*
X163500000Y-105033200D02*
X163261905Y-105747485D01*
X163261905Y-105747485D02*
X163880952Y-105747485D01*
%TO.C,SW3*%
D14*
X134515000Y-106515000D02*
X148485000Y-106515000D01*
X134515000Y-120485000D02*
X134515000Y-106515000D01*
X148485000Y-106515000D02*
X148485000Y-120485000D01*
X148485000Y-120485000D02*
X134515000Y-120485000D01*
%TO.C,SW1*%
X134515000Y-81515000D02*
X148485000Y-81515000D01*
X134515000Y-95485000D02*
X134515000Y-81515000D01*
X148485000Y-81515000D02*
X148485000Y-95485000D01*
X148485000Y-95485000D02*
X134515000Y-95485000D01*
%TO.C,OLED1*%
X110120000Y-79880000D02*
X110120000Y-78500000D01*
X111500000Y-79880000D02*
X110120000Y-79880000D01*
X112770000Y-77120000D02*
X120500000Y-77120000D01*
X112770000Y-79880000D02*
X112770000Y-77120000D01*
X112770000Y-79880000D02*
X120500000Y-79880000D01*
X120500000Y-79880000D02*
X120500000Y-77120000D01*
%TO.C,ROT2*%
X176950000Y-106900000D02*
X177550000Y-106900000D01*
X177250000Y-107200000D02*
X176950000Y-106900000D01*
X177550000Y-106900000D02*
X177250000Y-107200000D01*
X178650000Y-105100000D02*
X178650000Y-116900000D01*
X182750000Y-105100000D02*
X178650000Y-105100000D01*
X182750000Y-116900000D02*
X178650000Y-116900000D01*
X184250000Y-111000000D02*
X185250000Y-111000000D01*
X184750000Y-110500000D02*
X184750000Y-111500000D01*
X186750000Y-105100000D02*
X190850000Y-105100000D01*
X190850000Y-105100000D02*
X190850000Y-107500000D01*
X190850000Y-109700000D02*
X190850000Y-112300000D01*
X190850000Y-114500000D02*
X190850000Y-116900000D01*
X190850000Y-116900000D02*
X186750000Y-116900000D01*
X187750000Y-111000000D02*
G75*
G02*
X181750000Y-111000000I-3000000J0D01*
G01*
X181750000Y-111000000D02*
G75*
G02*
X187750000Y-111000000I3000000J0D01*
G01*
%TO.C,U1*%
D15*
X109489500Y-107212015D02*
X109489500Y-124212015D01*
X111489500Y-126212015D02*
X125289500Y-126212015D01*
X113889500Y-103787985D02*
X122889500Y-103787985D01*
X113889500Y-111141285D02*
X113889500Y-103787985D01*
X122889500Y-103787985D02*
X122889500Y-111141285D01*
X122889500Y-111141285D02*
X113889500Y-111141285D01*
X125289500Y-105212925D02*
X111489500Y-105212925D01*
X127289500Y-124212015D02*
X127289500Y-107212015D01*
D14*
X109489500Y-107212015D02*
G75*
G02*
X111489500Y-105212015I2044612J-44612D01*
G01*
X111489500Y-126212015D02*
G75*
G02*
X109489500Y-124212015I44857J2044857D01*
G01*
X125289500Y-105212015D02*
G75*
G02*
X127289500Y-107212015I-44610J-2044610D01*
G01*
X127289500Y-124212015D02*
G75*
G02*
X125289500Y-126212015I-2000000J0D01*
G01*
D16*
X107516500Y-106912015D02*
G75*
G02*
X107262500Y-106912015I-127000J0D01*
G01*
X107262500Y-106912015D02*
G75*
G02*
X107516500Y-106912015I127000J0D01*
G01*
D17*
X109501785Y-107150310D02*
X109504833Y-107101542D01*
X109508897Y-107052521D01*
X109501785Y-107150310D01*
X127278992Y-124233589D02*
X127277213Y-124282865D01*
X127274165Y-124331633D01*
X127270101Y-124380654D01*
X127264768Y-124429422D01*
X127258164Y-124478190D01*
X127250544Y-124526705D01*
X127241653Y-124574965D01*
X127231748Y-124622970D01*
X127278992Y-124233589D01*
%TO.C,ROT1*%
D14*
X176950000Y-86900000D02*
X177550000Y-86900000D01*
X177250000Y-87200000D02*
X176950000Y-86900000D01*
X177550000Y-86900000D02*
X177250000Y-87200000D01*
X178650000Y-85100000D02*
X178650000Y-96900000D01*
X182750000Y-85100000D02*
X178650000Y-85100000D01*
X182750000Y-96900000D02*
X178650000Y-96900000D01*
X184250000Y-91000000D02*
X185250000Y-91000000D01*
X184750000Y-90500000D02*
X184750000Y-91500000D01*
X186750000Y-85100000D02*
X190850000Y-85100000D01*
X190850000Y-85100000D02*
X190850000Y-87500000D01*
X190850000Y-89700000D02*
X190850000Y-92300000D01*
X190850000Y-94500000D02*
X190850000Y-96900000D01*
X190850000Y-96900000D02*
X186750000Y-96900000D01*
X187750000Y-91000000D02*
G75*
G02*
X181750000Y-91000000I-3000000J0D01*
G01*
X181750000Y-91000000D02*
G75*
G02*
X187750000Y-91000000I3000000J0D01*
G01*
%TO.C,SW2*%
X155515000Y-81515000D02*
X169485000Y-81515000D01*
X155515000Y-95485000D02*
X155515000Y-81515000D01*
X169485000Y-81515000D02*
X169485000Y-95485000D01*
X169485000Y-95485000D02*
X155515000Y-95485000D01*
%TO.C,SW4*%
X155515000Y-106515000D02*
X169485000Y-106515000D01*
X155515000Y-120485000D02*
X155515000Y-106515000D01*
X169485000Y-106515000D02*
X169485000Y-120485000D01*
X169485000Y-120485000D02*
X155515000Y-120485000D01*
%TD*%
M02*
