%TF.GenerationSoftware,KiCad,Pcbnew,10.0.5-10.0.5~ubuntu26.04.1*%
%TF.CreationDate,2026-08-21T16:43:02+01:00*%
%TF.ProjectId,astrapad,61737472-6170-4616-942e-6b696361645f,rev?*%
%TF.SameCoordinates,Original*%
%TF.FileFunction,Copper,L1,Top*%
%TF.FilePolarity,Positive*%
%FSLAX46Y46*%
G04 Gerber Fmt 4.6, Leading zero omitted, Abs format (unit mm)*
G04 Created by KiCad (PCBNEW 10.0.5-10.0.5~ubuntu26.04.1) date 2026-08-21 16:43:02*
%MOMM*%
%LPD*%
G01*
G04 APERTURE LIST*
%TA.AperFunction,ComponentPad*%
%ADD10C,2.200000*%
%TD*%
%TA.AperFunction,ComponentPad*%
%ADD11R,1.700000X1.700000*%
%TD*%
%TA.AperFunction,ComponentPad*%
%ADD12C,1.700000*%
%TD*%
%TA.AperFunction,ComponentPad*%
%ADD13R,2.000000X2.000000*%
%TD*%
%TA.AperFunction,ComponentPad*%
%ADD14C,2.000000*%
%TD*%
%TA.AperFunction,ComponentPad*%
%ADD15R,3.200000X2.000000*%
%TD*%
%TA.AperFunction,ComponentPad*%
%ADD16R,1.700000X3.500000*%
%TD*%
%TA.AperFunction,ComponentPad*%
%ADD17O,1.700000X3.600000*%
%TD*%
%TA.AperFunction,ComponentPad*%
%ADD18O,1.700000X3.700000*%
%TD*%
%TA.AperFunction,Conductor*%
%ADD19C,0.200000*%
%TD*%
G04 APERTURE END LIST*
D10*
%TO.P,SW3,1,1_1*%
%TO.N,GND*%
X144040000Y-108420000D03*
%TO.P,SW3,2,2_2*%
%TO.N,Net-(U1-PA10_A2_D2)*%
X137690000Y-110960000D03*
%TD*%
%TO.P,SW1,1,1_1*%
%TO.N,GND*%
X144040000Y-83420000D03*
%TO.P,SW1,2,2_2*%
%TO.N,Net-(U1-PA02_A0_D0)*%
X137690000Y-85960000D03*
%TD*%
D11*
%TO.P,OLED1,1,Pin_1_1*%
%TO.N,GND*%
X111500000Y-78500000D03*
D12*
%TO.P,OLED1,2,Pin_2_2*%
%TO.N,/VCC*%
X114040000Y-78500000D03*
%TO.P,OLED1,3,Pin_3_3*%
%TO.N,/SCL*%
X116580000Y-78500000D03*
%TO.P,OLED1,4,Pin_4_4*%
%TO.N,/SDA*%
X119120000Y-78500000D03*
%TD*%
D13*
%TO.P,ROT2,A,A_A*%
%TO.N,/ROT2_A*%
X177250000Y-108500000D03*
D14*
%TO.P,ROT2,B,B_B*%
%TO.N,/ROT2_B*%
X177250000Y-113500000D03*
%TO.P,ROT2,C,C_C*%
%TO.N,GND*%
X177250000Y-111000000D03*
D15*
%TO.P,ROT2,MP*%
%TO.N,N/C*%
X184750000Y-105400000D03*
X184750000Y-116600000D03*
D14*
%TO.P,ROT2,S1,S1_S1*%
%TO.N,unconnected-(ROT2-PadS1)*%
X191750000Y-113500000D03*
%TO.P,ROT2,S2,S2_S2*%
%TO.N,GND*%
X191750000Y-108500000D03*
%TD*%
D16*
%TO.P,U1,1,PA02_A0_D0_1*%
%TO.N,Net-(U1-PA02_A0_D0)*%
X110592015Y-116735500D03*
D17*
%TO.P,U1,2,PA4_A1_D1_2*%
%TO.N,Net-(U1-PA4_A1_D1)*%
X113132015Y-116735500D03*
%TO.P,U1,3,PA10_A2_D2_3*%
%TO.N,Net-(U1-PA10_A2_D2)*%
X115672015Y-116735500D03*
%TO.P,U1,4,PA11_A3_D3_4*%
%TO.N,Net-(U1-PA11_A3_D3)*%
X118212015Y-116735500D03*
%TO.P,U1,5,PA8_A4_D4_SDA_5*%
%TO.N,/SDA*%
X120752015Y-116735500D03*
%TO.P,U1,6,PA9_A5_D5_SCL_6*%
%TO.N,/SCL*%
X123292015Y-116735500D03*
%TO.P,U1,7,PB08_A6_D6_TX_7*%
%TO.N,/ROT1_A*%
X125832015Y-116735500D03*
%TO.P,U1,8,PB09_A7_D7_RX_8*%
%TO.N,/ROT1_B*%
X125832015Y-99485500D03*
%TO.P,U1,9,PA7_A8_D8_SCK_9*%
%TO.N,/ROT1_S*%
X123292015Y-99485500D03*
%TO.P,U1,10,PA5_A9_D9_MISO_10*%
%TO.N,/ROT2_A*%
X120752015Y-99485500D03*
D18*
%TO.P,U1,11,PA6_A10_D10_MOSI_11*%
%TO.N,/ROT2_B*%
X118212015Y-99485500D03*
%TO.P,U1,12,3V3_12*%
%TO.N,/VCC*%
X115672015Y-99485500D03*
%TO.P,U1,13,GND_13*%
%TO.N,GND*%
X113132015Y-99485500D03*
%TO.P,U1,14,5V_14*%
%TO.N,unconnected-(U1-5V-Pad14)*%
X110592015Y-99485500D03*
%TD*%
D13*
%TO.P,ROT1,A,A_A*%
%TO.N,/ROT1_A*%
X177250000Y-88500000D03*
D14*
%TO.P,ROT1,B,B_B*%
%TO.N,/ROT1_B*%
X177250000Y-93500000D03*
%TO.P,ROT1,C,C_C*%
%TO.N,GND*%
X177250000Y-91000000D03*
D15*
%TO.P,ROT1,MP*%
%TO.N,N/C*%
X184750000Y-85400000D03*
X184750000Y-96600000D03*
D14*
%TO.P,ROT1,S1,S1_S1*%
%TO.N,/ROT1_S*%
X191750000Y-93500000D03*
%TO.P,ROT1,S2,S2_S2*%
%TO.N,GND*%
X191750000Y-88500000D03*
%TD*%
D10*
%TO.P,SW2,1,1_1*%
%TO.N,GND*%
X165040000Y-83420000D03*
%TO.P,SW2,2,2_2*%
%TO.N,Net-(U1-PA4_A1_D1)*%
X158690000Y-85960000D03*
%TD*%
%TO.P,SW4,1,1_1*%
%TO.N,GND*%
X165040000Y-108420000D03*
%TO.P,SW4,2,2_2*%
%TO.N,Net-(U1-PA11_A3_D3)*%
X158690000Y-110960000D03*
%TD*%
%TO.N,GND*%
D19*
X179000000Y-111000000D02*
X179500000Y-110500000D01*
X177250000Y-111000000D02*
X179000000Y-111000000D01*
%TO.N,/ROT2_B*%
X118212015Y-100485500D02*
X119726515Y-102000000D01*
X119726515Y-102000000D02*
X169500000Y-102000000D01*
X169500000Y-102000000D02*
X175950000Y-108450000D01*
X175950000Y-108450000D02*
X175950000Y-112200000D01*
X175950000Y-112200000D02*
X177250000Y-113500000D01*
%TO.N,GND*%
X113132015Y-100485500D02*
X113132015Y-96132015D01*
X113000000Y-96000000D02*
X113132015Y-96132015D01*
X111500000Y-81500000D02*
X112500000Y-81500000D01*
X111500000Y-78500000D02*
X111500000Y-81500000D01*
%TO.N,/ROT1_B*%
X180500000Y-86450000D02*
X180500000Y-92000000D01*
X182950000Y-84000000D02*
X180500000Y-86450000D01*
X180500000Y-92000000D02*
X179000000Y-93500000D01*
X180934314Y-76000000D02*
X186000000Y-81065686D01*
X164000000Y-76000000D02*
X180934314Y-76000000D01*
X163640000Y-83999899D02*
X163640000Y-76360000D01*
X165400000Y-85759899D02*
X163640000Y-83999899D01*
X165400000Y-92377056D02*
X165400000Y-85759899D01*
X186000000Y-84000000D02*
X182950000Y-84000000D01*
X186000000Y-81065686D02*
X186000000Y-84000000D01*
X163640000Y-76360000D02*
X164000000Y-76000000D01*
X157291556Y-100485500D02*
X165400000Y-92377056D01*
X179000000Y-93500000D02*
X177250000Y-93500000D01*
X125832015Y-100485500D02*
X157291556Y-100485500D01*
%TO.N,/ROT1_S*%
X123292015Y-100485500D02*
X123292015Y-99449154D01*
X165000000Y-87000000D02*
X163000000Y-85000000D01*
X186650000Y-81150000D02*
X186650000Y-88400000D01*
X123292015Y-99449154D02*
X125355669Y-97385500D01*
X125355669Y-97385500D02*
X156937902Y-97385500D01*
X156937902Y-97385500D02*
X165000000Y-89323402D01*
X165000000Y-89323402D02*
X165000000Y-87000000D01*
X163000000Y-85000000D02*
X163000000Y-75500000D01*
X163000000Y-75500000D02*
X181000000Y-75500000D01*
X181000000Y-75500000D02*
X186650000Y-81150000D01*
X186650000Y-88400000D02*
X191750000Y-93500000D01*
%TO.N,/VCC*%
X109500000Y-114000000D02*
X109500000Y-101500000D01*
X108100000Y-118009171D02*
X109276330Y-119185500D01*
X110000000Y-114500000D02*
X109500000Y-114000000D01*
X113472861Y-114500000D02*
X110000000Y-114500000D01*
X114282015Y-115309154D02*
X113472861Y-114500000D01*
X114282015Y-118161846D02*
X114282015Y-115309154D01*
X109276330Y-119185500D02*
X113258361Y-119185500D01*
X114040000Y-78500000D02*
X116000000Y-76540000D01*
X113258361Y-119185500D02*
X114282015Y-118161846D01*
X108100000Y-79600000D02*
X108100000Y-118009171D01*
X111200000Y-76500000D02*
X108100000Y-79600000D01*
X116000000Y-76500000D02*
X111200000Y-76500000D01*
X109635500Y-101635500D02*
X114522015Y-101635500D01*
X116000000Y-76540000D02*
X116000000Y-76500000D01*
X109500000Y-101500000D02*
X109635500Y-101635500D01*
X114522015Y-101635500D02*
X115672015Y-100485500D01*
%TO.N,/ROT1_A*%
X186600000Y-117900000D02*
X187000000Y-117500000D01*
X127996515Y-117900000D02*
X186600000Y-117900000D01*
X183138478Y-100588478D02*
X174100000Y-100588478D01*
X125832015Y-115735500D02*
X127996515Y-117900000D01*
X187000000Y-117500000D02*
X187000000Y-104450000D01*
X187000000Y-104450000D02*
X183138478Y-100588478D01*
%TO.N,/ROT2_A*%
X120752015Y-100485500D02*
X121852015Y-101585500D01*
X121852015Y-101585500D02*
X170335500Y-101585500D01*
X170335500Y-101585500D02*
X177250000Y-108500000D01*
%TO.N,/ROT1_A*%
X174100000Y-100588478D02*
X174100000Y-91650000D01*
X174100000Y-91650000D02*
X177250000Y-88500000D01*
%TO.N,Net-(U1-PA11_A3_D3)*%
X158690000Y-110960000D02*
X139669899Y-110960000D01*
X139669899Y-110960000D02*
X138203376Y-112426523D01*
X138203376Y-112426523D02*
X137043578Y-112426523D01*
X135922944Y-112300000D02*
X134722944Y-113500000D01*
X137043578Y-112426523D02*
X136917056Y-112300000D01*
X134722944Y-113500000D02*
X120447515Y-113500000D01*
X136917056Y-112300000D02*
X135922944Y-112300000D01*
X120447515Y-113500000D02*
X118212015Y-115735500D01*
%TO.N,/SCL*%
X116580000Y-78500000D02*
X117730000Y-79650000D01*
X117730000Y-79650000D02*
X119596346Y-79650000D01*
X119596346Y-79650000D02*
X120270000Y-78976346D01*
X120270000Y-78976346D02*
X120270000Y-78023654D01*
X120270000Y-78023654D02*
X117446346Y-75200000D01*
X117446346Y-75200000D02*
X111168629Y-75200000D01*
X111168629Y-75200000D02*
X107300000Y-79068630D01*
X107300000Y-79068630D02*
X107300000Y-118340542D01*
X123292015Y-117207985D02*
X123292015Y-115735500D01*
X107300000Y-118340542D02*
X108944958Y-119985500D01*
X108944958Y-119985500D02*
X120514500Y-119985500D01*
X120514500Y-119985500D02*
X123292015Y-117207985D01*
%TO.N,/SDA*%
X120752015Y-115735500D02*
X120752015Y-116771846D01*
X120752015Y-116771846D02*
X117938361Y-119585500D01*
X117938361Y-119585500D02*
X109110644Y-119585500D01*
X107700000Y-79234315D02*
X111334315Y-75600000D01*
X109110644Y-119585500D02*
X107700000Y-118174856D01*
X107700000Y-118174856D02*
X107700000Y-79234315D01*
X111334315Y-75600000D02*
X116220000Y-75600000D01*
X116220000Y-75600000D02*
X119120000Y-78500000D01*
%TO.N,Net-(U1-PA10_A2_D2)*%
X133450002Y-113000000D02*
X118000000Y-113000000D01*
X135490002Y-110960000D02*
X133450002Y-113000000D01*
X137690000Y-110960000D02*
X135490002Y-110960000D01*
X118000000Y-113000000D02*
X118000000Y-113407515D01*
X118000000Y-113407515D02*
X115672015Y-115735500D01*
%TO.N,GND*%
X165040000Y-108420000D02*
X164580000Y-108420000D01*
X164000000Y-109000000D02*
X163000000Y-108000000D01*
X164580000Y-108420000D02*
X164000000Y-109000000D01*
%TO.N,Net-(U1-PA4_A1_D1)*%
X158690000Y-85960000D02*
X139669899Y-85960000D01*
X109442015Y-118785500D02*
X111742015Y-118785500D01*
X139669899Y-85960000D02*
X137309899Y-83600000D01*
X137309899Y-83600000D02*
X117334314Y-83600000D01*
X117334314Y-83600000D02*
X108500000Y-92434314D01*
X108500000Y-92434314D02*
X108500000Y-117843485D01*
X108500000Y-117843485D02*
X109442015Y-118785500D01*
X111742015Y-118785500D02*
X113132015Y-117395500D01*
X113132015Y-117395500D02*
X113132015Y-115735500D01*
%TO.N,Net-(U1-PA02_A0_D0)*%
X137690000Y-85960000D02*
X135730000Y-84000000D01*
X135730000Y-84000000D02*
X117500000Y-84000000D01*
X117500000Y-84000000D02*
X109000000Y-92500000D01*
X109000000Y-92500000D02*
X109000000Y-114143485D01*
X109000000Y-114143485D02*
X110592015Y-115735500D01*
%TO.N,GND*%
X167120000Y-85500000D02*
X168000000Y-85500000D01*
X144040000Y-108420000D02*
X145420000Y-108420000D01*
X146500000Y-109500000D02*
X146000000Y-110000000D01*
X165040000Y-83420000D02*
X167120000Y-85500000D01*
X191750000Y-86250000D02*
X192500000Y-85500000D01*
X191750000Y-109750000D02*
X192500000Y-110500000D01*
X191750000Y-88500000D02*
X191750000Y-86250000D01*
X145420000Y-108420000D02*
X146500000Y-109500000D01*
X191750000Y-108500000D02*
X191750000Y-109750000D01*
%TO.N,Net-(U1-PA02_A0_D0)*%
X109728154Y-118252015D02*
X110764500Y-118252015D01*
%TD*%
%TA.AperFunction,Conductor*%
%TO.N,GND*%
G36*
X194443039Y-74019685D02*
G01*
X194488794Y-74072489D01*
X194500000Y-74124000D01*
X194500000Y-126876000D01*
X194480315Y-126943039D01*
X194427511Y-126988794D01*
X194376000Y-127000000D01*
X106624000Y-127000000D01*
X106556961Y-126980315D01*
X106511206Y-126927511D01*
X106500000Y-126876000D01*
X106500000Y-123878711D01*
X118649500Y-123878711D01*
X118649500Y-124121288D01*
X118681161Y-124361785D01*
X118743947Y-124596104D01*
X118836773Y-124820205D01*
X118836776Y-124820212D01*
X118958064Y-125030289D01*
X118958066Y-125030292D01*
X118958067Y-125030293D01*
X119105733Y-125222736D01*
X119105739Y-125222743D01*
X119277256Y-125394260D01*
X119277262Y-125394265D01*
X119469711Y-125541936D01*
X119679788Y-125663224D01*
X119903900Y-125756054D01*
X120138211Y-125818838D01*
X120318586Y-125842584D01*
X120378711Y-125850500D01*
X120378712Y-125850500D01*
X120621289Y-125850500D01*
X120669388Y-125844167D01*
X120861789Y-125818838D01*
X121096100Y-125756054D01*
X121320212Y-125663224D01*
X121530289Y-125541936D01*
X121722738Y-125394265D01*
X121894265Y-125222738D01*
X122041936Y-125030289D01*
X122163224Y-124820212D01*
X122256054Y-124596100D01*
X122318838Y-124361789D01*
X122350500Y-124121288D01*
X122350500Y-123878712D01*
X122318838Y-123638211D01*
X122256054Y-123403900D01*
X122163224Y-123179788D01*
X122041936Y-122969711D01*
X121894265Y-122777262D01*
X121894260Y-122777256D01*
X121722743Y-122605739D01*
X121722736Y-122605733D01*
X121549792Y-122473029D01*
X121530293Y-122458067D01*
X121530292Y-122458066D01*
X121530289Y-122458064D01*
X121392846Y-122378711D01*
X187149500Y-122378711D01*
X187149500Y-122621288D01*
X187181161Y-122861785D01*
X187243947Y-123096104D01*
X187278613Y-123179794D01*
X187336776Y-123320212D01*
X187458064Y-123530289D01*
X187458066Y-123530292D01*
X187458067Y-123530293D01*
X187605733Y-123722736D01*
X187605739Y-123722743D01*
X187777256Y-123894260D01*
X187777262Y-123894265D01*
X187969711Y-124041936D01*
X188179788Y-124163224D01*
X188403900Y-124256054D01*
X188638211Y-124318838D01*
X188818586Y-124342584D01*
X188878711Y-124350500D01*
X188878712Y-124350500D01*
X189121289Y-124350500D01*
X189169388Y-124344167D01*
X189361789Y-124318838D01*
X189596100Y-124256054D01*
X189820212Y-124163224D01*
X190030289Y-124041936D01*
X190222738Y-123894265D01*
X190394265Y-123722738D01*
X190541936Y-123530289D01*
X190663224Y-123320212D01*
X190756054Y-123096100D01*
X190818838Y-122861789D01*
X190850500Y-122621288D01*
X190850500Y-122378712D01*
X190818838Y-122138211D01*
X190756054Y-121903900D01*
X190663224Y-121679788D01*
X190541936Y-121469711D01*
X190394265Y-121277262D01*
X190394260Y-121277256D01*
X190222743Y-121105739D01*
X190222736Y-121105733D01*
X190030293Y-120958067D01*
X190030292Y-120958066D01*
X190030289Y-120958064D01*
X189820212Y-120836776D01*
X189820205Y-120836773D01*
X189596104Y-120743947D01*
X189361785Y-120681161D01*
X189121289Y-120649500D01*
X189121288Y-120649500D01*
X188878712Y-120649500D01*
X188878711Y-120649500D01*
X188638214Y-120681161D01*
X188403895Y-120743947D01*
X188179794Y-120836773D01*
X188179785Y-120836777D01*
X187969706Y-120958067D01*
X187777263Y-121105733D01*
X187777256Y-121105739D01*
X187605739Y-121277256D01*
X187605733Y-121277263D01*
X187458067Y-121469706D01*
X187336777Y-121679785D01*
X187336773Y-121679794D01*
X187243947Y-121903895D01*
X187181161Y-122138214D01*
X187149500Y-122378711D01*
X121392846Y-122378711D01*
X121320212Y-122336776D01*
X121320205Y-122336773D01*
X121096104Y-122243947D01*
X120861785Y-122181161D01*
X120621289Y-122149500D01*
X120621288Y-122149500D01*
X120378712Y-122149500D01*
X120378711Y-122149500D01*
X120138214Y-122181161D01*
X119903895Y-122243947D01*
X119679794Y-122336773D01*
X119679785Y-122336777D01*
X119469706Y-122458067D01*
X119277263Y-122605733D01*
X119277256Y-122605739D01*
X119105739Y-122777256D01*
X119105733Y-122777263D01*
X118958067Y-122969706D01*
X118836777Y-123179785D01*
X118836773Y-123179794D01*
X118743947Y-123403895D01*
X118681161Y-123638214D01*
X118649500Y-123878711D01*
X106500000Y-123878711D01*
X106500000Y-118615284D01*
X106519685Y-118548245D01*
X106572489Y-118502490D01*
X106641647Y-118492546D01*
X106705203Y-118521571D01*
X106738561Y-118567832D01*
X106740421Y-118572323D01*
X106747741Y-118585001D01*
X106747741Y-118585002D01*
X106819477Y-118709254D01*
X106819481Y-118709259D01*
X106938349Y-118828127D01*
X106938355Y-118828132D01*
X108460097Y-120349874D01*
X108460107Y-120349885D01*
X108464437Y-120354215D01*
X108464438Y-120354216D01*
X108576242Y-120466020D01*
X108663053Y-120516139D01*
X108663055Y-120516141D01*
X108701109Y-120538111D01*
X108713173Y-120545077D01*
X108865901Y-120586001D01*
X108865904Y-120586001D01*
X109031611Y-120586001D01*
X109031627Y-120586000D01*
X120427831Y-120586000D01*
X120427847Y-120586001D01*
X120435443Y-120586001D01*
X120593554Y-120586001D01*
X120593557Y-120586001D01*
X120746285Y-120545077D01*
X120796404Y-120516139D01*
X120883216Y-120466020D01*
X120995020Y-120354216D01*
X120995020Y-120354214D01*
X121005228Y-120344007D01*
X121005230Y-120344004D01*
X122470470Y-118878763D01*
X122531791Y-118845280D01*
X122601483Y-118850264D01*
X122614435Y-118855957D01*
X122773603Y-118937057D01*
X122975772Y-119002746D01*
X123185728Y-119036000D01*
X123185729Y-119036000D01*
X123398301Y-119036000D01*
X123398302Y-119036000D01*
X123608258Y-119002746D01*
X123810427Y-118937057D01*
X123999831Y-118840551D01*
X124026654Y-118821063D01*
X124171801Y-118715609D01*
X124171803Y-118715606D01*
X124171807Y-118715604D01*
X124322119Y-118565292D01*
X124322119Y-118565291D01*
X124322122Y-118565289D01*
X124322124Y-118565286D01*
X124447063Y-118393320D01*
X124447062Y-118393320D01*
X124447066Y-118393316D01*
X124451529Y-118384554D01*
X124499503Y-118333759D01*
X124567323Y-118316963D01*
X124633459Y-118339499D01*
X124672501Y-118384556D01*
X124676966Y-118393320D01*
X124801905Y-118565286D01*
X124952228Y-118715609D01*
X125124194Y-118840548D01*
X125124196Y-118840549D01*
X125124199Y-118840551D01*
X125313603Y-118937057D01*
X125515772Y-119002746D01*
X125725728Y-119036000D01*
X125725729Y-119036000D01*
X125938301Y-119036000D01*
X125938302Y-119036000D01*
X126148258Y-119002746D01*
X126350427Y-118937057D01*
X126539831Y-118840551D01*
X126566654Y-118821063D01*
X126711801Y-118715609D01*
X126711803Y-118715606D01*
X126711807Y-118715604D01*
X126862119Y-118565292D01*
X126862119Y-118565291D01*
X126862122Y-118565289D01*
X126862124Y-118565286D01*
X126987063Y-118393320D01*
X126987062Y-118393320D01*
X126987066Y-118393316D01*
X127083572Y-118203912D01*
X127111197Y-118118889D01*
X127150633Y-118061216D01*
X127214991Y-118034017D01*
X127283838Y-118045931D01*
X127316808Y-118069528D01*
X127511654Y-118264374D01*
X127511664Y-118264385D01*
X127515994Y-118268715D01*
X127515995Y-118268716D01*
X127627799Y-118380520D01*
X127695488Y-118419599D01*
X127714610Y-118430639D01*
X127714612Y-118430641D01*
X127764728Y-118459576D01*
X127764730Y-118459577D01*
X127917457Y-118500500D01*
X127917458Y-118500500D01*
X186513331Y-118500500D01*
X186513347Y-118500501D01*
X186520943Y-118500501D01*
X186679054Y-118500501D01*
X186679057Y-118500501D01*
X186831785Y-118459577D01*
X186881904Y-118430639D01*
X186968716Y-118380520D01*
X187080520Y-118268716D01*
X187080520Y-118268714D01*
X187090728Y-118258507D01*
X187090730Y-118258504D01*
X187358506Y-117990728D01*
X187358511Y-117990724D01*
X187368714Y-117980520D01*
X187368716Y-117980520D01*
X187480520Y-117868716D01*
X187559577Y-117731784D01*
X187600500Y-117579057D01*
X187600500Y-113381902D01*
X190249500Y-113381902D01*
X190249500Y-113618097D01*
X190286446Y-113851368D01*
X190359433Y-114075996D01*
X190466657Y-114286433D01*
X190605483Y-114477510D01*
X190772490Y-114644517D01*
X190963567Y-114783343D01*
X191013068Y-114808565D01*
X191174003Y-114890566D01*
X191174005Y-114890566D01*
X191174008Y-114890568D01*
X191294412Y-114929689D01*
X191398631Y-114963553D01*
X191631903Y-115000500D01*
X191631908Y-115000500D01*
X191868097Y-115000500D01*
X192101368Y-114963553D01*
X192325992Y-114890568D01*
X192536433Y-114783343D01*
X192727510Y-114644517D01*
X192894517Y-114477510D01*
X193033343Y-114286433D01*
X193140568Y-114075992D01*
X193213553Y-113851368D01*
X193220786Y-113805703D01*
X193250500Y-113618097D01*
X193250500Y-113381902D01*
X193213553Y-113148631D01*
X193160743Y-112986100D01*
X193140568Y-112924008D01*
X193140566Y-112924005D01*
X193140566Y-112924003D01*
X193069752Y-112785024D01*
X193033343Y-112713567D01*
X192894517Y-112522490D01*
X192727510Y-112355483D01*
X192536433Y-112216657D01*
X192325996Y-112109433D01*
X192101368Y-112036446D01*
X191868097Y-111999500D01*
X191868092Y-111999500D01*
X191631908Y-111999500D01*
X191631903Y-111999500D01*
X191398631Y-112036446D01*
X191174003Y-112109433D01*
X190963566Y-112216657D01*
X190930455Y-112240714D01*
X190772490Y-112355483D01*
X190772488Y-112355485D01*
X190772487Y-112355485D01*
X190605485Y-112522487D01*
X190605485Y-112522488D01*
X190605483Y-112522490D01*
X190577867Y-112560500D01*
X190466657Y-112713566D01*
X190359433Y-112924003D01*
X190286446Y-113148631D01*
X190249500Y-113381902D01*
X187600500Y-113381902D01*
X187600500Y-108381947D01*
X190250000Y-108381947D01*
X190250000Y-108618052D01*
X190286934Y-108851247D01*
X190359897Y-109075802D01*
X190467087Y-109286174D01*
X190527338Y-109369104D01*
X190527340Y-109369105D01*
X191267037Y-108629408D01*
X191284075Y-108692993D01*
X191349901Y-108807007D01*
X191442993Y-108900099D01*
X191557007Y-108965925D01*
X191620590Y-108982962D01*
X190880893Y-109722658D01*
X190963828Y-109782914D01*
X191174197Y-109890102D01*
X191398752Y-109963065D01*
X191398751Y-109963065D01*
X191631948Y-110000000D01*
X191868052Y-110000000D01*
X192101247Y-109963065D01*
X192325802Y-109890102D01*
X192536163Y-109782918D01*
X192536169Y-109782914D01*
X192619104Y-109722658D01*
X192619105Y-109722658D01*
X191879408Y-108982962D01*
X191942993Y-108965925D01*
X192057007Y-108900099D01*
X192150099Y-108807007D01*
X192215925Y-108692993D01*
X192232962Y-108629408D01*
X192972658Y-109369105D01*
X192972658Y-109369104D01*
X193032914Y-109286169D01*
X193032918Y-109286163D01*
X193140102Y-109075802D01*
X193213065Y-108851247D01*
X193250000Y-108618052D01*
X193250000Y-108381947D01*
X193213065Y-108148752D01*
X193140102Y-107924197D01*
X193032914Y-107713828D01*
X192972658Y-107630894D01*
X192972658Y-107630893D01*
X192232962Y-108370590D01*
X192215925Y-108307007D01*
X192150099Y-108192993D01*
X192057007Y-108099901D01*
X191942993Y-108034075D01*
X191879409Y-108017037D01*
X192619105Y-107277340D01*
X192619104Y-107277338D01*
X192536174Y-107217087D01*
X192325802Y-107109897D01*
X192101247Y-107036934D01*
X192101248Y-107036934D01*
X191868052Y-107000000D01*
X191631948Y-107000000D01*
X191398752Y-107036934D01*
X191174197Y-107109897D01*
X190963830Y-107217084D01*
X190880894Y-107277340D01*
X191620591Y-108017037D01*
X191557007Y-108034075D01*
X191442993Y-108099901D01*
X191349901Y-108192993D01*
X191284075Y-108307007D01*
X191267037Y-108370590D01*
X190527340Y-107630894D01*
X190467084Y-107713830D01*
X190359897Y-107924197D01*
X190286934Y-108148752D01*
X190250000Y-108381947D01*
X187600500Y-108381947D01*
X187600500Y-104539060D01*
X187600501Y-104539047D01*
X187600501Y-104370945D01*
X187600501Y-104370943D01*
X187559577Y-104218215D01*
X187480520Y-104081284D01*
X183626067Y-100226832D01*
X183626066Y-100226830D01*
X183507195Y-100107959D01*
X183507194Y-100107958D01*
X183420382Y-100057838D01*
X183420382Y-100057837D01*
X183420378Y-100057836D01*
X183370263Y-100028901D01*
X183217535Y-99987977D01*
X183059421Y-99987977D01*
X183051825Y-99987977D01*
X183051809Y-99987978D01*
X174824500Y-99987978D01*
X174757461Y-99968293D01*
X174711706Y-99915489D01*
X174700500Y-99863978D01*
X174700500Y-95552135D01*
X182649500Y-95552135D01*
X182649500Y-97647870D01*
X182649501Y-97647876D01*
X182655908Y-97707483D01*
X182706202Y-97842328D01*
X182706206Y-97842335D01*
X182792452Y-97957544D01*
X182792455Y-97957547D01*
X182907664Y-98043793D01*
X182907671Y-98043797D01*
X183042517Y-98094091D01*
X183042516Y-98094091D01*
X183049444Y-98094835D01*
X183102127Y-98100500D01*
X186397872Y-98100499D01*
X186457483Y-98094091D01*
X186592331Y-98043796D01*
X186707546Y-97957546D01*
X186793796Y-97842331D01*
X186844091Y-97707483D01*
X186850500Y-97647873D01*
X186850499Y-95552128D01*
X186844091Y-95492517D01*
X186793796Y-95357669D01*
X186793795Y-95357668D01*
X186793793Y-95357664D01*
X186707547Y-95242455D01*
X186707544Y-95242452D01*
X186592335Y-95156206D01*
X186592328Y-95156202D01*
X186457482Y-95105908D01*
X186457483Y-95105908D01*
X186397883Y-95099501D01*
X186397881Y-95099500D01*
X186397873Y-95099500D01*
X186397864Y-95099500D01*
X183102129Y-95099500D01*
X183102123Y-95099501D01*
X183042516Y-95105908D01*
X182907671Y-95156202D01*
X182907664Y-95156206D01*
X182792455Y-95242452D01*
X182792452Y-95242455D01*
X182706206Y-95357664D01*
X182706202Y-95357671D01*
X182655908Y-95492517D01*
X182649501Y-95552116D01*
X182649501Y-95552123D01*
X182649500Y-95552135D01*
X174700500Y-95552135D01*
X174700500Y-91950096D01*
X174720185Y-91883057D01*
X174736814Y-91862420D01*
X175541162Y-91058072D01*
X175602484Y-91024588D01*
X175672176Y-91029572D01*
X175728109Y-91071444D01*
X175751315Y-91126356D01*
X175786934Y-91351247D01*
X175859897Y-91575802D01*
X175967087Y-91786174D01*
X176027338Y-91869104D01*
X176027340Y-91869105D01*
X176767037Y-91129408D01*
X176784075Y-91192993D01*
X176849901Y-91307007D01*
X176942993Y-91400099D01*
X177057007Y-91465925D01*
X177120590Y-91482962D01*
X176374280Y-92229271D01*
X176365105Y-92272947D01*
X176328739Y-92314615D01*
X176272490Y-92355482D01*
X176105485Y-92522487D01*
X176105485Y-92522488D01*
X176105483Y-92522490D01*
X176045862Y-92604550D01*
X175966657Y-92713566D01*
X175859433Y-92924003D01*
X175786446Y-93148631D01*
X175749500Y-93381902D01*
X175749500Y-93618097D01*
X175786446Y-93851368D01*
X175859433Y-94075996D01*
X175966657Y-94286433D01*
X176105483Y-94477510D01*
X176272490Y-94644517D01*
X176463567Y-94783343D01*
X176562991Y-94834002D01*
X176674003Y-94890566D01*
X176674005Y-94890566D01*
X176674008Y-94890568D01*
X176794412Y-94929689D01*
X176898631Y-94963553D01*
X177131903Y-95000500D01*
X177131908Y-95000500D01*
X177368097Y-95000500D01*
X177601368Y-94963553D01*
X177825992Y-94890568D01*
X178036433Y-94783343D01*
X178227510Y-94644517D01*
X178394517Y-94477510D01*
X178533343Y-94286433D01*
X178593583Y-94168204D01*
X178641558Y-94117409D01*
X178704068Y-94100500D01*
X178913331Y-94100500D01*
X178913347Y-94100501D01*
X178920943Y-94100501D01*
X179079054Y-94100501D01*
X179079057Y-94100501D01*
X179231785Y-94059577D01*
X179281904Y-94030639D01*
X179368716Y-93980520D01*
X179480520Y-93868716D01*
X179480520Y-93868714D01*
X179490728Y-93858507D01*
X179490730Y-93858504D01*
X180858506Y-92490728D01*
X180858511Y-92490724D01*
X180868714Y-92480520D01*
X180868716Y-92480520D01*
X180980520Y-92368716D01*
X181059577Y-92231784D01*
X181100500Y-92079057D01*
X181100500Y-86750096D01*
X181120185Y-86683057D01*
X181136814Y-86662420D01*
X182437821Y-85361412D01*
X182499142Y-85327929D01*
X182568834Y-85332913D01*
X182624767Y-85374785D01*
X182649184Y-85440249D01*
X182649500Y-85449095D01*
X182649500Y-86447870D01*
X182649501Y-86447876D01*
X182655908Y-86507483D01*
X182706202Y-86642328D01*
X182706206Y-86642335D01*
X182792452Y-86757544D01*
X182792455Y-86757547D01*
X182907664Y-86843793D01*
X182907671Y-86843797D01*
X183042517Y-86894091D01*
X183042516Y-86894091D01*
X183049444Y-86894835D01*
X183102127Y-86900500D01*
X185925500Y-86900499D01*
X185992539Y-86920184D01*
X186038294Y-86972987D01*
X186049500Y-87024499D01*
X186049500Y-88313330D01*
X186049499Y-88313348D01*
X186049499Y-88479054D01*
X186049498Y-88479054D01*
X186090423Y-88631786D01*
X186099499Y-88647504D01*
X186099501Y-88647509D01*
X186169475Y-88768709D01*
X186169481Y-88768717D01*
X186288349Y-88887585D01*
X186288355Y-88887590D01*
X190297200Y-92896435D01*
X190330685Y-92957758D01*
X190327450Y-93022433D01*
X190286447Y-93148628D01*
X190249500Y-93381902D01*
X190249500Y-93618097D01*
X190286446Y-93851368D01*
X190359433Y-94075996D01*
X190466657Y-94286433D01*
X190605483Y-94477510D01*
X190772490Y-94644517D01*
X190963567Y-94783343D01*
X191062991Y-94834002D01*
X191174003Y-94890566D01*
X191174005Y-94890566D01*
X191174008Y-94890568D01*
X191294412Y-94929689D01*
X191398631Y-94963553D01*
X191631903Y-95000500D01*
X191631908Y-95000500D01*
X191868097Y-95000500D01*
X192101368Y-94963553D01*
X192325992Y-94890568D01*
X192536433Y-94783343D01*
X192727510Y-94644517D01*
X192894517Y-94477510D01*
X193033343Y-94286433D01*
X193140568Y-94075992D01*
X193213553Y-93851368D01*
X193250500Y-93618097D01*
X193250500Y-93381902D01*
X193213553Y-93148631D01*
X193151534Y-92957758D01*
X193140568Y-92924008D01*
X193140566Y-92924005D01*
X193140566Y-92924003D01*
X193051262Y-92748735D01*
X193033343Y-92713567D01*
X192894517Y-92522490D01*
X192727510Y-92355483D01*
X192536433Y-92216657D01*
X192325996Y-92109433D01*
X192101368Y-92036446D01*
X191868097Y-91999500D01*
X191868092Y-91999500D01*
X191631908Y-91999500D01*
X191631903Y-91999500D01*
X191398628Y-92036447D01*
X191272433Y-92077450D01*
X191202592Y-92079445D01*
X191146435Y-92047200D01*
X187481182Y-88381947D01*
X190250000Y-88381947D01*
X190250000Y-88618052D01*
X190286934Y-88851247D01*
X190359897Y-89075802D01*
X190467087Y-89286174D01*
X190527338Y-89369104D01*
X190527340Y-89369105D01*
X191267037Y-88629408D01*
X191284075Y-88692993D01*
X191349901Y-88807007D01*
X191442993Y-88900099D01*
X191557007Y-88965925D01*
X191620590Y-88982962D01*
X190880893Y-89722658D01*
X190963828Y-89782914D01*
X191174197Y-89890102D01*
X191398752Y-89963065D01*
X191398751Y-89963065D01*
X191631948Y-90000000D01*
X191868052Y-90000000D01*
X192101247Y-89963065D01*
X192325802Y-89890102D01*
X192536163Y-89782918D01*
X192536169Y-89782914D01*
X192619104Y-89722658D01*
X192619105Y-89722658D01*
X191879408Y-88982962D01*
X191942993Y-88965925D01*
X192057007Y-88900099D01*
X192150099Y-88807007D01*
X192215925Y-88692993D01*
X192232962Y-88629408D01*
X192972658Y-89369105D01*
X192972658Y-89369104D01*
X193032914Y-89286169D01*
X193032918Y-89286163D01*
X193140102Y-89075802D01*
X193213065Y-88851247D01*
X193250000Y-88618052D01*
X193250000Y-88381947D01*
X193213065Y-88148752D01*
X193140102Y-87924197D01*
X193032914Y-87713828D01*
X192972658Y-87630894D01*
X192972658Y-87630893D01*
X192232962Y-88370590D01*
X192215925Y-88307007D01*
X192150099Y-88192993D01*
X192057007Y-88099901D01*
X191942993Y-88034075D01*
X191879409Y-88017037D01*
X192619105Y-87277340D01*
X192619104Y-87277338D01*
X192536174Y-87217087D01*
X192325802Y-87109897D01*
X192101247Y-87036934D01*
X192101248Y-87036934D01*
X191868052Y-87000000D01*
X191631948Y-87000000D01*
X191398752Y-87036934D01*
X191174197Y-87109897D01*
X190963830Y-87217084D01*
X190880894Y-87277340D01*
X191620591Y-88017037D01*
X191557007Y-88034075D01*
X191442993Y-88099901D01*
X191349901Y-88192993D01*
X191284075Y-88307007D01*
X191267037Y-88370590D01*
X190527340Y-87630894D01*
X190467084Y-87713830D01*
X190359897Y-87924197D01*
X190286934Y-88148752D01*
X190250000Y-88381947D01*
X187481182Y-88381947D01*
X187286819Y-88187584D01*
X187253334Y-88126261D01*
X187250500Y-88099903D01*
X187250500Y-81239060D01*
X187250501Y-81239047D01*
X187250501Y-81070944D01*
X187209576Y-80918214D01*
X187209573Y-80918209D01*
X187130524Y-80781290D01*
X187130518Y-80781282D01*
X184811570Y-78462334D01*
X184727947Y-78378711D01*
X187149500Y-78378711D01*
X187149500Y-78621288D01*
X187181161Y-78861785D01*
X187243947Y-79096104D01*
X187336773Y-79320205D01*
X187336776Y-79320212D01*
X187458064Y-79530289D01*
X187458066Y-79530292D01*
X187458067Y-79530293D01*
X187605733Y-79722736D01*
X187605739Y-79722743D01*
X187777256Y-79894260D01*
X187777262Y-79894265D01*
X187969711Y-80041936D01*
X188179788Y-80163224D01*
X188403900Y-80256054D01*
X188638211Y-80318838D01*
X188818586Y-80342584D01*
X188878711Y-80350500D01*
X188878712Y-80350500D01*
X189121289Y-80350500D01*
X189169388Y-80344167D01*
X189361789Y-80318838D01*
X189596100Y-80256054D01*
X189820212Y-80163224D01*
X190030289Y-80041936D01*
X190222738Y-79894265D01*
X190394265Y-79722738D01*
X190541936Y-79530289D01*
X190663224Y-79320212D01*
X190756054Y-79096100D01*
X190818838Y-78861789D01*
X190850500Y-78621288D01*
X190850500Y-78378712D01*
X190818838Y-78138211D01*
X190756054Y-77903900D01*
X190663224Y-77679788D01*
X190541936Y-77469711D01*
X190394265Y-77277262D01*
X190394260Y-77277256D01*
X190222743Y-77105739D01*
X190222736Y-77105733D01*
X190030293Y-76958067D01*
X190030292Y-76958066D01*
X190030289Y-76958064D01*
X189820212Y-76836776D01*
X189820205Y-76836773D01*
X189596104Y-76743947D01*
X189361785Y-76681161D01*
X189121289Y-76649500D01*
X189121288Y-76649500D01*
X188878712Y-76649500D01*
X188878711Y-76649500D01*
X188638214Y-76681161D01*
X188403895Y-76743947D01*
X188179794Y-76836773D01*
X188179785Y-76836777D01*
X187969706Y-76958067D01*
X187777263Y-77105733D01*
X187777256Y-77105739D01*
X187605739Y-77277256D01*
X187605733Y-77277263D01*
X187458067Y-77469706D01*
X187336777Y-77679785D01*
X187336773Y-77679794D01*
X187243947Y-77903895D01*
X187181161Y-78138214D01*
X187149500Y-78378711D01*
X184727947Y-78378711D01*
X181487590Y-75138355D01*
X181487588Y-75138352D01*
X181368717Y-75019481D01*
X181368709Y-75019475D01*
X181279923Y-74968215D01*
X181279922Y-74968215D01*
X181231785Y-74940423D01*
X181079057Y-74899499D01*
X180920943Y-74899499D01*
X180913347Y-74899499D01*
X180913331Y-74899500D01*
X162920943Y-74899500D01*
X162768216Y-74940423D01*
X162768209Y-74940426D01*
X162631290Y-75019475D01*
X162631282Y-75019481D01*
X162519481Y-75131282D01*
X162519475Y-75131290D01*
X162440426Y-75268209D01*
X162440423Y-75268216D01*
X162399500Y-75420943D01*
X162399500Y-84913330D01*
X162399499Y-84913348D01*
X162399499Y-85079054D01*
X162399498Y-85079054D01*
X162399499Y-85079057D01*
X162426858Y-85181162D01*
X162440423Y-85231784D01*
X162440424Y-85231788D01*
X162467901Y-85279380D01*
X162467902Y-85279380D01*
X162519477Y-85368712D01*
X162519481Y-85368717D01*
X162638349Y-85487585D01*
X162638355Y-85487590D01*
X163294107Y-86143342D01*
X163327592Y-86204665D01*
X163322608Y-86274357D01*
X163280736Y-86330290D01*
X163215272Y-86354707D01*
X163174334Y-86350798D01*
X162939993Y-86288007D01*
X162891113Y-86281571D01*
X162647513Y-86249500D01*
X162647506Y-86249500D01*
X162352494Y-86249500D01*
X162352486Y-86249500D01*
X162074085Y-86286153D01*
X162060007Y-86288007D01*
X161775048Y-86364361D01*
X161775038Y-86364364D01*
X161502499Y-86477254D01*
X161502493Y-86477257D01*
X161247006Y-86624761D01*
X161012959Y-86804352D01*
X161012952Y-86804358D01*
X160804358Y-87012952D01*
X160804352Y-87012959D01*
X160624761Y-87247006D01*
X160477258Y-87502489D01*
X160477254Y-87502499D01*
X160364364Y-87775038D01*
X160364361Y-87775048D01*
X160294956Y-88034075D01*
X160288008Y-88060004D01*
X160288006Y-88060015D01*
X160249500Y-88352486D01*
X160249500Y-88647513D01*
X160270499Y-88807007D01*
X160288007Y-88939993D01*
X160362212Y-89216930D01*
X160364361Y-89224951D01*
X160364364Y-89224961D01*
X160477254Y-89497500D01*
X160477258Y-89497510D01*
X160624761Y-89752993D01*
X160804352Y-89987040D01*
X160804358Y-89987047D01*
X161012952Y-90195641D01*
X161012959Y-90195647D01*
X161247006Y-90375238D01*
X161502489Y-90522741D01*
X161502490Y-90522741D01*
X161502493Y-90522743D01*
X161775048Y-90635639D01*
X162060007Y-90711993D01*
X162352494Y-90750500D01*
X162352501Y-90750500D01*
X162424304Y-90750500D01*
X162491343Y-90770185D01*
X162537098Y-90822989D01*
X162547042Y-90892147D01*
X162518017Y-90955703D01*
X162511985Y-90962181D01*
X156725486Y-96748681D01*
X156664163Y-96782166D01*
X156637805Y-96785000D01*
X125276609Y-96785000D01*
X125235688Y-96795964D01*
X125235688Y-96795965D01*
X125198420Y-96805951D01*
X125123883Y-96825923D01*
X125123878Y-96825926D01*
X124986959Y-96904975D01*
X124986951Y-96904981D01*
X124366853Y-97525080D01*
X124305530Y-97558565D01*
X124235838Y-97553581D01*
X124191491Y-97525080D01*
X124171801Y-97505390D01*
X123999835Y-97380451D01*
X123810429Y-97283944D01*
X123810428Y-97283943D01*
X123810427Y-97283943D01*
X123608258Y-97218254D01*
X123608256Y-97218253D01*
X123608255Y-97218253D01*
X123446972Y-97192708D01*
X123398302Y-97185000D01*
X123185728Y-97185000D01*
X123137057Y-97192708D01*
X122975775Y-97218253D01*
X122773600Y-97283944D01*
X122584194Y-97380451D01*
X122412228Y-97505390D01*
X122261905Y-97655713D01*
X122136964Y-97827682D01*
X122132499Y-97836446D01*
X122084524Y-97887242D01*
X122016703Y-97904036D01*
X121950568Y-97881498D01*
X121911531Y-97836446D01*
X121907065Y-97827682D01*
X121782124Y-97655713D01*
X121631801Y-97505390D01*
X121459835Y-97380451D01*
X121270429Y-97283944D01*
X121270428Y-97283943D01*
X121270427Y-97283943D01*
X121068258Y-97218254D01*
X121068256Y-97218253D01*
X121068255Y-97218253D01*
X120906972Y-97192708D01*
X120858302Y-97185000D01*
X120645728Y-97185000D01*
X120597057Y-97192708D01*
X120435775Y-97218253D01*
X120233600Y-97283944D01*
X120044194Y-97380451D01*
X119872228Y-97505390D01*
X119721909Y-97655709D01*
X119721905Y-97655714D01*
X119595745Y-97829359D01*
X119540415Y-97872025D01*
X119470802Y-97878004D01*
X119409007Y-97845398D01*
X119384942Y-97812768D01*
X119367065Y-97777682D01*
X119242124Y-97605713D01*
X119091801Y-97455390D01*
X118919835Y-97330451D01*
X118730429Y-97233944D01*
X118730428Y-97233943D01*
X118730427Y-97233943D01*
X118528258Y-97168254D01*
X118528256Y-97168253D01*
X118528255Y-97168253D01*
X118366972Y-97142708D01*
X118318302Y-97135000D01*
X118105728Y-97135000D01*
X118057057Y-97142708D01*
X117895775Y-97168253D01*
X117693600Y-97233944D01*
X117504194Y-97330451D01*
X117332228Y-97455390D01*
X117181905Y-97605713D01*
X117056964Y-97777682D01*
X117052499Y-97786446D01*
X117004524Y-97837242D01*
X116936703Y-97854036D01*
X116870568Y-97831498D01*
X116831531Y-97786446D01*
X116827065Y-97777682D01*
X116702124Y-97605713D01*
X116551801Y-97455390D01*
X116379835Y-97330451D01*
X116190429Y-97233944D01*
X116190428Y-97233943D01*
X116190427Y-97233943D01*
X115988258Y-97168254D01*
X115988256Y-97168253D01*
X115988255Y-97168253D01*
X115826972Y-97142708D01*
X115778302Y-97135000D01*
X115565728Y-97135000D01*
X115517057Y-97142708D01*
X115355775Y-97168253D01*
X115153600Y-97233944D01*
X114964194Y-97330451D01*
X114792228Y-97455390D01*
X114641905Y-97605713D01*
X114516964Y-97777682D01*
X114512217Y-97786999D01*
X114464242Y-97837793D01*
X114396420Y-97854587D01*
X114330286Y-97832048D01*
X114291249Y-97786995D01*
X114286637Y-97777944D01*
X114161742Y-97606040D01*
X114161738Y-97606035D01*
X114011479Y-97455776D01*
X114011474Y-97455772D01*
X113839572Y-97330879D01*
X113650230Y-97234403D01*
X113448139Y-97168741D01*
X113382015Y-97158268D01*
X113382015Y-99361500D01*
X113362330Y-99428539D01*
X113309526Y-99474294D01*
X113258015Y-99485500D01*
X113006015Y-99485500D01*
X112938976Y-99465815D01*
X112893221Y-99413011D01*
X112882015Y-99361500D01*
X112882015Y-97158268D01*
X112882014Y-97158268D01*
X112815890Y-97168741D01*
X112613799Y-97234403D01*
X112424457Y-97330879D01*
X112252555Y-97455772D01*
X112252550Y-97455776D01*
X112102291Y-97606035D01*
X112102287Y-97606040D01*
X111977393Y-97777943D01*
X111972777Y-97787002D01*
X111924799Y-97837795D01*
X111856978Y-97854587D01*
X111790844Y-97832046D01*
X111751809Y-97786993D01*
X111747066Y-97777684D01*
X111747064Y-97777681D01*
X111747063Y-97777679D01*
X111622124Y-97605713D01*
X111471801Y-97455390D01*
X111299835Y-97330451D01*
X111110429Y-97233944D01*
X111110428Y-97233943D01*
X111110427Y-97233943D01*
X110908258Y-97168254D01*
X110908256Y-97168253D01*
X110908255Y-97168253D01*
X110746972Y-97142708D01*
X110698302Y-97135000D01*
X110485728Y-97135000D01*
X110437057Y-97142708D01*
X110275775Y-97168253D01*
X110073600Y-97233944D01*
X109884196Y-97330450D01*
X109797384Y-97393522D01*
X109731578Y-97417001D01*
X109663524Y-97401175D01*
X109614830Y-97351069D01*
X109600500Y-97293203D01*
X109600500Y-92800097D01*
X109620185Y-92733058D01*
X109636819Y-92712416D01*
X112829364Y-89519871D01*
X116026016Y-86323218D01*
X116087337Y-86289735D01*
X116157029Y-86294719D01*
X116212962Y-86336591D01*
X116237379Y-86402055D01*
X116233470Y-86442994D01*
X116181161Y-86638212D01*
X116149500Y-86878711D01*
X116149500Y-87121288D01*
X116181161Y-87361785D01*
X116243947Y-87596104D01*
X116321391Y-87783069D01*
X116336776Y-87820212D01*
X116458064Y-88030289D01*
X116458066Y-88030292D01*
X116458067Y-88030293D01*
X116605733Y-88222736D01*
X116605739Y-88222743D01*
X116777256Y-88394260D01*
X116777263Y-88394266D01*
X116887761Y-88479054D01*
X116969711Y-88541936D01*
X117179788Y-88663224D01*
X117403900Y-88756054D01*
X117638211Y-88818838D01*
X117818586Y-88842584D01*
X117878711Y-88850500D01*
X117878712Y-88850500D01*
X118121289Y-88850500D01*
X118169388Y-88844167D01*
X118361789Y-88818838D01*
X118596100Y-88756054D01*
X118820212Y-88663224D01*
X119030289Y-88541936D01*
X119222738Y-88394265D01*
X119394265Y-88222738D01*
X119541936Y-88030289D01*
X119663224Y-87820212D01*
X119756054Y-87596100D01*
X119818838Y-87361789D01*
X119850500Y-87121288D01*
X119850500Y-86878712D01*
X119818838Y-86638211D01*
X119756054Y-86403900D01*
X119663224Y-86179788D01*
X119541936Y-85969711D01*
X119394265Y-85777262D01*
X119394260Y-85777256D01*
X119222743Y-85605739D01*
X119222736Y-85605733D01*
X119030293Y-85458067D01*
X119030292Y-85458066D01*
X119030289Y-85458064D01*
X118820212Y-85336776D01*
X118810176Y-85332619D01*
X118596104Y-85243947D01*
X118361785Y-85181161D01*
X118121289Y-85149500D01*
X118121288Y-85149500D01*
X117878712Y-85149500D01*
X117878711Y-85149500D01*
X117638212Y-85181161D01*
X117442994Y-85233470D01*
X117373144Y-85231807D01*
X117315282Y-85192644D01*
X117287778Y-85128416D01*
X117299365Y-85059514D01*
X117323217Y-85026017D01*
X117712416Y-84636819D01*
X117773739Y-84603334D01*
X117800097Y-84600500D01*
X135429903Y-84600500D01*
X135496942Y-84620185D01*
X135517584Y-84636819D01*
X136157840Y-85277076D01*
X136191325Y-85338399D01*
X136188090Y-85403075D01*
X136128910Y-85585210D01*
X136128910Y-85585213D01*
X136098492Y-85777263D01*
X136089500Y-85834038D01*
X136089500Y-86085962D01*
X136096256Y-86128615D01*
X136128910Y-86334785D01*
X136206760Y-86574383D01*
X136262133Y-86683057D01*
X136312993Y-86782876D01*
X136321132Y-86798848D01*
X136469201Y-87002649D01*
X136469205Y-87002654D01*
X136469207Y-87002656D01*
X136647344Y-87180793D01*
X136647345Y-87180794D01*
X136647344Y-87180794D01*
X136653661Y-87185383D01*
X136696327Y-87240714D01*
X136702305Y-87310327D01*
X136669699Y-87372122D01*
X136608860Y-87406479D01*
X136561378Y-87408174D01*
X136506611Y-87399500D01*
X136333389Y-87399500D01*
X136293728Y-87405781D01*
X136162302Y-87426597D01*
X135997552Y-87480128D01*
X135843211Y-87558768D01*
X135786289Y-87600125D01*
X135703072Y-87660586D01*
X135703070Y-87660588D01*
X135703069Y-87660588D01*
X135580588Y-87783069D01*
X135580588Y-87783070D01*
X135580586Y-87783072D01*
X135553607Y-87820205D01*
X135478768Y-87923211D01*
X135400128Y-88077552D01*
X135346597Y-88242302D01*
X135319500Y-88413389D01*
X135319500Y-88586610D01*
X135346336Y-88756052D01*
X135346598Y-88757701D01*
X135400127Y-88922445D01*
X135478768Y-89076788D01*
X135580586Y-89216928D01*
X135703072Y-89339414D01*
X135843212Y-89441232D01*
X135997555Y-89519873D01*
X136162299Y-89573402D01*
X136333389Y-89600500D01*
X136333390Y-89600500D01*
X136506610Y-89600500D01*
X136506611Y-89600500D01*
X136677701Y-89573402D01*
X136842445Y-89519873D01*
X136996788Y-89441232D01*
X137136928Y-89339414D01*
X137259414Y-89216928D01*
X137361232Y-89076788D01*
X137439873Y-88922445D01*
X137493402Y-88757701D01*
X137520500Y-88586611D01*
X137520500Y-88413389D01*
X137493402Y-88242299D01*
X137439873Y-88077555D01*
X137361232Y-87923212D01*
X137259414Y-87783072D01*
X137207482Y-87731140D01*
X137173997Y-87669817D01*
X137178981Y-87600125D01*
X137220853Y-87544192D01*
X137286317Y-87519775D01*
X137314561Y-87520986D01*
X137315212Y-87521089D01*
X137315215Y-87521090D01*
X137564038Y-87560500D01*
X137564039Y-87560500D01*
X137815961Y-87560500D01*
X137815962Y-87560500D01*
X138064785Y-87521090D01*
X138304379Y-87443241D01*
X138528845Y-87328870D01*
X138732656Y-87180793D01*
X138910793Y-87002656D01*
X139058870Y-86798845D01*
X139173241Y-86574379D01*
X139182755Y-86545097D01*
X139222191Y-86487423D01*
X139286549Y-86460224D01*
X139355395Y-86472137D01*
X139362699Y-86476036D01*
X139364814Y-86477257D01*
X139438114Y-86519577D01*
X139590842Y-86560501D01*
X139590845Y-86560501D01*
X139756552Y-86560501D01*
X139756568Y-86560500D01*
X139965462Y-86560500D01*
X140032501Y-86580185D01*
X140078256Y-86632989D01*
X140088200Y-86702147D01*
X140059175Y-86765703D01*
X140040948Y-86782876D01*
X140012959Y-86804352D01*
X140012952Y-86804358D01*
X139804358Y-87012952D01*
X139804352Y-87012959D01*
X139624761Y-87247006D01*
X139477258Y-87502489D01*
X139477254Y-87502499D01*
X139364364Y-87775038D01*
X139364361Y-87775048D01*
X139294956Y-88034075D01*
X139288008Y-88060004D01*
X139288006Y-88060015D01*
X139249500Y-88352486D01*
X139249500Y-88647513D01*
X139270499Y-88807007D01*
X139288007Y-88939993D01*
X139362212Y-89216930D01*
X139364361Y-89224951D01*
X139364364Y-89224961D01*
X139477254Y-89497500D01*
X139477258Y-89497510D01*
X139624761Y-89752993D01*
X139804352Y-89987040D01*
X139804358Y-89987047D01*
X140012952Y-90195641D01*
X140012959Y-90195647D01*
X140247006Y-90375238D01*
X140502489Y-90522741D01*
X140502490Y-90522741D01*
X140502493Y-90522743D01*
X140775048Y-90635639D01*
X141060007Y-90711993D01*
X141352494Y-90750500D01*
X141352501Y-90750500D01*
X141647499Y-90750500D01*
X141647506Y-90750500D01*
X141939993Y-90711993D01*
X142224952Y-90635639D01*
X142497507Y-90522743D01*
X142752994Y-90375238D01*
X142987042Y-90195646D01*
X143195646Y-89987042D01*
X143375238Y-89752994D01*
X143522743Y-89497507D01*
X143635639Y-89224952D01*
X143711993Y-88939993D01*
X143750500Y-88647506D01*
X143750500Y-88413389D01*
X145479500Y-88413389D01*
X145479500Y-88586610D01*
X145506336Y-88756052D01*
X145506598Y-88757701D01*
X145560127Y-88922445D01*
X145638768Y-89076788D01*
X145740586Y-89216928D01*
X145863072Y-89339414D01*
X146003212Y-89441232D01*
X146157555Y-89519873D01*
X146322299Y-89573402D01*
X146493389Y-89600500D01*
X146493390Y-89600500D01*
X146666610Y-89600500D01*
X146666611Y-89600500D01*
X146837701Y-89573402D01*
X147002445Y-89519873D01*
X147156788Y-89441232D01*
X147296928Y-89339414D01*
X147419414Y-89216928D01*
X147521232Y-89076788D01*
X147599873Y-88922445D01*
X147653402Y-88757701D01*
X147680500Y-88586611D01*
X147680500Y-88413389D01*
X147653402Y-88242299D01*
X147599873Y-88077555D01*
X147521232Y-87923212D01*
X147419414Y-87783072D01*
X147296928Y-87660586D01*
X147156788Y-87558768D01*
X147002445Y-87480127D01*
X146837701Y-87426598D01*
X146837699Y-87426597D01*
X146837698Y-87426597D01*
X146706271Y-87405781D01*
X146666611Y-87399500D01*
X146493389Y-87399500D01*
X146453728Y-87405781D01*
X146322302Y-87426597D01*
X146157552Y-87480128D01*
X146003211Y-87558768D01*
X145946289Y-87600125D01*
X145863072Y-87660586D01*
X145863070Y-87660588D01*
X145863069Y-87660588D01*
X145740588Y-87783069D01*
X145740588Y-87783070D01*
X145740586Y-87783072D01*
X145713607Y-87820205D01*
X145638768Y-87923211D01*
X145560128Y-88077552D01*
X145506597Y-88242302D01*
X145479500Y-88413389D01*
X143750500Y-88413389D01*
X143750500Y-88352494D01*
X143711993Y-88060007D01*
X143635639Y-87775048D01*
X143522743Y-87502493D01*
X143493665Y-87452129D01*
X143375238Y-87247006D01*
X143195647Y-87012959D01*
X143195641Y-87012952D01*
X142987047Y-86804358D01*
X142987040Y-86804352D01*
X142959052Y-86782876D01*
X142917849Y-86726448D01*
X142913694Y-86656702D01*
X142947906Y-86595782D01*
X143009624Y-86563029D01*
X143034538Y-86560500D01*
X157123700Y-86560500D01*
X157190739Y-86580185D01*
X157234184Y-86628204D01*
X157312993Y-86782876D01*
X157321132Y-86798848D01*
X157469201Y-87002649D01*
X157469205Y-87002654D01*
X157469207Y-87002656D01*
X157647344Y-87180793D01*
X157647345Y-87180794D01*
X157647344Y-87180794D01*
X157653661Y-87185383D01*
X157696327Y-87240714D01*
X157702305Y-87310327D01*
X157669699Y-87372122D01*
X157608860Y-87406479D01*
X157561378Y-87408174D01*
X157506611Y-87399500D01*
X157333389Y-87399500D01*
X157293728Y-87405781D01*
X157162302Y-87426597D01*
X156997552Y-87480128D01*
X156843211Y-87558768D01*
X156786289Y-87600125D01*
X156703072Y-87660586D01*
X156703070Y-87660588D01*
X156703069Y-87660588D01*
X156580588Y-87783069D01*
X156580588Y-87783070D01*
X156580586Y-87783072D01*
X156553607Y-87820205D01*
X156478768Y-87923211D01*
X156400128Y-88077552D01*
X156346597Y-88242302D01*
X156319500Y-88413389D01*
X156319500Y-88586610D01*
X156346336Y-88756052D01*
X156346598Y-88757701D01*
X156400127Y-88922445D01*
X156478768Y-89076788D01*
X156580586Y-89216928D01*
X156703072Y-89339414D01*
X156843212Y-89441232D01*
X156997555Y-89519873D01*
X157162299Y-89573402D01*
X157333389Y-89600500D01*
X157333390Y-89600500D01*
X157506610Y-89600500D01*
X157506611Y-89600500D01*
X157677701Y-89573402D01*
X157842445Y-89519873D01*
X157996788Y-89441232D01*
X158136928Y-89339414D01*
X158259414Y-89216928D01*
X158361232Y-89076788D01*
X158439873Y-88922445D01*
X158493402Y-88757701D01*
X158520500Y-88586611D01*
X158520500Y-88413389D01*
X158493402Y-88242299D01*
X158439873Y-88077555D01*
X158361232Y-87923212D01*
X158259414Y-87783072D01*
X158207482Y-87731140D01*
X158173997Y-87669817D01*
X158178981Y-87600125D01*
X158220853Y-87544192D01*
X158286317Y-87519775D01*
X158314561Y-87520986D01*
X158315212Y-87521089D01*
X158315215Y-87521090D01*
X158564038Y-87560500D01*
X158564039Y-87560500D01*
X158815961Y-87560500D01*
X158815962Y-87560500D01*
X159064785Y-87521090D01*
X159304379Y-87443241D01*
X159528845Y-87328870D01*
X159732656Y-87180793D01*
X159910793Y-87002656D01*
X160058870Y-86798845D01*
X160173241Y-86574379D01*
X160251090Y-86334785D01*
X160290500Y-86085962D01*
X160290500Y-85834038D01*
X160251090Y-85585215D01*
X160173241Y-85345621D01*
X160173239Y-85345618D01*
X160173239Y-85345616D01*
X160131747Y-85264184D01*
X160058870Y-85121155D01*
X159955673Y-84979116D01*
X159910798Y-84917350D01*
X159910794Y-84917345D01*
X159732654Y-84739205D01*
X159732649Y-84739201D01*
X159528848Y-84591132D01*
X159528847Y-84591131D01*
X159528845Y-84591130D01*
X159458747Y-84555413D01*
X159304383Y-84476760D01*
X159064785Y-84398910D01*
X158815962Y-84359500D01*
X158564038Y-84359500D01*
X158439626Y-84379205D01*
X158315214Y-84398910D01*
X158075616Y-84476760D01*
X157851151Y-84591132D01*
X157647350Y-84739201D01*
X157647345Y-84739205D01*
X157469205Y-84917345D01*
X157469201Y-84917350D01*
X157321132Y-85121151D01*
X157321130Y-85121155D01*
X157240511Y-85279380D01*
X157234185Y-85291795D01*
X157186211Y-85342591D01*
X157123700Y-85359500D01*
X139969996Y-85359500D01*
X139902957Y-85339815D01*
X139882315Y-85323181D01*
X137853205Y-83294071D01*
X142440000Y-83294071D01*
X142440000Y-83545928D01*
X142479397Y-83794669D01*
X142557219Y-84034184D01*
X142671557Y-84258583D01*
X142745748Y-84360697D01*
X142745748Y-84360698D01*
X143362421Y-83744024D01*
X143375359Y-83775258D01*
X143457437Y-83898097D01*
X143561903Y-84002563D01*
X143684742Y-84084641D01*
X143715974Y-84097577D01*
X143099300Y-84714250D01*
X143201416Y-84788442D01*
X143425815Y-84902780D01*
X143665330Y-84980602D01*
X143914072Y-85020000D01*
X144165928Y-85020000D01*
X144414669Y-84980602D01*
X144654184Y-84902780D01*
X144878575Y-84788446D01*
X144878581Y-84788442D01*
X144980697Y-84714250D01*
X144980698Y-84714250D01*
X144364025Y-84097578D01*
X144395258Y-84084641D01*
X144518097Y-84002563D01*
X144622563Y-83898097D01*
X144704641Y-83775258D01*
X144717578Y-83744025D01*
X145334250Y-84360698D01*
X145334250Y-84360697D01*
X145408442Y-84258581D01*
X145408446Y-84258575D01*
X145522780Y-84034184D01*
X145600602Y-83794669D01*
X145640000Y-83545928D01*
X145640000Y-83294071D01*
X145600602Y-83045330D01*
X145522780Y-82805815D01*
X145408442Y-82581416D01*
X145334250Y-82479301D01*
X145334250Y-82479300D01*
X144717577Y-83095973D01*
X144704641Y-83064742D01*
X144622563Y-82941903D01*
X144518097Y-82837437D01*
X144395258Y-82755359D01*
X144364024Y-82742421D01*
X144980698Y-82125748D01*
X144878583Y-82051557D01*
X144654184Y-81937219D01*
X144414669Y-81859397D01*
X144165928Y-81820000D01*
X143914072Y-81820000D01*
X143665330Y-81859397D01*
X143425815Y-81937219D01*
X143201413Y-82051559D01*
X143099301Y-82125747D01*
X143099300Y-82125748D01*
X143715974Y-82742421D01*
X143684742Y-82755359D01*
X143561903Y-82837437D01*
X143457437Y-82941903D01*
X143375359Y-83064742D01*
X143362421Y-83095974D01*
X142745748Y-82479300D01*
X142745747Y-82479301D01*
X142671559Y-82581413D01*
X142557219Y-82805815D01*
X142479397Y-83045330D01*
X142440000Y-83294071D01*
X137853205Y-83294071D01*
X137797489Y-83238355D01*
X137797487Y-83238352D01*
X137678616Y-83119481D01*
X137678615Y-83119480D01*
X137591803Y-83069360D01*
X137591803Y-83069359D01*
X137591799Y-83069358D01*
X137541684Y-83040423D01*
X137388956Y-82999499D01*
X137230842Y-82999499D01*
X137223246Y-82999499D01*
X137223230Y-82999500D01*
X117420984Y-82999500D01*
X117420968Y-82999499D01*
X117413372Y-82999499D01*
X117255257Y-82999499D01*
X117178893Y-83019961D01*
X117102528Y-83040423D01*
X117102523Y-83040426D01*
X116965604Y-83119475D01*
X116965596Y-83119481D01*
X108912181Y-91172897D01*
X108850858Y-91206382D01*
X108781166Y-91201398D01*
X108725233Y-91159526D01*
X108700816Y-91094062D01*
X108700500Y-91085216D01*
X108700500Y-79900097D01*
X108720185Y-79833058D01*
X108736819Y-79812416D01*
X109938319Y-78610916D01*
X109999642Y-78577431D01*
X110069334Y-78582415D01*
X110125267Y-78624287D01*
X110149684Y-78689751D01*
X110150000Y-78698597D01*
X110150000Y-79397844D01*
X110156401Y-79457372D01*
X110156403Y-79457379D01*
X110206645Y-79592086D01*
X110206649Y-79592093D01*
X110292809Y-79707187D01*
X110292812Y-79707190D01*
X110407906Y-79793350D01*
X110407913Y-79793354D01*
X110542620Y-79843596D01*
X110542627Y-79843598D01*
X110602155Y-79849999D01*
X110602172Y-79850000D01*
X111250000Y-79850000D01*
X111250000Y-78933012D01*
X111307007Y-78965925D01*
X111434174Y-79000000D01*
X111565826Y-79000000D01*
X111692993Y-78965925D01*
X111750000Y-78933012D01*
X111750000Y-79850000D01*
X112397828Y-79850000D01*
X112397844Y-79849999D01*
X112457372Y-79843598D01*
X112457379Y-79843596D01*
X112592086Y-79793354D01*
X112592093Y-79793350D01*
X112707187Y-79707190D01*
X112707190Y-79707187D01*
X112793350Y-79592093D01*
X112793354Y-79592086D01*
X112842422Y-79460529D01*
X112884293Y-79404595D01*
X112949757Y-79380178D01*
X113018030Y-79395030D01*
X113046285Y-79416181D01*
X113160213Y-79530109D01*
X113332179Y-79655048D01*
X113332181Y-79655049D01*
X113332184Y-79655051D01*
X113521588Y-79751557D01*
X113723757Y-79817246D01*
X113933713Y-79850500D01*
X113933714Y-79850500D01*
X114146286Y-79850500D01*
X114146287Y-79850500D01*
X114356243Y-79817246D01*
X114558412Y-79751557D01*
X114747816Y-79655051D01*
X114834471Y-79592093D01*
X114919786Y-79530109D01*
X114919788Y-79530106D01*
X114919792Y-79530104D01*
X115070104Y-79379792D01*
X115070106Y-79379788D01*
X115070109Y-79379786D01*
X115179086Y-79229789D01*
X115195051Y-79207816D01*
X115199514Y-79199054D01*
X115247488Y-79148259D01*
X115315308Y-79131463D01*
X115381444Y-79153999D01*
X115420486Y-79199056D01*
X115424951Y-79207820D01*
X115549890Y-79379786D01*
X115700213Y-79530109D01*
X115872179Y-79655048D01*
X115872181Y-79655049D01*
X115872184Y-79655051D01*
X116061588Y-79751557D01*
X116263757Y-79817246D01*
X116473713Y-79850500D01*
X116473714Y-79850500D01*
X116686286Y-79850500D01*
X116686287Y-79850500D01*
X116896243Y-79817246D01*
X116938523Y-79803507D01*
X117008362Y-79801511D01*
X117064521Y-79833756D01*
X117361284Y-80130520D01*
X117361286Y-80130521D01*
X117361290Y-80130524D01*
X117498209Y-80209573D01*
X117498212Y-80209575D01*
X117498216Y-80209577D01*
X117650943Y-80250501D01*
X117650945Y-80250501D01*
X117816654Y-80250501D01*
X117816670Y-80250500D01*
X119509677Y-80250500D01*
X119509693Y-80250501D01*
X119517289Y-80250501D01*
X119675400Y-80250501D01*
X119675403Y-80250501D01*
X119828131Y-80209577D01*
X119914733Y-80159577D01*
X119965062Y-80130520D01*
X120076866Y-80018716D01*
X120076866Y-80018714D01*
X120087070Y-80008511D01*
X120087073Y-80008506D01*
X120750520Y-79345062D01*
X120829577Y-79208130D01*
X120870501Y-79055403D01*
X120870501Y-78897288D01*
X120870501Y-78889693D01*
X120870500Y-78889675D01*
X120870500Y-78112714D01*
X120870501Y-78112701D01*
X120870501Y-77944598D01*
X120859596Y-77903900D01*
X120829577Y-77791870D01*
X120829573Y-77791863D01*
X120750524Y-77654944D01*
X120750518Y-77654936D01*
X117933936Y-74838355D01*
X117933934Y-74838352D01*
X117815063Y-74719481D01*
X117815062Y-74719480D01*
X117728250Y-74669360D01*
X117728250Y-74669359D01*
X117728246Y-74669358D01*
X117678131Y-74640423D01*
X117525403Y-74599499D01*
X117367289Y-74599499D01*
X117359693Y-74599499D01*
X117359677Y-74599500D01*
X111089569Y-74599500D01*
X111048648Y-74610464D01*
X111048648Y-74610465D01*
X111011380Y-74620451D01*
X110936843Y-74640423D01*
X110936838Y-74640426D01*
X110799919Y-74719475D01*
X110799911Y-74719481D01*
X110688107Y-74831286D01*
X106931286Y-78588108D01*
X106819481Y-78699912D01*
X106819480Y-78699914D01*
X106788372Y-78753795D01*
X106770821Y-78784194D01*
X106740422Y-78836845D01*
X106738562Y-78841338D01*
X106694722Y-78895742D01*
X106628428Y-78917808D01*
X106560728Y-78900530D01*
X106513117Y-78849393D01*
X106500000Y-78793887D01*
X106500000Y-74124000D01*
X106519685Y-74056961D01*
X106572489Y-74011206D01*
X106624000Y-74000000D01*
X194376000Y-74000000D01*
X194443039Y-74019685D01*
G37*
%TD.AperFunction*%
%TA.AperFunction,Conductor*%
G36*
X180701256Y-76620185D02*
G01*
X180721898Y-76636819D01*
X185363181Y-81278102D01*
X185396666Y-81339425D01*
X185399500Y-81365783D01*
X185399500Y-83275500D01*
X185379815Y-83342539D01*
X185327011Y-83388294D01*
X185275500Y-83399500D01*
X183029057Y-83399500D01*
X182870942Y-83399500D01*
X182718215Y-83440423D01*
X182718214Y-83440423D01*
X182718212Y-83440424D01*
X182718209Y-83440425D01*
X182668096Y-83469359D01*
X182668095Y-83469360D01*
X182625644Y-83493869D01*
X182581285Y-83519479D01*
X182581282Y-83519481D01*
X180019479Y-86081284D01*
X180000272Y-86114552D01*
X179992154Y-86128615D01*
X179940423Y-86218215D01*
X179899499Y-86370943D01*
X179899499Y-86370945D01*
X179899499Y-86539046D01*
X179899500Y-86539059D01*
X179899500Y-91699903D01*
X179879815Y-91766942D01*
X179863181Y-91787584D01*
X178790343Y-92860421D01*
X178729020Y-92893906D01*
X178659328Y-92888922D01*
X178603395Y-92847050D01*
X178592177Y-92829035D01*
X178551262Y-92748735D01*
X178533343Y-92713567D01*
X178394517Y-92522490D01*
X178227510Y-92355483D01*
X178171259Y-92314614D01*
X178128595Y-92259284D01*
X178123902Y-92227455D01*
X177379408Y-91482962D01*
X177442993Y-91465925D01*
X177557007Y-91400099D01*
X177650099Y-91307007D01*
X177715925Y-91192993D01*
X177732962Y-91129409D01*
X178472658Y-91869105D01*
X178472658Y-91869104D01*
X178532914Y-91786169D01*
X178532918Y-91786163D01*
X178640102Y-91575802D01*
X178713065Y-91351247D01*
X178750000Y-91118052D01*
X178750000Y-90881947D01*
X178713065Y-90648752D01*
X178640102Y-90424197D01*
X178532914Y-90213828D01*
X178463394Y-90118142D01*
X178439914Y-90052335D01*
X178455739Y-89984281D01*
X178489401Y-89945989D01*
X178492329Y-89943796D01*
X178492331Y-89943796D01*
X178607546Y-89857546D01*
X178693796Y-89742331D01*
X178744091Y-89607483D01*
X178750500Y-89547873D01*
X178750499Y-87452128D01*
X178744091Y-87392517D01*
X178736484Y-87372122D01*
X178693797Y-87257671D01*
X178693793Y-87257664D01*
X178607547Y-87142455D01*
X178607544Y-87142452D01*
X178492335Y-87056206D01*
X178492328Y-87056202D01*
X178357482Y-87005908D01*
X178357483Y-87005908D01*
X178297883Y-86999501D01*
X178297881Y-86999500D01*
X178297873Y-86999500D01*
X178297864Y-86999500D01*
X176202129Y-86999500D01*
X176202123Y-86999501D01*
X176142516Y-87005908D01*
X176007671Y-87056202D01*
X176007664Y-87056206D01*
X175892455Y-87142452D01*
X175892452Y-87142455D01*
X175806206Y-87257664D01*
X175806202Y-87257671D01*
X175755908Y-87392517D01*
X175750455Y-87443241D01*
X175749501Y-87452123D01*
X175749500Y-87452135D01*
X175749500Y-89099901D01*
X175729815Y-89166940D01*
X175713181Y-89187582D01*
X173731286Y-91169478D01*
X173619481Y-91281282D01*
X173619479Y-91281285D01*
X173569361Y-91368094D01*
X173569359Y-91368096D01*
X173540425Y-91418209D01*
X173540424Y-91418210D01*
X173540423Y-91418215D01*
X173499499Y-91570943D01*
X173499499Y-91570945D01*
X173499499Y-91739046D01*
X173499500Y-91739059D01*
X173499500Y-100667535D01*
X173529581Y-100779797D01*
X173540423Y-100820261D01*
X173540426Y-100820268D01*
X173619475Y-100957187D01*
X173619479Y-100957192D01*
X173619480Y-100957194D01*
X173731284Y-101068998D01*
X173731286Y-101068999D01*
X173731290Y-101069002D01*
X173843454Y-101133759D01*
X173868216Y-101148055D01*
X174020943Y-101188978D01*
X174179057Y-101188978D01*
X182838381Y-101188978D01*
X182905420Y-101208663D01*
X182926062Y-101225297D01*
X185388583Y-103687819D01*
X185422068Y-103749142D01*
X185417084Y-103818834D01*
X185375212Y-103874767D01*
X185309748Y-103899184D01*
X185300902Y-103899500D01*
X183102129Y-103899500D01*
X183102123Y-103899501D01*
X183042516Y-103905908D01*
X182907671Y-103956202D01*
X182907664Y-103956206D01*
X182792455Y-104042452D01*
X182792452Y-104042455D01*
X182706206Y-104157664D01*
X182706202Y-104157671D01*
X182655908Y-104292517D01*
X182649501Y-104352116D01*
X182649500Y-104352135D01*
X182649500Y-106447870D01*
X182649501Y-106447876D01*
X182655908Y-106507483D01*
X182706202Y-106642328D01*
X182706206Y-106642335D01*
X182792452Y-106757544D01*
X182792455Y-106757547D01*
X182907664Y-106843793D01*
X182907671Y-106843797D01*
X183042517Y-106894091D01*
X183042516Y-106894091D01*
X183049444Y-106894835D01*
X183102127Y-106900500D01*
X186275500Y-106900499D01*
X186342539Y-106920184D01*
X186388294Y-106972988D01*
X186399500Y-107024499D01*
X186399500Y-114975500D01*
X186379815Y-115042539D01*
X186327011Y-115088294D01*
X186275500Y-115099500D01*
X183102129Y-115099500D01*
X183102123Y-115099501D01*
X183042516Y-115105908D01*
X182907671Y-115156202D01*
X182907664Y-115156206D01*
X182792455Y-115242452D01*
X182792452Y-115242455D01*
X182706206Y-115357664D01*
X182706202Y-115357671D01*
X182655908Y-115492517D01*
X182649501Y-115552116D01*
X182649500Y-115552135D01*
X182649501Y-117175500D01*
X182629816Y-117242539D01*
X182577013Y-117288294D01*
X182525501Y-117299500D01*
X128296612Y-117299500D01*
X128229573Y-117279815D01*
X128208931Y-117263181D01*
X127218834Y-116273084D01*
X127185349Y-116211761D01*
X127182515Y-116185403D01*
X127182515Y-115679213D01*
X127149261Y-115469257D01*
X127083572Y-115267088D01*
X126987066Y-115077684D01*
X126987064Y-115077681D01*
X126987063Y-115077679D01*
X126862124Y-114905713D01*
X126711801Y-114755390D01*
X126539835Y-114630451D01*
X126350429Y-114533944D01*
X126350428Y-114533943D01*
X126350427Y-114533943D01*
X126148258Y-114468254D01*
X126148256Y-114468253D01*
X126148255Y-114468253D01*
X125966581Y-114439479D01*
X125938302Y-114435000D01*
X125725728Y-114435000D01*
X125697449Y-114439479D01*
X125515775Y-114468253D01*
X125313600Y-114533944D01*
X125124194Y-114630451D01*
X124952228Y-114755390D01*
X124801905Y-114905713D01*
X124676964Y-115077682D01*
X124672499Y-115086446D01*
X124624524Y-115137242D01*
X124556703Y-115154036D01*
X124490568Y-115131498D01*
X124451531Y-115086446D01*
X124447065Y-115077682D01*
X124322124Y-114905713D01*
X124171801Y-114755390D01*
X123999835Y-114630451D01*
X123810429Y-114533944D01*
X123810428Y-114533943D01*
X123810427Y-114533943D01*
X123608258Y-114468254D01*
X123608256Y-114468253D01*
X123608255Y-114468253D01*
X123426581Y-114439479D01*
X123398302Y-114435000D01*
X123185728Y-114435000D01*
X123157449Y-114439479D01*
X122975775Y-114468253D01*
X122773600Y-114533944D01*
X122584194Y-114630451D01*
X122412228Y-114755390D01*
X122261905Y-114905713D01*
X122136964Y-115077682D01*
X122132499Y-115086446D01*
X122084524Y-115137242D01*
X122016703Y-115154036D01*
X121950568Y-115131498D01*
X121911531Y-115086446D01*
X121907065Y-115077682D01*
X121782124Y-114905713D01*
X121631801Y-114755390D01*
X121459835Y-114630451D01*
X121270429Y-114533944D01*
X121270428Y-114533943D01*
X121270427Y-114533943D01*
X121068258Y-114468254D01*
X121068256Y-114468253D01*
X121068255Y-114468253D01*
X120886581Y-114439479D01*
X120858302Y-114435000D01*
X120661112Y-114435000D01*
X120594073Y-114415315D01*
X120548318Y-114362511D01*
X120538374Y-114293353D01*
X120567399Y-114229797D01*
X120573431Y-114223319D01*
X120659931Y-114136819D01*
X120721254Y-114103334D01*
X120747612Y-114100500D01*
X134636275Y-114100500D01*
X134636291Y-114100501D01*
X134643887Y-114100501D01*
X134801998Y-114100501D01*
X134802001Y-114100501D01*
X134954729Y-114059577D01*
X135024177Y-114019481D01*
X135091660Y-113980520D01*
X135195642Y-113876537D01*
X135256961Y-113843055D01*
X135326653Y-113848039D01*
X135382587Y-113889910D01*
X135397328Y-113918340D01*
X135398266Y-113917952D01*
X135400126Y-113922443D01*
X135400127Y-113922445D01*
X135478768Y-114076788D01*
X135580586Y-114216928D01*
X135703072Y-114339414D01*
X135843212Y-114441232D01*
X135997555Y-114519873D01*
X136162299Y-114573402D01*
X136333389Y-114600500D01*
X136333390Y-114600500D01*
X136506610Y-114600500D01*
X136506611Y-114600500D01*
X136677701Y-114573402D01*
X136842445Y-114519873D01*
X136996788Y-114441232D01*
X137136928Y-114339414D01*
X137259414Y-114216928D01*
X137361232Y-114076788D01*
X137439873Y-113922445D01*
X137493402Y-113757701D01*
X137520500Y-113586611D01*
X137520500Y-113413389D01*
X137493402Y-113242299D01*
X137476193Y-113189338D01*
X137474199Y-113119501D01*
X137510279Y-113059668D01*
X137572979Y-113028839D01*
X137594125Y-113027023D01*
X138116707Y-113027023D01*
X138116723Y-113027024D01*
X138124319Y-113027024D01*
X138282430Y-113027024D01*
X138282433Y-113027024D01*
X138435161Y-112986100D01*
X138485280Y-112957162D01*
X138572092Y-112907043D01*
X138683896Y-112795239D01*
X138683896Y-112795237D01*
X138694104Y-112785030D01*
X138694105Y-112785027D01*
X139581867Y-111897267D01*
X139643187Y-111863784D01*
X139712879Y-111868768D01*
X139768812Y-111910640D01*
X139793229Y-111976104D01*
X139778377Y-112044377D01*
X139767921Y-112060436D01*
X139624761Y-112247006D01*
X139477258Y-112502489D01*
X139477254Y-112502499D01*
X139364364Y-112775038D01*
X139364361Y-112775048D01*
X139296359Y-113028839D01*
X139288008Y-113060004D01*
X139288006Y-113060015D01*
X139249500Y-113352486D01*
X139249500Y-113647513D01*
X139270327Y-113805703D01*
X139288007Y-113939993D01*
X139364361Y-114224951D01*
X139364364Y-114224961D01*
X139477254Y-114497500D01*
X139477258Y-114497510D01*
X139624761Y-114752993D01*
X139804352Y-114987040D01*
X139804358Y-114987047D01*
X140012952Y-115195641D01*
X140012959Y-115195647D01*
X140247006Y-115375238D01*
X140502489Y-115522741D01*
X140502490Y-115522741D01*
X140502493Y-115522743D01*
X140775048Y-115635639D01*
X141060007Y-115711993D01*
X141352494Y-115750500D01*
X141352501Y-115750500D01*
X141647499Y-115750500D01*
X141647506Y-115750500D01*
X141939993Y-115711993D01*
X142224952Y-115635639D01*
X142497507Y-115522743D01*
X142752994Y-115375238D01*
X142987042Y-115195646D01*
X143195646Y-114987042D01*
X143375238Y-114752994D01*
X143522743Y-114497507D01*
X143635639Y-114224952D01*
X143711993Y-113939993D01*
X143750500Y-113647506D01*
X143750500Y-113413389D01*
X145479500Y-113413389D01*
X145479500Y-113586610D01*
X145497443Y-113699902D01*
X145506598Y-113757701D01*
X145560127Y-113922445D01*
X145638768Y-114076788D01*
X145740586Y-114216928D01*
X145863072Y-114339414D01*
X146003212Y-114441232D01*
X146157555Y-114519873D01*
X146322299Y-114573402D01*
X146493389Y-114600500D01*
X146493390Y-114600500D01*
X146666610Y-114600500D01*
X146666611Y-114600500D01*
X146837701Y-114573402D01*
X147002445Y-114519873D01*
X147156788Y-114441232D01*
X147296928Y-114339414D01*
X147419414Y-114216928D01*
X147521232Y-114076788D01*
X147599873Y-113922445D01*
X147653402Y-113757701D01*
X147680500Y-113586611D01*
X147680500Y-113413389D01*
X147653402Y-113242299D01*
X147599873Y-113077555D01*
X147521232Y-112923212D01*
X147419414Y-112783072D01*
X147296928Y-112660586D01*
X147156788Y-112558768D01*
X147002445Y-112480127D01*
X146837701Y-112426598D01*
X146837699Y-112426597D01*
X146837698Y-112426597D01*
X146706271Y-112405781D01*
X146666611Y-112399500D01*
X146493389Y-112399500D01*
X146453728Y-112405781D01*
X146322302Y-112426597D01*
X146157552Y-112480128D01*
X146003211Y-112558768D01*
X145989518Y-112568717D01*
X145863072Y-112660586D01*
X145863070Y-112660588D01*
X145863069Y-112660588D01*
X145740588Y-112783069D01*
X145740588Y-112783070D01*
X145740586Y-112783072D01*
X145696859Y-112843256D01*
X145638768Y-112923211D01*
X145560128Y-113077552D01*
X145560127Y-113077554D01*
X145560127Y-113077555D01*
X145533735Y-113158780D01*
X145506597Y-113242302D01*
X145479500Y-113413389D01*
X143750500Y-113413389D01*
X143750500Y-113352494D01*
X143711993Y-113060007D01*
X143635639Y-112775048D01*
X143522743Y-112502493D01*
X143467309Y-112406479D01*
X143375238Y-112247006D01*
X143195647Y-112012959D01*
X143195641Y-112012952D01*
X142987047Y-111804358D01*
X142987040Y-111804352D01*
X142959052Y-111782876D01*
X142917849Y-111726448D01*
X142913694Y-111656702D01*
X142947906Y-111595782D01*
X143009624Y-111563029D01*
X143034538Y-111560500D01*
X157123700Y-111560500D01*
X157190739Y-111580185D01*
X157234184Y-111628204D01*
X157314671Y-111786169D01*
X157321132Y-111798848D01*
X157469201Y-112002649D01*
X157469205Y-112002654D01*
X157469207Y-112002656D01*
X157647344Y-112180793D01*
X157647345Y-112180794D01*
X157647344Y-112180794D01*
X157653661Y-112185383D01*
X157696327Y-112240714D01*
X157702305Y-112310327D01*
X157669699Y-112372122D01*
X157608860Y-112406479D01*
X157561378Y-112408174D01*
X157506611Y-112399500D01*
X157333389Y-112399500D01*
X157293728Y-112405781D01*
X157162302Y-112426597D01*
X156997552Y-112480128D01*
X156843211Y-112558768D01*
X156829518Y-112568717D01*
X156703072Y-112660586D01*
X156703070Y-112660588D01*
X156703069Y-112660588D01*
X156580588Y-112783069D01*
X156580588Y-112783070D01*
X156580586Y-112783072D01*
X156536859Y-112843256D01*
X156478768Y-112923211D01*
X156400128Y-113077552D01*
X156400127Y-113077554D01*
X156400127Y-113077555D01*
X156373735Y-113158780D01*
X156346597Y-113242302D01*
X156319500Y-113413389D01*
X156319500Y-113586610D01*
X156337443Y-113699902D01*
X156346598Y-113757701D01*
X156400127Y-113922445D01*
X156478768Y-114076788D01*
X156580586Y-114216928D01*
X156703072Y-114339414D01*
X156843212Y-114441232D01*
X156997555Y-114519873D01*
X157162299Y-114573402D01*
X157333389Y-114600500D01*
X157333390Y-114600500D01*
X157506610Y-114600500D01*
X157506611Y-114600500D01*
X157677701Y-114573402D01*
X157842445Y-114519873D01*
X157996788Y-114441232D01*
X158136928Y-114339414D01*
X158259414Y-114216928D01*
X158361232Y-114076788D01*
X158439873Y-113922445D01*
X158493402Y-113757701D01*
X158520500Y-113586611D01*
X158520500Y-113413389D01*
X158510854Y-113352486D01*
X160249500Y-113352486D01*
X160249500Y-113647513D01*
X160270327Y-113805703D01*
X160288007Y-113939993D01*
X160364361Y-114224951D01*
X160364364Y-114224961D01*
X160477254Y-114497500D01*
X160477258Y-114497510D01*
X160624761Y-114752993D01*
X160804352Y-114987040D01*
X160804358Y-114987047D01*
X161012952Y-115195641D01*
X161012959Y-115195647D01*
X161247006Y-115375238D01*
X161502489Y-115522741D01*
X161502490Y-115522741D01*
X161502493Y-115522743D01*
X161775048Y-115635639D01*
X162060007Y-115711993D01*
X162352494Y-115750500D01*
X162352501Y-115750500D01*
X162647499Y-115750500D01*
X162647506Y-115750500D01*
X162939993Y-115711993D01*
X163224952Y-115635639D01*
X163497507Y-115522743D01*
X163752994Y-115375238D01*
X163987042Y-115195646D01*
X164195646Y-114987042D01*
X164375238Y-114752994D01*
X164522743Y-114497507D01*
X164635639Y-114224952D01*
X164711993Y-113939993D01*
X164750500Y-113647506D01*
X164750500Y-113413389D01*
X166479500Y-113413389D01*
X166479500Y-113586610D01*
X166497443Y-113699902D01*
X166506598Y-113757701D01*
X166560127Y-113922445D01*
X166638768Y-114076788D01*
X166740586Y-114216928D01*
X166863072Y-114339414D01*
X167003212Y-114441232D01*
X167157555Y-114519873D01*
X167322299Y-114573402D01*
X167493389Y-114600500D01*
X167493390Y-114600500D01*
X167666610Y-114600500D01*
X167666611Y-114600500D01*
X167837701Y-114573402D01*
X168002445Y-114519873D01*
X168156788Y-114441232D01*
X168296928Y-114339414D01*
X168419414Y-114216928D01*
X168521232Y-114076788D01*
X168599873Y-113922445D01*
X168653402Y-113757701D01*
X168680500Y-113586611D01*
X168680500Y-113413389D01*
X168653402Y-113242299D01*
X168599873Y-113077555D01*
X168521232Y-112923212D01*
X168419414Y-112783072D01*
X168296928Y-112660586D01*
X168156788Y-112558768D01*
X168002445Y-112480127D01*
X167837701Y-112426598D01*
X167837699Y-112426597D01*
X167837698Y-112426597D01*
X167706271Y-112405781D01*
X167666611Y-112399500D01*
X167493389Y-112399500D01*
X167453728Y-112405781D01*
X167322302Y-112426597D01*
X167157552Y-112480128D01*
X167003211Y-112558768D01*
X166989518Y-112568717D01*
X166863072Y-112660586D01*
X166863070Y-112660588D01*
X166863069Y-112660588D01*
X166740588Y-112783069D01*
X166740588Y-112783070D01*
X166740586Y-112783072D01*
X166696859Y-112843256D01*
X166638768Y-112923211D01*
X166560128Y-113077552D01*
X166560127Y-113077554D01*
X166560127Y-113077555D01*
X166533735Y-113158780D01*
X166506597Y-113242302D01*
X166479500Y-113413389D01*
X164750500Y-113413389D01*
X164750500Y-113352494D01*
X164711993Y-113060007D01*
X164635639Y-112775048D01*
X164522743Y-112502493D01*
X164467309Y-112406479D01*
X164375238Y-112247006D01*
X164195647Y-112012959D01*
X164195641Y-112012952D01*
X163987047Y-111804358D01*
X163987040Y-111804352D01*
X163752993Y-111624761D01*
X163497510Y-111477258D01*
X163497500Y-111477254D01*
X163224961Y-111364364D01*
X163224954Y-111364362D01*
X163224952Y-111364361D01*
X162939993Y-111288007D01*
X162891113Y-111281571D01*
X162647513Y-111249500D01*
X162647506Y-111249500D01*
X162352494Y-111249500D01*
X162352486Y-111249500D01*
X162074085Y-111286153D01*
X162060007Y-111288007D01*
X161775048Y-111364361D01*
X161775038Y-111364364D01*
X161502499Y-111477254D01*
X161502489Y-111477258D01*
X161247006Y-111624761D01*
X161012959Y-111804352D01*
X161012952Y-111804358D01*
X160804358Y-112012952D01*
X160804352Y-112012959D01*
X160624761Y-112247006D01*
X160477258Y-112502489D01*
X160477254Y-112502499D01*
X160364364Y-112775038D01*
X160364361Y-112775048D01*
X160296359Y-113028839D01*
X160288008Y-113060004D01*
X160288006Y-113060015D01*
X160249500Y-113352486D01*
X158510854Y-113352486D01*
X158493402Y-113242299D01*
X158439873Y-113077555D01*
X158361232Y-112923212D01*
X158259414Y-112783072D01*
X158207482Y-112731140D01*
X158173997Y-112669817D01*
X158178981Y-112600125D01*
X158220853Y-112544192D01*
X158286317Y-112519775D01*
X158314561Y-112520986D01*
X158315212Y-112521089D01*
X158315215Y-112521090D01*
X158564038Y-112560500D01*
X158564039Y-112560500D01*
X158815961Y-112560500D01*
X158815962Y-112560500D01*
X159064785Y-112521090D01*
X159304379Y-112443241D01*
X159528845Y-112328870D01*
X159732656Y-112180793D01*
X159910793Y-112002656D01*
X160058870Y-111798845D01*
X160173241Y-111574379D01*
X160251090Y-111334785D01*
X160290500Y-111085962D01*
X160290500Y-110834038D01*
X160251090Y-110585215D01*
X160173241Y-110345621D01*
X160173239Y-110345618D01*
X160173239Y-110345616D01*
X160106089Y-110213828D01*
X160058870Y-110121155D01*
X160039952Y-110095117D01*
X159910798Y-109917350D01*
X159910794Y-109917345D01*
X159732654Y-109739205D01*
X159732649Y-109739201D01*
X159528848Y-109591132D01*
X159528847Y-109591131D01*
X159528845Y-109591130D01*
X159443931Y-109547864D01*
X159304383Y-109476760D01*
X159064785Y-109398910D01*
X158815962Y-109359500D01*
X158564038Y-109359500D01*
X158503395Y-109369105D01*
X158315214Y-109398910D01*
X158075616Y-109476760D01*
X157851151Y-109591132D01*
X157647350Y-109739201D01*
X157647345Y-109739205D01*
X157469205Y-109917345D01*
X157469201Y-109917350D01*
X157321132Y-110121151D01*
X157234185Y-110291795D01*
X157186211Y-110342591D01*
X157123700Y-110359500D01*
X139756569Y-110359500D01*
X139756553Y-110359499D01*
X139748957Y-110359499D01*
X139590842Y-110359499D01*
X139489024Y-110386781D01*
X139438114Y-110400423D01*
X139362685Y-110443972D01*
X139294785Y-110460444D01*
X139228758Y-110437591D01*
X139185568Y-110382669D01*
X139182754Y-110374900D01*
X139177750Y-110359500D01*
X139173241Y-110345621D01*
X139058870Y-110121155D01*
X139039952Y-110095117D01*
X138910798Y-109917350D01*
X138910794Y-109917345D01*
X138732654Y-109739205D01*
X138732649Y-109739201D01*
X138528848Y-109591132D01*
X138528847Y-109591131D01*
X138528845Y-109591130D01*
X138443931Y-109547864D01*
X138304383Y-109476760D01*
X138064785Y-109398910D01*
X137815962Y-109359500D01*
X137564038Y-109359500D01*
X137503395Y-109369105D01*
X137315214Y-109398910D01*
X137075616Y-109476760D01*
X136851151Y-109591132D01*
X136647350Y-109739201D01*
X136647345Y-109739205D01*
X136469205Y-109917345D01*
X136469201Y-109917350D01*
X136321132Y-110121151D01*
X136234185Y-110291795D01*
X136186211Y-110342591D01*
X136123700Y-110359500D01*
X135576672Y-110359500D01*
X135576656Y-110359499D01*
X135569060Y-110359499D01*
X135410945Y-110359499D01*
X135353469Y-110374900D01*
X135258216Y-110400423D01*
X135258211Y-110400426D01*
X135121292Y-110479475D01*
X135121284Y-110479481D01*
X133237586Y-112363181D01*
X133176263Y-112396666D01*
X133149905Y-112399500D01*
X117920943Y-112399500D01*
X117768216Y-112440423D01*
X117768209Y-112440426D01*
X117631290Y-112519475D01*
X117631282Y-112519481D01*
X117519481Y-112631282D01*
X117519475Y-112631290D01*
X117440426Y-112768209D01*
X117440423Y-112768216D01*
X117399500Y-112920943D01*
X117399500Y-113107417D01*
X117379815Y-113174456D01*
X117363181Y-113195098D01*
X116118799Y-114439479D01*
X116057476Y-114472964D01*
X115992801Y-114469730D01*
X115988257Y-114468253D01*
X115806581Y-114439479D01*
X115778302Y-114435000D01*
X115565728Y-114435000D01*
X115537449Y-114439479D01*
X115355775Y-114468253D01*
X115153600Y-114533944D01*
X114964194Y-114630451D01*
X114792226Y-114755392D01*
X114792218Y-114755399D01*
X114772533Y-114775083D01*
X114711209Y-114808565D01*
X114641517Y-114803578D01*
X114597175Y-114775079D01*
X113960451Y-114138355D01*
X113960449Y-114138352D01*
X113841577Y-114019480D01*
X113841575Y-114019479D01*
X113754765Y-113969360D01*
X113754765Y-113969359D01*
X113754761Y-113969358D01*
X113704646Y-113940423D01*
X113551918Y-113899499D01*
X113393804Y-113899499D01*
X113386208Y-113899499D01*
X113386192Y-113899500D01*
X110300098Y-113899500D01*
X110233059Y-113879815D01*
X110212417Y-113863181D01*
X110136819Y-113787583D01*
X110103334Y-113726260D01*
X110100500Y-113699902D01*
X110100500Y-108294071D01*
X142440000Y-108294071D01*
X142440000Y-108545928D01*
X142479397Y-108794669D01*
X142557219Y-109034184D01*
X142671557Y-109258583D01*
X142745748Y-109360697D01*
X142745748Y-109360698D01*
X143362421Y-108744024D01*
X143375359Y-108775258D01*
X143457437Y-108898097D01*
X143561903Y-109002563D01*
X143684742Y-109084641D01*
X143715974Y-109097577D01*
X143099300Y-109714250D01*
X143201416Y-109788442D01*
X143425815Y-109902780D01*
X143665330Y-109980602D01*
X143914072Y-110020000D01*
X144165928Y-110020000D01*
X144414669Y-109980602D01*
X144654184Y-109902780D01*
X144878575Y-109788446D01*
X144878581Y-109788442D01*
X144980697Y-109714250D01*
X144980698Y-109714250D01*
X144364025Y-109097578D01*
X144395258Y-109084641D01*
X144518097Y-109002563D01*
X144622563Y-108898097D01*
X144704641Y-108775258D01*
X144717578Y-108744025D01*
X145334250Y-109360698D01*
X145334250Y-109360697D01*
X145408442Y-109258581D01*
X145408446Y-109258575D01*
X145522780Y-109034184D01*
X145600602Y-108794669D01*
X145640000Y-108545928D01*
X145640000Y-108294071D01*
X163440000Y-108294071D01*
X163440000Y-108545928D01*
X163479397Y-108794669D01*
X163557219Y-109034184D01*
X163671557Y-109258583D01*
X163745748Y-109360697D01*
X163745748Y-109360698D01*
X164362421Y-108744024D01*
X164375359Y-108775258D01*
X164457437Y-108898097D01*
X164561903Y-109002563D01*
X164684742Y-109084641D01*
X164715974Y-109097577D01*
X164099300Y-109714250D01*
X164201416Y-109788442D01*
X164425815Y-109902780D01*
X164665330Y-109980602D01*
X164914072Y-110020000D01*
X165165928Y-110020000D01*
X165414669Y-109980602D01*
X165654184Y-109902780D01*
X165878575Y-109788446D01*
X165878581Y-109788442D01*
X165980697Y-109714250D01*
X165980698Y-109714250D01*
X165364025Y-109097578D01*
X165395258Y-109084641D01*
X165518097Y-109002563D01*
X165622563Y-108898097D01*
X165704641Y-108775258D01*
X165717578Y-108744025D01*
X166334250Y-109360698D01*
X166334250Y-109360697D01*
X166408442Y-109258581D01*
X166408446Y-109258575D01*
X166522780Y-109034184D01*
X166600602Y-108794669D01*
X166640000Y-108545928D01*
X166640000Y-108294071D01*
X166600602Y-108045330D01*
X166522780Y-107805815D01*
X166408442Y-107581416D01*
X166334250Y-107479301D01*
X166334250Y-107479300D01*
X165717577Y-108095973D01*
X165704641Y-108064742D01*
X165622563Y-107941903D01*
X165518097Y-107837437D01*
X165395258Y-107755359D01*
X165364024Y-107742421D01*
X165980698Y-107125748D01*
X165878583Y-107051557D01*
X165654184Y-106937219D01*
X165414669Y-106859397D01*
X165165928Y-106820000D01*
X164914072Y-106820000D01*
X164665330Y-106859397D01*
X164425815Y-106937219D01*
X164201413Y-107051559D01*
X164099301Y-107125747D01*
X164099300Y-107125748D01*
X164715974Y-107742421D01*
X164684742Y-107755359D01*
X164561903Y-107837437D01*
X164457437Y-107941903D01*
X164375359Y-108064742D01*
X164362421Y-108095974D01*
X163745748Y-107479300D01*
X163745747Y-107479301D01*
X163671559Y-107581413D01*
X163557219Y-107805815D01*
X163479397Y-108045330D01*
X163440000Y-108294071D01*
X145640000Y-108294071D01*
X145600602Y-108045330D01*
X145522780Y-107805815D01*
X145408442Y-107581416D01*
X145334250Y-107479301D01*
X145334250Y-107479300D01*
X144717577Y-108095973D01*
X144704641Y-108064742D01*
X144622563Y-107941903D01*
X144518097Y-107837437D01*
X144395258Y-107755359D01*
X144364024Y-107742421D01*
X144980698Y-107125748D01*
X144878583Y-107051557D01*
X144654184Y-106937219D01*
X144414669Y-106859397D01*
X144165928Y-106820000D01*
X143914072Y-106820000D01*
X143665330Y-106859397D01*
X143425815Y-106937219D01*
X143201413Y-107051559D01*
X143099301Y-107125747D01*
X143099300Y-107125748D01*
X143715974Y-107742421D01*
X143684742Y-107755359D01*
X143561903Y-107837437D01*
X143457437Y-107941903D01*
X143375359Y-108064742D01*
X143362421Y-108095974D01*
X142745748Y-107479300D01*
X142745747Y-107479301D01*
X142671559Y-107581413D01*
X142557219Y-107805815D01*
X142479397Y-108045330D01*
X142440000Y-108294071D01*
X110100500Y-108294071D01*
X110100500Y-102360000D01*
X110120185Y-102292961D01*
X110172989Y-102247206D01*
X110224500Y-102236000D01*
X114435346Y-102236000D01*
X114435362Y-102236001D01*
X114442958Y-102236001D01*
X114601069Y-102236001D01*
X114601072Y-102236001D01*
X114753800Y-102195077D01*
X114840402Y-102145077D01*
X114890731Y-102116020D01*
X115002535Y-102004216D01*
X115002535Y-102004214D01*
X115012739Y-101994011D01*
X115012743Y-101994006D01*
X115187493Y-101819255D01*
X115248814Y-101785772D01*
X115313488Y-101789006D01*
X115355772Y-101802746D01*
X115565728Y-101836000D01*
X115565729Y-101836000D01*
X115778301Y-101836000D01*
X115778302Y-101836000D01*
X115988258Y-101802746D01*
X116190427Y-101737057D01*
X116379831Y-101640551D01*
X116401804Y-101624586D01*
X116551801Y-101515609D01*
X116551803Y-101515606D01*
X116551807Y-101515604D01*
X116702119Y-101365292D01*
X116702121Y-101365288D01*
X116702124Y-101365286D01*
X116827063Y-101193320D01*
X116827062Y-101193320D01*
X116827066Y-101193316D01*
X116831529Y-101184554D01*
X116879503Y-101133759D01*
X116947323Y-101116963D01*
X117013459Y-101139499D01*
X117052501Y-101184556D01*
X117056966Y-101193320D01*
X117181905Y-101365286D01*
X117332228Y-101515609D01*
X117504194Y-101640548D01*
X117504196Y-101640549D01*
X117504199Y-101640551D01*
X117693603Y-101737057D01*
X117895772Y-101802746D01*
X118105728Y-101836000D01*
X118105729Y-101836000D01*
X118318301Y-101836000D01*
X118318302Y-101836000D01*
X118528258Y-101802746D01*
X118570538Y-101789007D01*
X118640377Y-101787011D01*
X118696537Y-101819257D01*
X119241654Y-102364374D01*
X119241664Y-102364385D01*
X119245994Y-102368715D01*
X119245995Y-102368716D01*
X119357799Y-102480520D01*
X119357801Y-102480521D01*
X119357805Y-102480524D01*
X119494724Y-102559573D01*
X119494731Y-102559577D01*
X119606534Y-102589534D01*
X119647457Y-102600500D01*
X119647458Y-102600500D01*
X169199903Y-102600500D01*
X169266942Y-102620185D01*
X169287584Y-102636819D01*
X175313181Y-108662416D01*
X175346666Y-108723739D01*
X175349500Y-108750097D01*
X175349500Y-112113330D01*
X175349499Y-112113348D01*
X175349499Y-112279054D01*
X175349498Y-112279054D01*
X175390423Y-112431785D01*
X175418332Y-112480123D01*
X175418333Y-112480127D01*
X175418334Y-112480127D01*
X175431244Y-112502489D01*
X175469479Y-112568714D01*
X175469481Y-112568717D01*
X175588349Y-112687585D01*
X175588355Y-112687590D01*
X175797200Y-112896435D01*
X175830685Y-112957758D01*
X175827450Y-113022433D01*
X175786447Y-113148628D01*
X175749500Y-113381902D01*
X175749500Y-113618097D01*
X175786446Y-113851368D01*
X175859433Y-114075996D01*
X175966657Y-114286433D01*
X176105483Y-114477510D01*
X176272490Y-114644517D01*
X176463567Y-114783343D01*
X176513068Y-114808565D01*
X176674003Y-114890566D01*
X176674005Y-114890566D01*
X176674008Y-114890568D01*
X176794412Y-114929689D01*
X176898631Y-114963553D01*
X177131903Y-115000500D01*
X177131908Y-115000500D01*
X177368097Y-115000500D01*
X177601368Y-114963553D01*
X177825992Y-114890568D01*
X178036433Y-114783343D01*
X178227510Y-114644517D01*
X178394517Y-114477510D01*
X178533343Y-114286433D01*
X178640568Y-114075992D01*
X178713553Y-113851368D01*
X178720786Y-113805703D01*
X178750500Y-113618097D01*
X178750500Y-113381902D01*
X178713553Y-113148631D01*
X178660743Y-112986100D01*
X178640568Y-112924008D01*
X178640566Y-112924005D01*
X178640566Y-112924003D01*
X178569752Y-112785024D01*
X178533343Y-112713567D01*
X178394517Y-112522490D01*
X178227510Y-112355483D01*
X178171259Y-112314614D01*
X178128595Y-112259284D01*
X178123902Y-112227455D01*
X177379409Y-111482962D01*
X177442993Y-111465925D01*
X177557007Y-111400099D01*
X177650099Y-111307007D01*
X177715925Y-111192993D01*
X177732962Y-111129409D01*
X178472658Y-111869105D01*
X178472658Y-111869104D01*
X178532914Y-111786169D01*
X178532918Y-111786163D01*
X178640102Y-111575802D01*
X178713065Y-111351247D01*
X178750000Y-111118052D01*
X178750000Y-110881947D01*
X178713065Y-110648752D01*
X178640102Y-110424197D01*
X178532914Y-110213828D01*
X178463394Y-110118142D01*
X178439914Y-110052335D01*
X178455739Y-109984281D01*
X178489401Y-109945989D01*
X178492329Y-109943796D01*
X178492331Y-109943796D01*
X178607546Y-109857546D01*
X178693796Y-109742331D01*
X178744091Y-109607483D01*
X178750500Y-109547873D01*
X178750499Y-107452128D01*
X178744091Y-107392517D01*
X178693796Y-107257669D01*
X178693795Y-107257668D01*
X178693793Y-107257664D01*
X178607547Y-107142455D01*
X178607544Y-107142452D01*
X178492335Y-107056206D01*
X178492328Y-107056202D01*
X178357482Y-107005908D01*
X178357483Y-107005908D01*
X178297883Y-106999501D01*
X178297881Y-106999500D01*
X178297873Y-106999500D01*
X178297865Y-106999500D01*
X176650098Y-106999500D01*
X176583059Y-106979815D01*
X176562417Y-106963181D01*
X170823090Y-101223855D01*
X170823088Y-101223852D01*
X170704217Y-101104981D01*
X170704216Y-101104980D01*
X170600460Y-101045077D01*
X170600459Y-101045076D01*
X170567283Y-101025922D01*
X170511381Y-101010943D01*
X170414557Y-100984999D01*
X170256443Y-100984999D01*
X170248847Y-100984999D01*
X170248831Y-100985000D01*
X157940652Y-100985000D01*
X157873613Y-100965315D01*
X157827858Y-100912511D01*
X157817914Y-100843353D01*
X157846939Y-100779797D01*
X157852971Y-100773319D01*
X161800367Y-96825923D01*
X165758506Y-92867784D01*
X165758511Y-92867780D01*
X165768714Y-92857576D01*
X165768716Y-92857576D01*
X165880520Y-92745772D01*
X165959577Y-92608840D01*
X166000500Y-92456113D01*
X166000500Y-88413389D01*
X166479500Y-88413389D01*
X166479500Y-88586610D01*
X166506336Y-88756052D01*
X166506598Y-88757701D01*
X166560127Y-88922445D01*
X166638768Y-89076788D01*
X166740586Y-89216928D01*
X166863072Y-89339414D01*
X167003212Y-89441232D01*
X167157555Y-89519873D01*
X167322299Y-89573402D01*
X167493389Y-89600500D01*
X167493390Y-89600500D01*
X167666610Y-89600500D01*
X167666611Y-89600500D01*
X167837701Y-89573402D01*
X168002445Y-89519873D01*
X168156788Y-89441232D01*
X168296928Y-89339414D01*
X168419414Y-89216928D01*
X168521232Y-89076788D01*
X168599873Y-88922445D01*
X168653402Y-88757701D01*
X168680500Y-88586611D01*
X168680500Y-88413389D01*
X168653402Y-88242299D01*
X168599873Y-88077555D01*
X168521232Y-87923212D01*
X168419414Y-87783072D01*
X168296928Y-87660586D01*
X168156788Y-87558768D01*
X168002445Y-87480127D01*
X167837701Y-87426598D01*
X167837699Y-87426597D01*
X167837698Y-87426597D01*
X167706271Y-87405781D01*
X167666611Y-87399500D01*
X167493389Y-87399500D01*
X167453728Y-87405781D01*
X167322302Y-87426597D01*
X167157552Y-87480128D01*
X167003211Y-87558768D01*
X166946289Y-87600125D01*
X166863072Y-87660586D01*
X166863070Y-87660588D01*
X166863069Y-87660588D01*
X166740588Y-87783069D01*
X166740588Y-87783070D01*
X166740586Y-87783072D01*
X166713607Y-87820205D01*
X166638768Y-87923211D01*
X166560128Y-88077552D01*
X166506597Y-88242302D01*
X166479500Y-88413389D01*
X166000500Y-88413389D01*
X166000500Y-85848958D01*
X166000501Y-85848945D01*
X166000501Y-85680844D01*
X166000501Y-85680842D01*
X165959577Y-85528114D01*
X165919133Y-85458064D01*
X165880520Y-85391183D01*
X165768716Y-85279379D01*
X165768715Y-85279378D01*
X165764385Y-85275048D01*
X165764374Y-85275038D01*
X165599467Y-85110131D01*
X165565982Y-85048808D01*
X165570966Y-84979116D01*
X165612838Y-84923183D01*
X165648840Y-84904516D01*
X165654186Y-84902779D01*
X165654187Y-84902779D01*
X165878575Y-84788446D01*
X165878581Y-84788442D01*
X165980697Y-84714250D01*
X165980698Y-84714250D01*
X165364025Y-84097578D01*
X165395258Y-84084641D01*
X165518097Y-84002563D01*
X165622563Y-83898097D01*
X165704641Y-83775258D01*
X165717578Y-83744025D01*
X166334250Y-84360698D01*
X166334250Y-84360697D01*
X166408442Y-84258581D01*
X166408446Y-84258575D01*
X166522780Y-84034184D01*
X166600602Y-83794669D01*
X166640000Y-83545928D01*
X166640000Y-83294071D01*
X166600602Y-83045330D01*
X166522780Y-82805815D01*
X166408442Y-82581416D01*
X166334250Y-82479301D01*
X166334250Y-82479300D01*
X165717577Y-83095973D01*
X165704641Y-83064742D01*
X165622563Y-82941903D01*
X165518097Y-82837437D01*
X165395258Y-82755359D01*
X165364024Y-82742421D01*
X165980698Y-82125748D01*
X165878583Y-82051557D01*
X165654184Y-81937219D01*
X165414669Y-81859397D01*
X165165928Y-81820000D01*
X164914072Y-81820000D01*
X164665330Y-81859397D01*
X164425813Y-81937220D01*
X164420789Y-81939780D01*
X164352119Y-81952672D01*
X164287380Y-81926392D01*
X164247126Y-81869284D01*
X164240500Y-81829292D01*
X164240500Y-76724500D01*
X164260185Y-76657461D01*
X164312989Y-76611706D01*
X164364500Y-76600500D01*
X180634217Y-76600500D01*
X180701256Y-76620185D01*
G37*
%TD.AperFunction*%
%TD*%
M02*
