%TF.GenerationSoftware,KiCad,Pcbnew,10.0.5-10.0.5~ubuntu26.04.1*%
%TF.CreationDate,2026-08-21T16:43:17+01:00*%
%TF.ProjectId,astrapad,61737472-6170-4616-942e-6b696361645f,rev?*%
%TF.SameCoordinates,Original*%
%TF.FileFunction,Legend,Bot*%
%TF.FilePolarity,Positive*%
%FSLAX46Y46*%
G04 Gerber Fmt 4.6, Leading zero omitted, Abs format (unit mm)*
G04 Created by KiCad (PCBNEW 10.0.5-10.0.5~ubuntu26.04.1) date 2026-08-21 16:43:17*
%MOMM*%
%LPD*%
G01*
G04 APERTURE LIST*
%ADD10C,0.100000*%
%ADD11C,0.200000*%
G04 APERTURE END LIST*
D10*
X183077068Y-124896228D02*
X183124687Y-124848609D01*
X183124687Y-124848609D02*
X183219925Y-124800990D01*
X183219925Y-124800990D02*
X183315163Y-124800990D01*
X183315163Y-124800990D02*
X183410401Y-124848609D01*
X183410401Y-124848609D02*
X183458020Y-124896228D01*
X183458020Y-124896228D02*
X183505639Y-124991466D01*
X183505639Y-124991466D02*
X183505639Y-125086704D01*
X183505639Y-125086704D02*
X183458020Y-125181942D01*
X183458020Y-125181942D02*
X183410401Y-125229561D01*
X183410401Y-125229561D02*
X183315163Y-125277180D01*
X183315163Y-125277180D02*
X183219925Y-125277180D01*
X183219925Y-125277180D02*
X183124687Y-125229561D01*
X183124687Y-125229561D02*
X183077068Y-125181942D01*
X183077068Y-124800990D02*
X183077068Y-125181942D01*
X183077068Y-125181942D02*
X183029449Y-125229561D01*
X183029449Y-125229561D02*
X182981830Y-125229561D01*
X182981830Y-125229561D02*
X182886591Y-125181942D01*
X182886591Y-125181942D02*
X182838972Y-125086704D01*
X182838972Y-125086704D02*
X182838972Y-124848609D01*
X182838972Y-124848609D02*
X182934211Y-124705752D01*
X182934211Y-124705752D02*
X183077068Y-124610514D01*
X183077068Y-124610514D02*
X183267544Y-124562895D01*
X183267544Y-124562895D02*
X183458020Y-124610514D01*
X183458020Y-124610514D02*
X183600877Y-124705752D01*
X183600877Y-124705752D02*
X183696115Y-124848609D01*
X183696115Y-124848609D02*
X183743734Y-125039085D01*
X183743734Y-125039085D02*
X183696115Y-125229561D01*
X183696115Y-125229561D02*
X183600877Y-125372419D01*
X183600877Y-125372419D02*
X183458020Y-125467657D01*
X183458020Y-125467657D02*
X183267544Y-125515276D01*
X183267544Y-125515276D02*
X183077068Y-125467657D01*
X183077068Y-125467657D02*
X182934211Y-125372419D01*
X182410401Y-124705752D02*
X182410401Y-125705752D01*
X182410401Y-124753371D02*
X182315163Y-124705752D01*
X182315163Y-124705752D02*
X182124687Y-124705752D01*
X182124687Y-124705752D02*
X182029449Y-124753371D01*
X182029449Y-124753371D02*
X181981830Y-124800990D01*
X181981830Y-124800990D02*
X181934211Y-124896228D01*
X181934211Y-124896228D02*
X181934211Y-125181942D01*
X181934211Y-125181942D02*
X181981830Y-125277180D01*
X181981830Y-125277180D02*
X182029449Y-125324800D01*
X182029449Y-125324800D02*
X182124687Y-125372419D01*
X182124687Y-125372419D02*
X182315163Y-125372419D01*
X182315163Y-125372419D02*
X182410401Y-125324800D01*
X181505639Y-125372419D02*
X181505639Y-124372419D01*
X181077068Y-125372419D02*
X181077068Y-124848609D01*
X181077068Y-124848609D02*
X181124687Y-124753371D01*
X181124687Y-124753371D02*
X181219925Y-124705752D01*
X181219925Y-124705752D02*
X181362782Y-124705752D01*
X181362782Y-124705752D02*
X181458020Y-124753371D01*
X181458020Y-124753371D02*
X181505639Y-124800990D01*
X180172306Y-125372419D02*
X180172306Y-124848609D01*
X180172306Y-124848609D02*
X180219925Y-124753371D01*
X180219925Y-124753371D02*
X180315163Y-124705752D01*
X180315163Y-124705752D02*
X180505639Y-124705752D01*
X180505639Y-124705752D02*
X180600877Y-124753371D01*
X180172306Y-125324800D02*
X180267544Y-125372419D01*
X180267544Y-125372419D02*
X180505639Y-125372419D01*
X180505639Y-125372419D02*
X180600877Y-125324800D01*
X180600877Y-125324800D02*
X180648496Y-125229561D01*
X180648496Y-125229561D02*
X180648496Y-125134323D01*
X180648496Y-125134323D02*
X180600877Y-125039085D01*
X180600877Y-125039085D02*
X180505639Y-124991466D01*
X180505639Y-124991466D02*
X180267544Y-124991466D01*
X180267544Y-124991466D02*
X180172306Y-124943847D01*
X179696115Y-124705752D02*
X179696115Y-125372419D01*
X179696115Y-124800990D02*
X179648496Y-124753371D01*
X179648496Y-124753371D02*
X179553258Y-124705752D01*
X179553258Y-124705752D02*
X179410401Y-124705752D01*
X179410401Y-124705752D02*
X179315163Y-124753371D01*
X179315163Y-124753371D02*
X179267544Y-124848609D01*
X179267544Y-124848609D02*
X179267544Y-125372419D01*
X178934210Y-124705752D02*
X178553258Y-124705752D01*
X178791353Y-124372419D02*
X178791353Y-125229561D01*
X178791353Y-125229561D02*
X178743734Y-125324800D01*
X178743734Y-125324800D02*
X178648496Y-125372419D01*
X178648496Y-125372419D02*
X178553258Y-125372419D01*
X178077067Y-125372419D02*
X178172305Y-125324800D01*
X178172305Y-125324800D02*
X178219924Y-125277180D01*
X178219924Y-125277180D02*
X178267543Y-125181942D01*
X178267543Y-125181942D02*
X178267543Y-124896228D01*
X178267543Y-124896228D02*
X178219924Y-124800990D01*
X178219924Y-124800990D02*
X178172305Y-124753371D01*
X178172305Y-124753371D02*
X178077067Y-124705752D01*
X178077067Y-124705752D02*
X177934210Y-124705752D01*
X177934210Y-124705752D02*
X177838972Y-124753371D01*
X177838972Y-124753371D02*
X177791353Y-124800990D01*
X177791353Y-124800990D02*
X177743734Y-124896228D01*
X177743734Y-124896228D02*
X177743734Y-125181942D01*
X177743734Y-125181942D02*
X177791353Y-125277180D01*
X177791353Y-125277180D02*
X177838972Y-125324800D01*
X177838972Y-125324800D02*
X177934210Y-125372419D01*
X177934210Y-125372419D02*
X178077067Y-125372419D01*
X177315162Y-125372419D02*
X177315162Y-124705752D01*
X177315162Y-124800990D02*
X177267543Y-124753371D01*
X177267543Y-124753371D02*
X177172305Y-124705752D01*
X177172305Y-124705752D02*
X177029448Y-124705752D01*
X177029448Y-124705752D02*
X176934210Y-124753371D01*
X176934210Y-124753371D02*
X176886591Y-124848609D01*
X176886591Y-124848609D02*
X176886591Y-125372419D01*
X176886591Y-124848609D02*
X176838972Y-124753371D01*
X176838972Y-124753371D02*
X176743734Y-124705752D01*
X176743734Y-124705752D02*
X176600877Y-124705752D01*
X176600877Y-124705752D02*
X176505638Y-124753371D01*
X176505638Y-124753371D02*
X176458019Y-124848609D01*
X176458019Y-124848609D02*
X176458019Y-125372419D01*
X175981829Y-124991466D02*
X175219925Y-124991466D01*
X174315163Y-125372419D02*
X174315163Y-124848609D01*
X174315163Y-124848609D02*
X174362782Y-124753371D01*
X174362782Y-124753371D02*
X174458020Y-124705752D01*
X174458020Y-124705752D02*
X174648496Y-124705752D01*
X174648496Y-124705752D02*
X174743734Y-124753371D01*
X174315163Y-125324800D02*
X174410401Y-125372419D01*
X174410401Y-125372419D02*
X174648496Y-125372419D01*
X174648496Y-125372419D02*
X174743734Y-125324800D01*
X174743734Y-125324800D02*
X174791353Y-125229561D01*
X174791353Y-125229561D02*
X174791353Y-125134323D01*
X174791353Y-125134323D02*
X174743734Y-125039085D01*
X174743734Y-125039085D02*
X174648496Y-124991466D01*
X174648496Y-124991466D02*
X174410401Y-124991466D01*
X174410401Y-124991466D02*
X174315163Y-124943847D01*
X173886591Y-125324800D02*
X173791353Y-125372419D01*
X173791353Y-125372419D02*
X173600877Y-125372419D01*
X173600877Y-125372419D02*
X173505639Y-125324800D01*
X173505639Y-125324800D02*
X173458020Y-125229561D01*
X173458020Y-125229561D02*
X173458020Y-125181942D01*
X173458020Y-125181942D02*
X173505639Y-125086704D01*
X173505639Y-125086704D02*
X173600877Y-125039085D01*
X173600877Y-125039085D02*
X173743734Y-125039085D01*
X173743734Y-125039085D02*
X173838972Y-124991466D01*
X173838972Y-124991466D02*
X173886591Y-124896228D01*
X173886591Y-124896228D02*
X173886591Y-124848609D01*
X173886591Y-124848609D02*
X173838972Y-124753371D01*
X173838972Y-124753371D02*
X173743734Y-124705752D01*
X173743734Y-124705752D02*
X173600877Y-124705752D01*
X173600877Y-124705752D02*
X173505639Y-124753371D01*
X172600877Y-125324800D02*
X172696115Y-125372419D01*
X172696115Y-125372419D02*
X172886591Y-125372419D01*
X172886591Y-125372419D02*
X172981829Y-125324800D01*
X172981829Y-125324800D02*
X173029448Y-125277180D01*
X173029448Y-125277180D02*
X173077067Y-125181942D01*
X173077067Y-125181942D02*
X173077067Y-124896228D01*
X173077067Y-124896228D02*
X173029448Y-124800990D01*
X173029448Y-124800990D02*
X172981829Y-124753371D01*
X172981829Y-124753371D02*
X172886591Y-124705752D01*
X172886591Y-124705752D02*
X172696115Y-124705752D01*
X172696115Y-124705752D02*
X172600877Y-124753371D01*
X172172305Y-125372419D02*
X172172305Y-124705752D01*
X172172305Y-124372419D02*
X172219924Y-124420038D01*
X172219924Y-124420038D02*
X172172305Y-124467657D01*
X172172305Y-124467657D02*
X172124686Y-124420038D01*
X172124686Y-124420038D02*
X172172305Y-124372419D01*
X172172305Y-124372419D02*
X172172305Y-124467657D01*
X171696115Y-125372419D02*
X171696115Y-124705752D01*
X171696115Y-124372419D02*
X171743734Y-124420038D01*
X171743734Y-124420038D02*
X171696115Y-124467657D01*
X171696115Y-124467657D02*
X171648496Y-124420038D01*
X171648496Y-124420038D02*
X171696115Y-124372419D01*
X171696115Y-124372419D02*
X171696115Y-124467657D01*
D11*
G36*
X177637091Y-97974505D02*
G01*
X178074450Y-98979243D01*
X178941695Y-101176635D01*
X179902119Y-103810001D01*
X178510423Y-103810001D01*
X178250976Y-103030805D01*
X177971441Y-102250754D01*
X175178218Y-102250754D01*
X174908941Y-103030805D01*
X174639235Y-103810001D01*
X173208644Y-103810001D01*
X173938686Y-101789135D01*
X174171502Y-101183901D01*
X175511610Y-101183901D01*
X177647880Y-101183901D01*
X177334577Y-100305543D01*
X177035807Y-99530194D01*
X176780635Y-98882218D01*
X176589576Y-98376574D01*
X176383984Y-98882218D01*
X176124110Y-99530194D01*
X175825340Y-100305543D01*
X175511610Y-101183901D01*
X174171502Y-101183901D01*
X174610170Y-100043532D01*
X175256864Y-98478729D01*
X175923220Y-97012234D01*
X177187543Y-97012234D01*
X177637091Y-97974505D01*
G37*
G36*
X170360711Y-103946776D02*
G01*
X170944699Y-103923450D01*
X171411329Y-103860047D01*
X171779762Y-103765121D01*
X172285398Y-103578294D01*
X172580329Y-103436004D01*
X172189235Y-102367014D01*
X171889744Y-102510908D01*
X171464323Y-102660655D01*
X170987673Y-102760635D01*
X170367550Y-102797858D01*
X169911226Y-102766941D01*
X169604995Y-102688426D01*
X169407554Y-102577734D01*
X169255379Y-102414245D01*
X169164706Y-102219952D01*
X169133147Y-101984896D01*
X169175210Y-101711947D01*
X169294713Y-101500196D01*
X169485329Y-101325697D01*
X169779413Y-101152272D01*
X170125342Y-101000668D01*
X170591948Y-100828711D01*
X171053365Y-100638223D01*
X171488258Y-100422658D01*
X171876142Y-100154654D01*
X172178550Y-99819988D01*
X172320153Y-99559224D01*
X172410553Y-99237613D01*
X172443126Y-98840330D01*
X172407995Y-98438074D01*
X172307290Y-98088737D01*
X172143928Y-97782453D01*
X171920864Y-97514869D01*
X171641946Y-97288532D01*
X171299337Y-97101993D01*
X170928529Y-96972476D01*
X170501257Y-96890641D01*
X170008086Y-96861780D01*
X169372873Y-96900990D01*
X168854893Y-97009242D01*
X168385284Y-97171498D01*
X168044923Y-97333230D01*
X168450549Y-98392389D01*
X168748731Y-98249689D01*
X169099380Y-98123539D01*
X169479468Y-98040664D01*
X169944827Y-98010698D01*
X170323845Y-98034410D01*
X170599403Y-98096631D01*
X170795403Y-98187225D01*
X170948908Y-98324870D01*
X171041977Y-98506088D01*
X171075366Y-98745442D01*
X171032159Y-98998786D01*
X170907815Y-99195948D01*
X170718340Y-99356027D01*
X170455172Y-99504549D01*
X169815317Y-99764423D01*
X169168208Y-100024621D01*
X168678367Y-100273486D01*
X168391190Y-100469233D01*
X168160348Y-100689248D01*
X167979527Y-100934713D01*
X167851571Y-101209740D01*
X167768349Y-101555277D01*
X167738032Y-101987888D01*
X167772707Y-102390397D01*
X167872036Y-102739754D01*
X168032955Y-103045765D01*
X168254951Y-103309957D01*
X168544045Y-103533435D01*
X168911741Y-103716822D01*
X169307991Y-103838952D01*
X169786133Y-103918222D01*
X170360711Y-103946776D01*
G37*
G36*
X165255547Y-103810001D02*
G01*
X165255547Y-98147474D01*
X167334542Y-98147474D01*
X167334542Y-96998556D01*
X161836147Y-96998556D01*
X161836147Y-98147474D01*
X163915143Y-98147474D01*
X163915143Y-103810001D01*
X165255547Y-103810001D01*
G37*
G36*
X159868710Y-96960943D02*
G01*
X160380536Y-97019260D01*
X160858199Y-97103275D01*
X160858199Y-103810001D01*
X159517794Y-103810001D01*
X159517794Y-101265967D01*
X158687735Y-101265967D01*
X158624476Y-101261265D01*
X158551386Y-101256564D01*
X158300917Y-101579059D01*
X158024371Y-101983186D01*
X157472566Y-102872230D01*
X156940422Y-103810001D01*
X155440587Y-103810001D01*
X155835528Y-103034224D01*
X156284752Y-102268279D01*
X156748935Y-101571148D01*
X157178070Y-101001818D01*
X156776036Y-100808291D01*
X156453358Y-100576824D01*
X156198839Y-100307680D01*
X156012320Y-99991910D01*
X155894437Y-99605723D01*
X155852198Y-99131407D01*
X155852933Y-99122003D01*
X157247313Y-99122003D01*
X157270991Y-99392985D01*
X157336097Y-99606500D01*
X157437517Y-99774681D01*
X157578678Y-99911384D01*
X157766754Y-100022196D01*
X158012404Y-100105508D01*
X158422250Y-100173239D01*
X158981803Y-100199114D01*
X159517794Y-100199114D01*
X159517794Y-98104732D01*
X159225436Y-98080369D01*
X158845455Y-98065409D01*
X158374261Y-98091765D01*
X157992742Y-98164144D01*
X157662966Y-98301184D01*
X157437517Y-98494971D01*
X157335509Y-98659645D01*
X157270696Y-98865070D01*
X157247313Y-99122003D01*
X155852933Y-99122003D01*
X155887148Y-98684514D01*
X155986110Y-98304473D01*
X156143900Y-97979599D01*
X156360451Y-97700985D01*
X156640797Y-97463167D01*
X157040246Y-97241007D01*
X157540144Y-97069757D01*
X158161403Y-96957402D01*
X158928375Y-96916490D01*
X159868710Y-96960943D01*
G37*
G36*
X152566051Y-97974505D02*
G01*
X153003410Y-98979243D01*
X153870655Y-101176635D01*
X154831079Y-103810001D01*
X153439384Y-103810001D01*
X153179937Y-103030805D01*
X152900401Y-102250754D01*
X150107178Y-102250754D01*
X149837901Y-103030805D01*
X149568196Y-103810001D01*
X148137604Y-103810001D01*
X148867646Y-101789135D01*
X149100463Y-101183901D01*
X150440570Y-101183901D01*
X152576840Y-101183901D01*
X152263538Y-100305543D01*
X151964767Y-99530194D01*
X151709595Y-98882218D01*
X151518536Y-98376574D01*
X151312944Y-98882218D01*
X151053070Y-99530194D01*
X150754300Y-100305543D01*
X150440570Y-101183901D01*
X149100463Y-101183901D01*
X149539131Y-100043532D01*
X150185825Y-98478729D01*
X150852180Y-97012234D01*
X152116503Y-97012234D01*
X152566051Y-97974505D01*
G37*
G36*
X146236845Y-96988298D02*
G01*
X146767748Y-97046985D01*
X147248988Y-97130630D01*
X147248988Y-103810001D01*
X145908583Y-103810001D01*
X145908583Y-101457453D01*
X145327712Y-101457453D01*
X144659096Y-101429050D01*
X144094636Y-101349837D01*
X143620150Y-101227499D01*
X143175864Y-101036591D01*
X142824793Y-100791856D01*
X142552442Y-100493183D01*
X142356639Y-100139776D01*
X142232658Y-99710209D01*
X142188276Y-99186117D01*
X142189028Y-99176286D01*
X143583391Y-99176286D01*
X143608790Y-99469277D01*
X143677975Y-99695341D01*
X143784708Y-99869142D01*
X143933348Y-100010324D01*
X144129328Y-100124837D01*
X144383103Y-100211082D01*
X144802132Y-100281988D01*
X145349511Y-100308535D01*
X145908583Y-100308535D01*
X145908583Y-98131660D01*
X145594853Y-98107296D01*
X145202049Y-98092764D01*
X144745068Y-98117280D01*
X144363442Y-98185515D01*
X144028808Y-98317727D01*
X143789410Y-98512495D01*
X143679655Y-98680293D01*
X143609148Y-98896935D01*
X143583391Y-99176286D01*
X142189028Y-99176286D01*
X142223948Y-98719548D01*
X142324380Y-98327375D01*
X142483438Y-97996534D01*
X142700287Y-97716973D01*
X142979439Y-97482401D01*
X143379334Y-97263823D01*
X143880372Y-97095064D01*
X144503594Y-96984227D01*
X145273429Y-96943846D01*
X146236845Y-96988298D01*
G37*
G36*
X140085241Y-97974505D02*
G01*
X140522601Y-98979243D01*
X141389846Y-101176635D01*
X142350270Y-103810001D01*
X140958574Y-103810001D01*
X140699127Y-103030805D01*
X140419591Y-102250754D01*
X137626369Y-102250754D01*
X137357091Y-103030805D01*
X137087386Y-103810001D01*
X135656795Y-103810001D01*
X136386837Y-101789135D01*
X136619653Y-101183901D01*
X137959760Y-101183901D01*
X140096031Y-101183901D01*
X139782728Y-100305543D01*
X139483958Y-99530194D01*
X139228785Y-98882218D01*
X139037726Y-98376574D01*
X138832135Y-98882218D01*
X138572260Y-99530194D01*
X138273490Y-100305543D01*
X137959760Y-101183901D01*
X136619653Y-101183901D01*
X137058321Y-100043532D01*
X137705015Y-98478729D01*
X138371371Y-97012234D01*
X139635694Y-97012234D01*
X140085241Y-97974505D01*
G37*
G36*
X133730390Y-96982741D02*
G01*
X134270474Y-97037125D01*
X134768178Y-97119090D01*
X134768178Y-103710838D01*
X134272395Y-103800007D01*
X133750052Y-103853170D01*
X132809289Y-103887792D01*
X132033096Y-103842117D01*
X131355565Y-103712155D01*
X130762779Y-103505674D01*
X130346231Y-103286669D01*
X129986460Y-103022268D01*
X129677714Y-102711205D01*
X129416390Y-102349917D01*
X129216289Y-101957001D01*
X129067917Y-101508843D01*
X128974397Y-100996766D01*
X128941521Y-100410690D01*
X128941757Y-100406415D01*
X130336636Y-100406415D01*
X130377804Y-100945635D01*
X130493813Y-101399909D01*
X130677712Y-101784115D01*
X130928620Y-102109704D01*
X131241683Y-102367224D01*
X131634182Y-102559878D01*
X132123750Y-102684333D01*
X132733208Y-102729470D01*
X133168326Y-102729470D01*
X133427773Y-102709809D01*
X133427773Y-98122256D01*
X133119600Y-98092764D01*
X132693885Y-98092764D01*
X132081921Y-98136738D01*
X131595760Y-98257284D01*
X131211098Y-98442508D01*
X130908958Y-98688167D01*
X130669527Y-99000504D01*
X130491508Y-99380947D01*
X130377565Y-99843587D01*
X130336636Y-100406415D01*
X128941757Y-100406415D01*
X128975385Y-99797397D01*
X129070897Y-99271250D01*
X129220983Y-98819865D01*
X129421519Y-98432567D01*
X129684950Y-98075860D01*
X129993666Y-97771366D01*
X130351091Y-97515314D01*
X130762779Y-97306302D01*
X131347967Y-97110257D01*
X132012964Y-96987055D01*
X132770394Y-96943846D01*
X133730390Y-96982741D01*
G37*
M02*
