M48
; DRILL file KiCad 10.0.5-10.0.5~ubuntu26.04.1 date 2026-08-21T16:42:53
; FORMAT={-:-/ absolute / metric / decimal}
; #@! TF.CreationDate,2026-08-21T16:42:53+01:00
; #@! TF.GenerationSoftware,Kicad,Pcbnew,10.0.5-10.0.5~ubuntu26.04.1
; #@! TF.FileFunction,Plated,1,2,PTH
FMAT,2
METRIC
; #@! TA.AperFunction,Plated,PTH,ComponentDrill
T1C1.000
; #@! TA.AperFunction,Plated,PTH,ComponentDrill
T2C1.500
%
G90
G05
T1
X110.592Y-100.486
X110.592Y-115.736
X111.5Y-78.5
X113.132Y-100.486
X113.132Y-115.736
X114.04Y-78.5
X115.672Y-100.486
X115.672Y-115.736
X116.58Y-78.5
X118.212Y-100.486
X118.212Y-115.736
X119.12Y-78.5
X120.752Y-100.486
X120.752Y-115.736
X123.292Y-100.486
X123.292Y-115.736
X125.832Y-100.486
X125.832Y-115.736
X177.25Y-88.5
X177.25Y-91.0
X177.25Y-93.5
X177.25Y-108.5
X177.25Y-111.0
X177.25Y-113.5
X191.75Y-88.5
X191.75Y-93.5
X191.75Y-108.5
X191.75Y-113.5
T2
X137.69Y-85.96
X137.69Y-110.96
X144.04Y-83.42
X144.04Y-108.42
X158.69Y-85.96
X158.69Y-110.96
X165.04Y-83.42
X165.04Y-108.42
T2
G00X184.1Y-85.4
M15
G01X185.4Y-85.4
M16
G05
G00X184.1Y-96.6
M15
G01X185.4Y-96.6
M16
G05
G00X184.1Y-105.4
M15
G01X185.4Y-105.4
M16
G05
G00X184.1Y-116.6
M15
G01X185.4Y-116.6
M16
G05
M30
