M48
; DRILL file KiCad 10.0.5-10.0.5~ubuntu26.04.1 date 2026-08-20T20:18:49
; FORMAT={-:-/ absolute / metric / decimal}
; #@! TF.CreationDate,2026-08-20T20:18:49+01:00
; #@! TF.GenerationSoftware,Kicad,Pcbnew,10.0.5-10.0.5~ubuntu26.04.1
; #@! TF.FileFunction,Plated,1,2,PTH
FMAT,2
METRIC
; #@! TA.AperFunction,Plated,PTH,ComponentDrill
T1C1.000
; #@! TA.AperFunction,Plated,PTH,ComponentDrill
T2C1.500
%
G90
G05
T1
X110.764Y-108.092
X110.764Y-110.632
X110.764Y-113.172
X110.764Y-115.712
X110.764Y-118.252
X110.764Y-120.792
X110.764Y-123.332
X111.5Y-78.5
X114.04Y-78.5
X116.58Y-78.5
X119.12Y-78.5
X126.014Y-108.092
X126.014Y-110.632
X126.014Y-113.172
X126.014Y-115.712
X126.014Y-118.252
X126.014Y-120.792
X126.014Y-123.332
X177.25Y-88.5
X177.25Y-91.0
X177.25Y-93.5
X177.25Y-108.5
X177.25Y-111.0
X177.25Y-113.5
X191.75Y-88.5
X191.75Y-93.5
X191.75Y-108.5
X191.75Y-113.5
T2
X137.69Y-85.96
X137.69Y-110.96
X144.04Y-83.42
X144.04Y-108.42
X158.69Y-85.96
X158.69Y-110.96
X165.04Y-83.42
X165.04Y-108.42
T2
G00X184.1Y-85.4
M15
G01X185.4Y-85.4
M16
G05
G00X184.1Y-96.6
M15
G01X185.4Y-96.6
M16
G05
G00X184.1Y-105.4
M15
G01X185.4Y-105.4
M16
G05
G00X184.1Y-116.6
M15
G01X185.4Y-116.6
M16
G05
M30
