%TF.GenerationSoftware,KiCad,Pcbnew,10.0.5-10.0.5~ubuntu26.04.1*%
%TF.CreationDate,2026-08-20T20:18:31+01:00*%
%TF.ProjectId,astrapad,61737472-6170-4616-942e-6b696361645f,rev?*%
%TF.SameCoordinates,Original*%
%TF.FileFunction,Copper,L2,Bot*%
%TF.FilePolarity,Positive*%
%FSLAX46Y46*%
G04 Gerber Fmt 4.6, Leading zero omitted, Abs format (unit mm)*
G04 Created by KiCad (PCBNEW 10.0.5-10.0.5~ubuntu26.04.1) date 2026-08-20 20:18:31*
%MOMM*%
%LPD*%
G01*
G04 APERTURE LIST*
%TA.AperFunction,ComponentPad*%
%ADD10C,2.200000*%
%TD*%
%TA.AperFunction,ComponentPad*%
%ADD11R,1.700000X1.700000*%
%TD*%
%TA.AperFunction,ComponentPad*%
%ADD12C,1.700000*%
%TD*%
%TA.AperFunction,ComponentPad*%
%ADD13R,2.000000X2.000000*%
%TD*%
%TA.AperFunction,ComponentPad*%
%ADD14C,2.000000*%
%TD*%
%TA.AperFunction,ComponentPad*%
%ADD15R,3.200000X2.000000*%
%TD*%
%TA.AperFunction,ComponentPad*%
%ADD16R,3.500000X1.700000*%
%TD*%
%TA.AperFunction,ComponentPad*%
%ADD17O,3.600000X1.700000*%
%TD*%
%TA.AperFunction,ComponentPad*%
%ADD18O,3.700000X1.700000*%
%TD*%
G04 APERTURE END LIST*
D10*
%TO.P,SW3,1,1_1*%
%TO.N,GND*%
X144040000Y-108420000D03*
%TO.P,SW3,2,2_2*%
%TO.N,Net-(U1-PA10_A2_D2)*%
X137690000Y-110960000D03*
%TD*%
%TO.P,SW1,1,1_1*%
%TO.N,GND*%
X144040000Y-83420000D03*
%TO.P,SW1,2,2_2*%
%TO.N,Net-(U1-PA02_A0_D0)*%
X137690000Y-85960000D03*
%TD*%
D11*
%TO.P,OLED1,1,Pin_1_1*%
%TO.N,GND*%
X111500000Y-78500000D03*
D12*
%TO.P,OLED1,2,Pin_2_2*%
%TO.N,/VCC*%
X114040000Y-78500000D03*
%TO.P,OLED1,3,Pin_3_3*%
%TO.N,/SCL*%
X116580000Y-78500000D03*
%TO.P,OLED1,4,Pin_4_4*%
%TO.N,/SDA*%
X119120000Y-78500000D03*
%TD*%
D13*
%TO.P,ROT2,A,A_A*%
%TO.N,/ROT2_A*%
X177250000Y-108500000D03*
D14*
%TO.P,ROT2,B,B_B*%
%TO.N,/ROT2_B*%
X177250000Y-113500000D03*
%TO.P,ROT2,C,C_C*%
%TO.N,GND*%
X177250000Y-111000000D03*
D15*
%TO.P,ROT2,MP*%
%TO.N,N/C*%
X184750000Y-105400000D03*
X184750000Y-116600000D03*
D14*
%TO.P,ROT2,S1,S1_S1*%
%TO.N,unconnected-(ROT2-PadS1)*%
X191750000Y-113500000D03*
%TO.P,ROT2,S2,S2_S2*%
%TO.N,GND*%
X191750000Y-108500000D03*
%TD*%
D16*
%TO.P,U1,1,PA02_A0_D0_1*%
%TO.N,Net-(U1-PA02_A0_D0)*%
X109764500Y-108092015D03*
D17*
%TO.P,U1,2,PA4_A1_D1_2*%
%TO.N,Net-(U1-PA4_A1_D1)*%
X109764500Y-110632015D03*
%TO.P,U1,3,PA10_A2_D2_3*%
%TO.N,Net-(U1-PA10_A2_D2)*%
X109764500Y-113172015D03*
%TO.P,U1,4,PA11_A3_D3_4*%
%TO.N,Net-(U1-PA11_A3_D3)*%
X109764500Y-115712015D03*
%TO.P,U1,5,PA8_A4_D4_SDA_5*%
%TO.N,/SDA*%
X109764500Y-118252015D03*
%TO.P,U1,6,PA9_A5_D5_SCL_6*%
%TO.N,/SCL*%
X109764500Y-120792015D03*
%TO.P,U1,7,PB08_A6_D6_TX_7*%
%TO.N,/ROT1_A*%
X109764500Y-123332015D03*
%TO.P,U1,8,PB09_A7_D7_RX_8*%
%TO.N,/ROT1_B*%
X127014500Y-123332015D03*
%TO.P,U1,9,PA7_A8_D8_SCK_9*%
%TO.N,/ROT1_S*%
X127014500Y-120792015D03*
%TO.P,U1,10,PA5_A9_D9_MISO_10*%
%TO.N,/ROT2_A*%
X127014500Y-118252015D03*
D18*
%TO.P,U1,11,PA6_A10_D10_MOSI_11*%
%TO.N,/ROT2_B*%
X127014500Y-115712015D03*
%TO.P,U1,12,3V3_12*%
%TO.N,/VCC*%
X127014500Y-113172015D03*
%TO.P,U1,13,GND_13*%
%TO.N,GND*%
X127014500Y-110632015D03*
%TO.P,U1,14,5V_14*%
%TO.N,unconnected-(U1-5V-Pad14)*%
X127014500Y-108092015D03*
%TD*%
D13*
%TO.P,ROT1,A,A_A*%
%TO.N,/ROT1_A*%
X177250000Y-88500000D03*
D14*
%TO.P,ROT1,B,B_B*%
%TO.N,/ROT1_B*%
X177250000Y-93500000D03*
%TO.P,ROT1,C,C_C*%
%TO.N,GND*%
X177250000Y-91000000D03*
D15*
%TO.P,ROT1,MP*%
%TO.N,N/C*%
X184750000Y-85400000D03*
X184750000Y-96600000D03*
D14*
%TO.P,ROT1,S1,S1_S1*%
%TO.N,/ROT1_S*%
X191750000Y-93500000D03*
%TO.P,ROT1,S2,S2_S2*%
%TO.N,GND*%
X191750000Y-88500000D03*
%TD*%
D10*
%TO.P,SW2,1,1_1*%
%TO.N,GND*%
X165040000Y-83420000D03*
%TO.P,SW2,2,2_2*%
%TO.N,Net-(U1-PA4_A1_D1)*%
X158690000Y-85960000D03*
%TD*%
%TO.P,SW4,1,1_1*%
%TO.N,GND*%
X165040000Y-108420000D03*
%TO.P,SW4,2,2_2*%
%TO.N,Net-(U1-PA11_A3_D3)*%
X158690000Y-110960000D03*
%TD*%
M02*
